EB Garamond-Bold Italic.ufo
<glyph name="exclam" format="1">
  <advance width="305"/>
  <unicode hex="0021"/>
  <note>
    exclam
  </note>
  <outline>
    <contour>
      <point x="154" y="172"/>
      <point x="169" y="194"/>
      <point x="185" y="225" type="curve" smooth="yes"/>
      <point x="260" y="373"/>
      <point x="313" y="484"/>
      <point x="341" y="556" type="curve" smooth="yes"/>
      <point x="363" y="614"/>
      <point x="330" y="649"/>
      <point x="280" y="649" type="curve" smooth="yes"/>
      <point x="233" y="649"/>
      <point x="195" y="610"/>
      <point x="186" y="566" type="curve" smooth="yes"/>
      <point x="169" y="482"/>
      <point x="147" y="379"/>
      <point x="120" y="225" type="curve" smooth="yes"/>
      <point x="113" y="186"/>
      <point x="119" y="172"/>
      <point x="137" y="172" type="curve" smooth="yes"/>
    </contour>
    <contour>
      <point x="134" y="-14"/>
      <point x="179" y="26"/>
      <point x="179" y="71" type="curve" smooth="yes"/>
      <point x="179" y="101"/>
      <point x="157" y="135"/>
      <point x="114" y="135" type="curve" smooth="yes"/>
      <point x="65" y="135"/>
      <point x="22" y="92"/>
      <point x="22" y="45" type="curve" smooth="yes"/>
      <point x="22" y="14"/>
      <point x="49" y="-14"/>
      <point x="83" y="-14" type="curve" smooth="yes"/>
    </contour>
  </outline>
</glyph>
<glyph name="numbersign" format="1">
  <advance width="484"/>
  <unicode hex="0023"/>
  <note>
    numbersign
  </note>
  <outline>
    <contour>
      <point x="12" y="-96"/>
      <point x="30" y="-93"/>
      <point x="40" y="-72" type="curve" smooth="yes"/>
      <point x="118" y="88" type="line"/>
      <point x="237" y="92" type="line"/>
      <point x="163" y="-56" type="line"/>
      <point x="162" y="-61" type="line" smooth="yes"/>
      <point x="160" y="-70"/>
      <point x="170" y="-80"/>
      <point x="180" y="-80" type="curve" smooth="yes"/>
      <point x="201" y="-80"/>
      <point x="208" y="-77"/>
      <point x="218" y="-56" type="curve" smooth="yes"/>
      <point x="292" y="95" type="line"/>
      <point x="371" y="98" type="line" smooth="yes"/>
      <point x="391" y="99"/>
      <point x="423" y="135"/>
      <point x="431" y="170" type="curve" smooth="yes"/>
      <point x="434" y="183"/>
      <point x="426" y="193"/>
      <point x="409" y="192" type="curve" smooth="yes"/>
      <point x="338" y="189" type="line"/>
      <point x="391" y="296" type="line"/>
      <point x="459" y="299" type="line" smooth="yes"/>
      <point x="480" y="300"/>
      <point x="511" y="336"/>
      <point x="519" y="371" type="curve" smooth="yes"/>
      <point x="522" y="384"/>
      <point x="514" y="394"/>
      <point x="497" y="393" type="curve" smooth="yes"/>
      <point x="438" y="390" type="line"/>
      <point x="508" y="534" type="line"/>
      <point x="508" y="537"/>
      <point x="511" y="538"/>
      <point x="512" y="542" type="curve" smooth="yes"/>
      <point x="514" y="551"/>
      <point x="511" y="561"/>
      <point x="503" y="561" type="curve" smooth="yes"/>
      <point x="480" y="561"/>
      <point x="463" y="556"/>
      <point x="454" y="534" type="curve"/>
      <point x="382" y="387" type="line"/>
      <point x="263" y="383" type="line"/>
      <point x="331" y="523" type="line"/>
      <point x="332" y="526"/>
      <point x="334" y="527"/>
      <point x="335" y="531" type="curve" smooth="yes"/>
      <point x="337" y="540"/>
      <point x="335" y="550"/>
      <point x="327" y="550" type="curve" smooth="yes"/>
      <point x="304" y="550"/>
      <point x="282" y="545"/>
      <point x="273" y="523" type="curve"/>
      <point x="203" y="380" type="line"/>
      <point x="127" y="377" type="line" smooth="yes"/>
      <point x="107" y="376"/>
      <point x="82" y="360"/>
      <point x="70" y="304" type="curve" smooth="yes"/>
      <point x="68" y="295"/>
      <point x="73" y="282"/>
      <point x="88" y="283" type="curve" smooth="yes"/>
      <point x="156" y="286" type="line"/>
      <point x="110" y="180" type="line"/>
      <point x="39" y="177" type="line" smooth="yes"/>
      <point x="19" y="176"/>
      <point x="-5" y="160"/>
      <point x="-17" y="104" type="curve" smooth="yes"/>
      <point x="-19" y="95"/>
      <point x="-15" y="82"/>
      <point x="0" y="83" type="curve" smooth="yes"/>
      <point x="58" y="85" type="line"/>
      <point x="-19" y="-72" type="line"/>
      <point x="-21" y="-77" type="line" smooth="yes"/>
      <point x="-25" y="-86"/>
      <point x="-19" y="-96"/>
      <point x="-9" y="-96" type="curve" smooth="yes"/>
    </contour>
    <contour>
      <point x="217" y="289" type="line"/>
      <point x="335" y="293" type="line"/>
      <point x="283" y="186" type="line"/>
      <point x="164" y="182" type="line"/>
    </contour>
  </outline>
</glyph>
<glyph name="dollar" format="1">
  <advance width="564"/>
  <unicode hex="0024"/>
  <note>
    dollar
  </note>
  <outline>
    <contour>
      <point x="402" y="-14"/>
      <point x="502" y="96"/>
      <point x="502" y="199" type="curve" smooth="yes"/>
      <point x="502" y="267"/>
      <point x="479" y="319"/>
      <point x="394" y="387" type="curve" smooth="yes"/>
      <point x="309" y="455"/>
      <point x="288" y="477"/>
      <point x="288" y="524" type="curve" smooth="yes"/>
      <point x="288" y="571"/>
      <point x="324" y="628"/>
      <point x="400" y="628" type="curve" smooth="yes"/>
      <point x="474" y="628"/>
      <point x="525" y="567"/>
      <point x="525" y="481" type="curve" smooth="yes"/>
      <point x="525" y="450"/>
      <point x="530" y="437"/>
      <point x="545" y="437" type="curve" smooth="yes"/>
      <point x="559" y="437"/>
      <point x="564" y="446"/>
      <point x="568" y="460" type="curve" smooth="yes"/>
      <point x="583" y="511"/>
      <point x="618" y="590"/>
      <point x="645" y="624" type="curve" smooth="yes"/>
      <point x="654" y="636"/>
      <point x="651" y="648"/>
      <point x="636" y="648" type="curve" smooth="yes"/>
      <point x="626" y="648"/>
      <point x="616" y="643"/>
      <point x="605" y="637" type="curve" smooth="yes"/>
      <point x="596" y="632"/>
      <point x="589" y="631"/>
      <point x="578" y="631" type="curve" smooth="yes"/>
      <point x="561" y="631"/>
      <point x="547" y="636"/>
      <point x="519" y="644" type="curve" smooth="yes"/>
      <point x="489" y="653"/>
      <point x="445" y="664"/>
      <point x="392" y="664" type="curve" smooth="yes"/>
      <point x="244" y="664"/>
      <point x="138" y="577"/>
      <point x="138" y="465" type="curve" smooth="yes"/>
      <point x="138" y="384"/>
      <point x="169" y="337"/>
      <point x="238" y="279" type="curve" smooth="yes"/>
      <point x="327" y="203"/>
      <point x="349" y="176"/>
      <point x="349" y="133" type="curve" smooth="yes"/>
      <point x="349" y="76"/>
      <point x="300" y="23"/>
      <point x="218" y="23" type="curve" smooth="yes"/>
      <point x="131" y="23"/>
      <point x="88" y="95"/>
      <point x="88" y="158" type="curve" smooth="yes"/>
      <point x="88" y="205"/>
      <point x="86" y="226"/>
      <point x="66" y="226" type="curve" smooth="yes"/>
      <point x="49" y="226"/>
      <point x="43" y="216"/>
      <point x="39" y="191" type="curve" smooth="yes"/>
      <point x="29" y="115"/>
      <point x="-17" y="39"/>
      <point x="-17" y="24" type="curve" smooth="yes"/>
      <point x="-17" y="14"/>
      <point x="0" y="0"/>
      <point x="8" y="0" type="curve" smooth="yes"/>
      <point x="14" y="0"/>
      <point x="24" y="6"/>
      <point x="34" y="12" type="curve" smooth="yes"/>
      <point x="41" y="16"/>
      <point x="52" y="20"/>
      <point x="61" y="20" type="curve" smooth="yes"/>
      <point x="65" y="20"/>
      <point x="80" y="15"/>
      <point x="100" y="7" type="curve" smooth="yes"/>
      <point x="138" y="-9"/>
      <point x="184" y="-14"/>
      <point x="237" y="-14" type="curve" smooth="yes"/>
    </contour>
    <contour>
      <point x="146" y="-96"/>
      <point x="163" y="-91"/>
      <point x="166" y="-82" type="curve"/>
      <point x="493" y="692" type="line" smooth="yes"/>
      <point x="502" y="712"/>
      <point x="501" y="725"/>
      <point x="486" y="725" type="curve" smooth="yes"/>
      <point x="463" y="725"/>
      <point x="440" y="717"/>
      <point x="434" y="703" type="curve"/>
      <point x="111" y="-63" type="line"/>
      <point x="105" y="-79"/>
      <point x="107" y="-96"/>
      <point x="128" y="-96" type="curve" smooth="yes"/>
    </contour>
  </outline>
</glyph>
<glyph name="ampersand" format="1">
  <advance width="829"/>
  <unicode hex="0026"/>
  <note>
    ampersand
  </note>
  <outline>
    <contour>
      <point x="616" y="-14"/>
      <point x="766" y="105"/>
      <point x="766" y="304" type="curve" smooth="yes"/>
      <point x="766" y="340"/>
      <point x="758" y="379"/>
      <point x="739" y="409" type="curve" smooth="yes"/>
      <point x="734" y="417"/>
      <point x="738" y="420"/>
      <point x="775" y="422" type="curve" smooth="yes"/>
      <point x="858" y="426"/>
      <point x="917" y="502"/>
      <point x="917" y="591" type="curve" smooth="yes"/>
      <point x="917" y="679"/>
      <point x="868" y="718"/>
      <point x="812" y="718" type="curve" smooth="yes"/>
      <point x="739" y="718"/>
      <point x="705" y="666"/>
      <point x="705" y="620" type="curve" smooth="yes"/>
      <point x="704" y="585"/>
      <point x="725" y="553"/>
      <point x="764" y="553" type="curve" smooth="yes"/>
      <point x="801" y="553"/>
      <point x="822" y="580"/>
      <point x="822" y="606" type="curve" smooth="yes"/>
      <point x="822" y="619"/>
      <point x="816" y="632"/>
      <point x="804" y="641" type="curve" smooth="yes"/>
      <point x="795" y="648"/>
      <point x="789" y="656"/>
      <point x="789" y="664" type="curve" smooth="yes"/>
      <point x="789" y="673"/>
      <point x="798" y="681"/>
      <point x="819" y="681" type="curve" smooth="yes"/>
      <point x="842" y="681"/>
      <point x="872" y="662"/>
      <point x="872" y="624" type="curve" smooth="yes"/>
      <point x="872" y="552"/>
      <point x="831" y="523"/>
      <point x="717" y="523" type="curve" smooth="yes"/>
      <point x="637" y="523" type="line" smooth="yes"/>
      <point x="534" y="523"/>
      <point x="450" y="472"/>
      <point x="450" y="350" type="curve" smooth="yes"/>
      <point x="450" y="282"/>
      <point x="506" y="234"/>
      <point x="587" y="234" type="curve" smooth="yes"/>
      <point x="630" y="234"/>
      <point x="664" y="263"/>
      <point x="664" y="307" type="curve" smooth="yes"/>
      <point x="664" y="332"/>
      <point x="648" y="353"/>
      <point x="613" y="353" type="curve" smooth="yes"/>
      <point x="600" y="353"/>
      <point x="590" y="344"/>
      <point x="580" y="334" type="curve" smooth="yes"/>
      <point x="569" y="323"/>
      <point x="559" y="310"/>
      <point x="547" y="310" type="curve" smooth="yes"/>
      <point x="516" y="310"/>
      <point x="494" y="328"/>
      <point x="494" y="353" type="curve" smooth="yes"/>
      <point x="494" y="393"/>
      <point x="533" y="431"/>
      <point x="580" y="432" type="curve" smooth="yes"/>
      <point x="667" y="434"/>
      <point x="710" y="380"/>
      <point x="710" y="320" type="curve" smooth="yes"/>
      <point x="710" y="205"/>
      <point x="611" y="115"/>
      <point x="440" y="115" type="curve" smooth="yes"/>
      <point x="240" y="115"/>
      <point x="154" y="211"/>
      <point x="154" y="312" type="curve" smooth="yes"/>
      <point x="154" y="408"/>
      <point x="208" y="471"/>
      <point x="299" y="471" type="curve" smooth="yes"/>
      <point x="340" y="471"/>
      <point x="363" y="447"/>
      <point x="363" y="419" type="curve" smooth="yes"/>
      <point x="363" y="388"/>
      <point x="339" y="365"/>
      <point x="299" y="365" type="curve" smooth="yes"/>
      <point x="227" y="365"/>
      <point x="192" y="419"/>
      <point x="192" y="525" type="curve" smooth="yes"/>
      <point x="192" y="603"/>
      <point x="242" y="648"/>
      <point x="320" y="648" type="curve" smooth="yes"/>
      <point x="348" y="648"/>
      <point x="373" y="617"/>
      <point x="373" y="587" type="curve" smooth="yes"/>
      <point x="373" y="568"/>
      <point x="395" y="547"/>
      <point x="413" y="547" type="curve" smooth="yes"/>
      <point x="446" y="547"/>
      <point x="468" y="571"/>
      <point x="468" y="607" type="curve" smooth="yes"/>
      <point x="468" y="674"/>
      <point x="422" y="717"/>
      <point x="348" y="718" type="curve" smooth="yes"/>
      <point x="226" y="720"/>
      <point x="128" y="635"/>
      <point x="128" y="526" type="curve" smooth="yes"/>
      <point x="128" y="404"/>
      <point x="203" y="321"/>
      <point x="301" y="321" type="curve" smooth="yes"/>
      <point x="364" y="321"/>
      <point x="414" y="366"/>
      <point x="414" y="416" type="curve" smooth="yes"/>
      <point x="414" y="466"/>
      <point x="379" y="507"/>
      <point x="298" y="508" type="curve" smooth="yes"/>
      <point x="174" y="509"/>
      <point x="72" y="394"/>
      <point x="72" y="250" type="curve" smooth="yes"/>
      <point x="72" y="94"/>
      <point x="218" y="-14"/>
      <point x="406" y="-14" type="curve" smooth="yes"/>
    </contour>
  </outline>
</glyph>
<glyph name="quotesingle" format="1">
  <advance width="212"/>
  <unicode hex="0027"/>
  <note>
    quotesingle
  </note>
  <outline>
    <contour>
      <point x="146" y="400"/>
      <point x="168" y="417"/>
      <point x="181" y="432" type="curve" smooth="yes"/>
      <point x="220" y="477"/>
      <point x="297" y="582"/>
      <point x="317" y="647" type="curve" smooth="yes"/>
      <point x="323" y="667"/>
      <point x="318" y="685"/>
      <point x="302" y="685" type="curve" smooth="yes"/>
      <point x="276" y="685"/>
      <point x="258" y="676"/>
      <point x="229" y="660" type="curve"/>
      <point x="214" y="652"/>
      <point x="192" y="637"/>
      <point x="186" y="617" type="curve" smooth="yes"/>
      <point x="175" y="582"/>
      <point x="170" y="543"/>
      <point x="155" y="496" type="curve" smooth="yes"/>
      <point x="148" y="474"/>
      <point x="145" y="455"/>
      <point x="136" y="429" type="curve"/>
      <point x="132" y="418"/>
      <point x="129" y="400"/>
      <point x="139" y="400" type="curve" smooth="yes"/>
    </contour>
  </outline>
</glyph>
<glyph name="parenleft" format="1">
  <advance width="298"/>
  <unicode hex="0028"/>
  <note>
    parenleft
  </note>
  <outline>
    <contour>
      <point x="137" y="-215"/>
      <point x="146" y="-203"/>
      <point x="146" y="-188" type="curve" smooth="yes"/>
      <point x="146" y="-156"/>
      <point x="112" y="-96"/>
      <point x="112" y="22" type="curve" smooth="yes"/>
      <point x="112" y="263"/>
      <point x="231" y="528"/>
      <point x="421" y="671" type="curve" smooth="yes"/>
      <point x="431" y="679"/>
      <point x="436" y="687"/>
      <point x="436" y="692" type="curve" smooth="yes"/>
      <point x="436" y="701"/>
      <point x="427" y="706"/>
      <point x="414" y="706" type="curve" smooth="yes"/>
      <point x="401" y="706"/>
      <point x="386" y="701"/>
      <point x="369" y="692" type="curve" smooth="yes"/>
      <point x="155" y="563"/>
      <point x="26" y="322"/>
      <point x="26" y="74" type="curve" smooth="yes"/>
      <point x="26" y="-23"/>
      <point x="43" y="-116"/>
      <point x="71" y="-169" type="curve" smooth="yes"/>
      <point x="86" y="-198"/>
      <point x="104" y="-215"/>
      <point x="125" y="-215" type="curve" smooth="yes"/>
    </contour>
  </outline>
</glyph>
<glyph name="asterisk" format="1">
  <advance width="364"/>
  <unicode hex="002A"/>
  <note>
    asterisk
  </note>
  <outline>
    <contour>
      <point x="250" y="352"/>
      <point x="262" y="363"/>
      <point x="268" y="376" type="curve" smooth="yes"/>
      <point x="279" y="399"/>
      <point x="291" y="435"/>
      <point x="295" y="443" type="curve"/>
      <point x="311" y="428"/>
      <point x="329" y="412"/>
      <point x="344" y="396" type="curve" smooth="yes"/>
      <point x="354" y="386"/>
      <point x="366" y="384"/>
      <point x="375" y="384" type="curve" smooth="yes"/>
      <point x="392" y="384"/>
      <point x="405" y="399"/>
      <point x="405" y="414" type="curve" smooth="yes"/>
      <point x="405" y="424"/>
      <point x="400" y="435"/>
      <point x="393" y="443" type="curve" smooth="yes"/>
      <point x="378" y="462"/>
      <point x="354" y="487"/>
      <point x="349" y="495" type="curve"/>
      <point x="371" y="501"/>
      <point x="393" y="507"/>
      <point x="415" y="513" type="curve" smooth="yes"/>
      <point x="435" y="517"/>
      <point x="445" y="537"/>
      <point x="445" y="552" type="curve" smooth="yes"/>
      <point x="445" y="570"/>
      <point x="431" y="579"/>
      <point x="409" y="579" type="curve" smooth="yes"/>
      <point x="386" y="579"/>
      <point x="343" y="568"/>
      <point x="333" y="568" type="curve"/>
      <point x="340" y="590"/>
      <point x="346" y="611"/>
      <point x="353" y="633" type="curve" smooth="yes"/>
      <point x="359" y="659"/>
      <point x="347" y="682"/>
      <point x="324" y="682" type="curve" smooth="yes"/>
      <point x="308" y="682"/>
      <point x="296" y="670"/>
      <point x="289" y="656" type="curve" smooth="yes"/>
      <point x="278" y="634"/>
      <point x="270" y="615"/>
      <point x="262" y="592" type="curve"/>
      <point x="246" y="608"/>
      <point x="231" y="625"/>
      <point x="216" y="642" type="curve" smooth="yes"/>
      <point x="207" y="653"/>
      <point x="196" y="657"/>
      <point x="186" y="657" type="curve" smooth="yes"/>
      <point x="168" y="657"/>
      <point x="155" y="642"/>
      <point x="155" y="625" type="curve" smooth="yes"/>
      <point x="155" y="616"/>
      <point x="159" y="606"/>
      <point x="164" y="598" type="curve" smooth="yes"/>
      <point x="178" y="577"/>
      <point x="202" y="551"/>
      <point x="206" y="542" type="curve"/>
      <point x="184" y="537"/>
      <point x="162" y="532"/>
      <point x="140" y="527" type="curve"/>
      <point x="125" y="525"/>
      <point x="108" y="511"/>
      <point x="108" y="490" type="curve" smooth="yes"/>
      <point x="108" y="473"/>
      <point x="128" y="459"/>
      <point x="152" y="462" type="curve" smooth="yes"/>
      <point x="177" y="465"/>
      <point x="214" y="469"/>
      <point x="223" y="468" type="curve"/>
      <point x="217" y="446"/>
      <point x="211" y="424"/>
      <point x="206" y="401" type="curve" smooth="yes"/>
      <point x="200" y="375"/>
      <point x="212" y="352"/>
      <point x="236" y="352" type="curve" smooth="yes"/>
    </contour>
  </outline>
</glyph>
<glyph name="comma" format="1">
  <advance width="244"/>
  <unicode hex="002C"/>
  <note>
    comma
  </note>
  <outline>
    <contour>
      <point x="50" y="-166"/>
      <point x="160" y="-58"/>
      <point x="160" y="31" type="curve" smooth="yes"/>
      <point x="160" y="85"/>
      <point x="122" y="119"/>
      <point x="73" y="119" type="curve" smooth="yes"/>
      <point x="26" y="119"/>
      <point x="-11" y="80"/>
      <point x="-11" y="35" type="curve" smooth="yes"/>
      <point x="-11" y="14"/>
      <point x="2" y="1"/>
      <point x="17" y="-4" type="curve" smooth="yes"/>
      <point x="33" y="-9"/>
      <point x="47" y="-18"/>
      <point x="47" y="-36" type="curve" smooth="yes"/>
      <point x="47" y="-77"/>
      <point x="-4" y="-120"/>
      <point x="-58" y="-127" type="curve" smooth="yes"/>
      <point x="-73" y="-129"/>
      <point x="-84" y="-136"/>
      <point x="-88" y="-147" type="curve" smooth="yes"/>
      <point x="-92" y="-158"/>
      <point x="-83" y="-166"/>
      <point x="-67" y="-166" type="curve" smooth="yes"/>
    </contour>
  </outline>
</glyph>
<glyph name="hyphen" format="1">
  <advance width="333"/>
  <unicode hex="002D"/>
  <note>
    hyphen
  </note>
  <outline>
    <contour>
      <point x="106" y="170"/>
      <point x="201" y="183"/>
      <point x="279" y="194" type="curve" smooth="yes"/>
      <point x="295" y="197"/>
      <point x="318" y="232"/>
      <point x="318" y="249" type="curve" smooth="yes"/>
      <point x="318" y="260"/>
      <point x="318" y="268"/>
      <point x="304" y="267" type="curve" smooth="yes"/>
      <point x="229" y="261"/>
      <point x="138" y="250"/>
      <point x="61" y="238" type="curve" smooth="yes"/>
      <point x="44" y="235"/>
      <point x="17" y="212"/>
      <point x="17" y="174" type="curve" smooth="yes"/>
      <point x="17" y="167"/>
      <point x="21" y="162"/>
      <point x="30" y="163" type="curve" smooth="yes"/>
    </contour>
  </outline>
</glyph>
<glyph name="slash" format="1">
  <advance width="277"/>
  <unicode hex="002F"/>
  <note>
    slash
  </note>
  <outline>
    <contour>
      <point x="-25" y="-61"/>
      <point x="-6" y="-61"/>
      <point x="4" y="-44" type="curve" smooth="yes"/>
      <point x="399" y="639" type="line" smooth="yes"/>
      <point x="404" y="648"/>
      <point x="397" y="661"/>
      <point x="379" y="663" type="curve" smooth="yes"/>
      <point x="357" y="665"/>
      <point x="340" y="663"/>
      <point x="330" y="645" type="curve" smooth="yes"/>
      <point x="-63" y="-38" type="line" smooth="yes"/>
      <point x="-69" y="-48"/>
      <point x="-59" y="-59"/>
      <point x="-44" y="-60" type="curve" smooth="yes"/>
    </contour>
  </outline>
</glyph>
<glyph name="zero" format="1">
  <advance width="445"/>
  <unicode hex="0030"/>
  <note>
    zero
  </note>
  <outline>
    <contour>
      <point x="325" y="-14"/>
      <point x="431" y="172"/>
      <point x="435" y="291" type="curve" smooth="yes"/>
      <point x="437" y="375"/>
      <point x="379" y="437"/>
      <point x="303" y="437" type="curve" smooth="yes"/>
      <point x="124" y="437"/>
      <point x="14" y="245"/>
      <point x="11" y="134" type="curve" smooth="yes"/>
      <point x="8" y="48"/>
      <point x="66" y="-14"/>
      <point x="142" y="-14" type="curve" smooth="yes"/>
    </contour>
    <contour>
      <point x="142" y="27"/>
      <point x="135" y="43"/>
      <point x="138" y="76" type="curve" smooth="yes"/>
      <point x="146" y="197"/>
      <point x="231" y="399"/>
      <point x="283" y="399" type="curve" smooth="yes"/>
      <point x="307" y="399"/>
      <point x="311" y="383"/>
      <point x="309" y="350" type="curve" smooth="yes"/>
      <point x="300" y="228"/>
      <point x="223" y="27"/>
      <point x="163" y="27" type="curve" smooth="yes"/>
    </contour>
  </outline>
</glyph>
<glyph name="one" format="1">
  <advance width="338"/>
  <unicode hex="0031"/>
  <note>
    one
  </note>
  <outline>
    <contour>
      <point x="40" y="-5"/>
      <point x="50" y="2"/>
      <point x="104" y="2" type="curve" smooth="yes"/>
      <point x="158" y="2"/>
      <point x="160" y="-5"/>
      <point x="232" y="-5" type="curve" smooth="yes"/>
      <point x="244" y="-5"/>
      <point x="257" y="4"/>
      <point x="257" y="13" type="curve" smooth="yes"/>
      <point x="257" y="22"/>
      <point x="252" y="27"/>
      <point x="243" y="29" type="curve" smooth="yes"/>
      <point x="205" y="38"/>
      <point x="188" y="39"/>
      <point x="205" y="92" type="curve" smooth="yes"/>
      <point x="279" y="332" type="line" smooth="yes"/>
      <point x="296" y="385"/>
      <point x="318" y="387"/>
      <point x="362" y="395" type="curve" smooth="yes"/>
      <point x="369" y="396"/>
      <point x="384" y="405"/>
      <point x="384" y="414" type="curve" smooth="yes"/>
      <point x="384" y="424"/>
      <point x="377" y="429"/>
      <point x="366" y="429" type="curve" smooth="yes"/>
      <point x="294" y="429"/>
      <point x="288" y="422"/>
      <point x="234" y="422" type="curve" smooth="yes"/>
      <point x="180" y="422"/>
      <point x="174" y="429"/>
      <point x="105" y="429" type="curve" smooth="yes"/>
      <point x="97" y="429"/>
      <point x="76" y="425"/>
      <point x="76" y="412" type="curve" smooth="yes"/>
      <point x="76" y="401"/>
      <point x="88" y="395"/>
      <point x="95" y="395" type="curve" smooth="yes"/>
      <point x="119" y="392"/>
      <point x="151" y="388"/>
      <point x="134" y="332" type="curve" smooth="yes"/>
      <point x="60" y="92" type="line" smooth="yes"/>
      <point x="43" y="36"/>
      <point x="7" y="35"/>
      <point x="-19" y="29" type="curve" smooth="yes"/>
      <point x="-28" y="27"/>
      <point x="-43" y="21"/>
      <point x="-43" y="13" type="curve" smooth="yes"/>
      <point x="-43" y="3"/>
      <point x="-37" y="-5"/>
      <point x="-29" y="-5" type="curve" smooth="yes"/>
    </contour>
  </outline>
</glyph>
<glyph name="two" format="1">
  <advance width="483"/>
  <unicode hex="0032"/>
  <note>
    two
  </note>
  <outline>
    <contour>
      <point x="-40" y="-5"/>
      <point x="60" y="0"/>
      <point x="128" y="0" type="curve" smooth="yes"/>
      <point x="198" y="0"/>
      <point x="324" y="-3"/>
      <point x="339" y="-3" type="curve" smooth="yes"/>
      <point x="354" y="-3"/>
      <point x="362" y="5"/>
      <point x="367" y="19" type="curve" smooth="yes"/>
      <point x="372" y="32"/>
      <point x="420" y="113"/>
      <point x="461" y="174" type="curve" smooth="yes"/>
      <point x="467" y="185"/>
      <point x="460" y="197"/>
      <point x="449" y="197" type="curve" smooth="yes"/>
      <point x="436" y="197"/>
      <point x="420" y="184"/>
      <point x="413" y="175" type="curve" smooth="yes"/>
      <point x="382" y="134"/>
      <point x="352" y="111"/>
      <point x="311" y="111" type="curve" smooth="yes"/>
      <point x="175" y="111" type="line" smooth="yes"/>
      <point x="165" y="111"/>
      <point x="161" y="114"/>
      <point x="170" y="119" type="curve" smooth="yes"/>
      <point x="208" y="140"/>
      <point x="263" y="166"/>
      <point x="315" y="203" type="curve" smooth="yes"/>
      <point x="360" y="236"/>
      <point x="406" y="280"/>
      <point x="406" y="336" type="curve" smooth="yes"/>
      <point x="406" y="389"/>
      <point x="362" y="437"/>
      <point x="268" y="437" type="curve" smooth="yes"/>
      <point x="170" y="437"/>
      <point x="48" y="363"/>
      <point x="48" y="307" type="curve" smooth="yes"/>
      <point x="48" y="301"/>
      <point x="50" y="296"/>
      <point x="57" y="296" type="curve" smooth="yes"/>
      <point x="68" y="296"/>
      <point x="73" y="300"/>
      <point x="83" y="308" type="curve" smooth="yes"/>
      <point x="108" y="329"/>
      <point x="136" y="341"/>
      <point x="161" y="341" type="curve" smooth="yes"/>
      <point x="193" y="341"/>
      <point x="226" y="318"/>
      <point x="227" y="280" type="curve" smooth="yes"/>
      <point x="230" y="224"/>
      <point x="162" y="144"/>
      <point x="80" y="96" type="curve" smooth="yes"/>
      <point x="27" y="65"/>
      <point x="-14" y="31"/>
      <point x="-39" y="16" type="curve" smooth="yes"/>
      <point x="-47" y="11"/>
      <point x="-51" y="6"/>
      <point x="-51" y="1" type="curve" smooth="yes"/>
      <point x="-51" y="-3"/>
      <point x="-48" y="-5"/>
      <point x="-46" y="-5" type="curve" smooth="yes"/>
    </contour>
  </outline>
</glyph>
<glyph name="three" format="1">
  <advance width="410"/>
  <unicode hex="0033"/>
  <note>
    three
  </note>
  <outline>
    <contour>
      <point x="38" y="-194"/>
      <point x="98" y="-174"/>
      <point x="155" y="-144" type="curve" smooth="yes"/>
      <point x="253" y="-92"/>
      <point x="341" y="-14"/>
      <point x="341" y="63" type="curve" smooth="yes"/>
      <point x="341" y="109"/>
      <point x="295" y="171"/>
      <point x="216" y="187" type="curve" smooth="yes"/>
      <point x="211" y="188"/>
      <point x="213" y="193"/>
      <point x="219" y="195" type="curve" smooth="yes"/>
      <point x="324" y="237"/>
      <point x="396" y="293"/>
      <point x="396" y="346" type="curve" smooth="yes"/>
      <point x="396" y="390"/>
      <point x="357" y="437"/>
      <point x="264" y="437" type="curve" smooth="yes"/>
      <point x="171" y="437"/>
      <point x="55" y="365"/>
      <point x="55" y="317" type="curve" smooth="yes"/>
      <point x="55" y="310"/>
      <point x="57" y="306"/>
      <point x="62" y="306" type="curve" smooth="yes"/>
      <point x="72" y="306"/>
      <point x="83" y="311"/>
      <point x="89" y="317" type="curve" smooth="yes"/>
      <point x="118" y="346"/>
      <point x="155" y="365"/>
      <point x="191" y="365" type="curve" smooth="yes"/>
      <point x="227" y="365"/>
      <point x="245" y="341"/>
      <point x="245" y="310" type="curve" smooth="yes"/>
      <point x="245" y="268"/>
      <point x="216" y="237"/>
      <point x="175" y="211" type="curve" smooth="yes"/>
      <point x="150" y="194"/>
      <point x="120" y="180"/>
      <point x="89" y="166" type="curve" smooth="yes"/>
      <point x="69" y="157"/>
      <point x="34" y="134"/>
      <point x="31" y="123" type="curve" smooth="yes"/>
      <point x="27" y="110"/>
      <point x="32" y="101"/>
      <point x="49" y="101" type="curve" smooth="yes"/>
      <point x="67" y="101"/>
      <point x="79" y="122"/>
      <point x="112" y="122" type="curve" smooth="yes"/>
      <point x="150" y="122"/>
      <point x="177" y="96"/>
      <point x="177" y="35" type="curve" smooth="yes"/>
      <point x="177" y="-48"/>
      <point x="117" y="-153"/>
      <point x="31" y="-153" type="curve" smooth="yes"/>
      <point x="-2" y="-153"/>
      <point x="-21" y="-125"/>
      <point x="-48" y="-125" type="curve" smooth="yes"/>
      <point x="-64" y="-125"/>
      <point x="-74" y="-140"/>
      <point x="-74" y="-161" type="curve" smooth="yes"/>
      <point x="-74" y="-171"/>
      <point x="-59" y="-194"/>
      <point x="-21" y="-194" type="curve" smooth="yes"/>
    </contour>
  </outline>
</glyph>
<glyph name="four" format="1">
  <advance width="539"/>
  <unicode hex="0034"/>
  <note>
    four
  </note>
  <outline>
    <contour>
      <point x="225" y="-181"/>
      <point x="312" y="-154"/>
      <point x="319" y="-131" type="curve" smooth="yes"/>
      <point x="363" y="11" type="line" smooth="yes"/>
      <point x="369" y="26"/>
      <point x="374" y="29"/>
      <point x="384" y="29" type="curve" smooth="yes"/>
      <point x="401" y="29"/>
      <point x="428" y="28"/>
      <point x="444" y="28" type="curve" smooth="yes"/>
      <point x="452" y="28"/>
      <point x="491" y="89"/>
      <point x="491" y="105" type="curve" smooth="yes"/>
      <point x="491" y="109"/>
      <point x="485" y="112"/>
      <point x="478" y="112" type="curve" smooth="yes"/>
      <point x="439" y="110"/>
      <point x="428" y="109"/>
      <point x="402" y="111" type="curve" smooth="yes"/>
      <point x="399" y="111"/>
      <point x="394" y="115"/>
      <point x="396" y="123" type="curve" smooth="yes"/>
      <point x="432" y="238"/>
      <point x="450" y="283"/>
      <point x="487" y="400" type="curve" smooth="yes"/>
      <point x="496" y="429"/>
      <point x="493" y="441"/>
      <point x="481" y="441" type="curve" smooth="yes"/>
      <point x="464" y="441"/>
      <point x="439" y="429"/>
      <point x="404" y="400" type="curve" smooth="yes"/>
      <point x="257" y="277"/>
      <point x="111" y="154"/>
      <point x="-36" y="31" type="curve" smooth="yes"/>
      <point x="-37" y="30"/>
      <point x="-42" y="24"/>
      <point x="-42" y="23" type="curve" smooth="yes"/>
      <point x="-44" y="17"/>
      <point x="-35" y="17"/>
      <point x="-30" y="17" type="curve" smooth="yes"/>
      <point x="37" y="19"/>
      <point x="143" y="25"/>
      <point x="201" y="25" type="curve" smooth="yes"/>
      <point x="215" y="25"/>
      <point x="220" y="25"/>
      <point x="215" y="8" type="curve" smooth="yes"/>
      <point x="159" y="-168" type="line" smooth="yes"/>
      <point x="156" y="-178"/>
      <point x="162" y="-181"/>
      <point x="171" y="-181" type="curve" smooth="yes"/>
    </contour>
    <contour>
      <point x="146" y="112"/>
      <point x="145" y="115"/>
      <point x="151" y="121" type="curve" smooth="yes"/>
      <point x="187" y="152"/>
      <point x="245" y="204"/>
      <point x="279" y="231" type="curve" smooth="yes"/>
      <point x="284" y="235"/>
      <point x="286" y="233"/>
      <point x="284" y="226" type="curve" smooth="yes"/>
      <point x="250" y="118" type="line" smooth="yes"/>
      <point x="249" y="115"/>
      <point x="245" y="112"/>
      <point x="241" y="112" type="curve" smooth="yes"/>
      <point x="151" y="112" type="line" smooth="yes"/>
    </contour>
  </outline>
</glyph>
<glyph name="five" format="1">
  <advance width="388"/>
  <unicode hex="0035"/>
  <note>
    five
  </note>
  <outline>
    <contour>
      <point x="145" y="-194"/>
      <point x="282" y="-83"/>
      <point x="282" y="21" type="curve" smooth="yes"/>
      <point x="282" y="67"/>
      <point x="268" y="112"/>
      <point x="240" y="158" type="curve" smooth="yes"/>
      <point x="220" y="190"/>
      <point x="194" y="222"/>
      <point x="162" y="254" type="curve" smooth="yes"/>
      <point x="153" y="263"/>
      <point x="138" y="272"/>
      <point x="142" y="279" type="curve" smooth="yes"/>
      <point x="149" y="291" type="line" smooth="yes"/>
      <point x="153" y="298"/>
      <point x="160" y="301"/>
      <point x="169" y="302" type="curve" smooth="yes"/>
      <point x="190" y="304"/>
      <point x="266" y="307"/>
      <point x="310" y="313" type="curve" smooth="yes"/>
      <point x="342" y="318"/>
      <point x="385" y="375"/>
      <point x="399" y="419" type="curve" smooth="yes"/>
      <point x="402" y="430"/>
      <point x="398" y="440"/>
      <point x="387" y="440" type="curve" smooth="yes"/>
      <point x="369" y="440"/>
      <point x="248" y="420"/>
      <point x="195" y="404" type="curve" smooth="yes"/>
      <point x="179" y="399"/>
      <point x="161" y="390"/>
      <point x="143" y="370" type="curve" smooth="yes"/>
      <point x="128" y="353"/>
      <point x="71" y="270"/>
      <point x="48" y="198" type="curve" smooth="yes"/>
      <point x="38" y="168"/>
      <point x="57" y="156"/>
      <point x="84" y="129" type="curve" smooth="yes"/>
      <point x="136" y="75"/>
      <point x="159" y="10"/>
      <point x="159" y="-48" type="curve" smooth="yes"/>
      <point x="159" y="-107"/>
      <point x="126" y="-149"/>
      <point x="64" y="-149" type="curve" smooth="yes"/>
      <point x="38" y="-149"/>
      <point x="20" y="-143"/>
      <point x="5" y="-136" type="curve" smooth="yes"/>
      <point x="-16" y="-125"/>
      <point x="-29" y="-113"/>
      <point x="-45" y="-113" type="curve" smooth="yes"/>
      <point x="-64" y="-113"/>
      <point x="-92" y="-145"/>
      <point x="-92" y="-165" type="curve" smooth="yes"/>
      <point x="-92" y="-184"/>
      <point x="-60" y="-194"/>
      <point x="-15" y="-194" type="curve" smooth="yes"/>
    </contour>
  </outline>
</glyph>
<glyph name="six" format="1">
  <advance width="463"/>
  <unicode hex="0036"/>
  <note>
    six
  </note>
  <outline>
    <contour>
      <point x="339" y="-14"/>
      <point x="442" y="137"/>
      <point x="442" y="273" type="curve" smooth="yes"/>
      <point x="442" y="369"/>
      <point x="406" y="429"/>
      <point x="325" y="429" type="curve" smooth="yes"/>
      <point x="304" y="429"/>
      <point x="290" y="428"/>
      <point x="264" y="418" type="curve" smooth="yes"/>
      <point x="256" y="415"/>
      <point x="258" y="420"/>
      <point x="261" y="423" type="curve" smooth="yes"/>
      <point x="328" y="513"/>
      <point x="420" y="588"/>
      <point x="530" y="626" type="curve" smooth="yes"/>
      <point x="557" y="635"/>
      <point x="579" y="637"/>
      <point x="579" y="653" type="curve" smooth="yes"/>
      <point x="579" y="664"/>
      <point x="553" y="664"/>
      <point x="527" y="662" type="curve" smooth="yes"/>
      <point x="284" y="639"/>
      <point x="13" y="388"/>
      <point x="14" y="160" type="curve" smooth="yes"/>
      <point x="14" y="54"/>
      <point x="64" y="-14"/>
      <point x="181" y="-14" type="curve" smooth="yes"/>
    </contour>
    <contour>
      <point x="162" y="28"/>
      <point x="146" y="42"/>
      <point x="146" y="78" type="curve" smooth="yes"/>
      <point x="146" y="191"/>
      <point x="192" y="381"/>
      <point x="276" y="381" type="curve" smooth="yes"/>
      <point x="300" y="381"/>
      <point x="309" y="356"/>
      <point x="309" y="320" type="curve" smooth="yes"/>
      <point x="310" y="197"/>
      <point x="243" y="28"/>
      <point x="175" y="28" type="curve" smooth="yes"/>
    </contour>
  </outline>
</glyph>
<glyph name="seven" format="1">
  <advance width="522"/>
  <unicode hex="0037"/>
  <note>
    seven
  </note>
  <outline>
    <contour>
      <point x="14" y="-193"/>
      <point x="34" y="-173"/>
      <point x="46" y="-160" type="curve" smooth="yes"/>
      <point x="493" y="347" type="line" smooth="yes"/>
      <point x="525" y="383"/>
      <point x="562" y="424"/>
      <point x="563" y="426" type="curve" smooth="yes"/>
      <point x="565" y="431"/>
      <point x="561" y="435"/>
      <point x="558" y="435" type="curve" smooth="yes"/>
      <point x="552" y="435"/>
      <point x="465" y="432"/>
      <point x="397" y="432" type="curve" smooth="yes"/>
      <point x="358" y="432"/>
      <point x="297" y="433"/>
      <point x="243" y="434" type="curve" smooth="yes"/>
      <point x="201" y="436"/>
      <point x="164" y="439"/>
      <point x="146" y="440" type="curve" smooth="yes"/>
      <point x="138" y="441"/>
      <point x="121" y="438"/>
      <point x="116" y="422" type="curve" smooth="yes"/>
      <point x="104" y="382"/>
      <point x="66" y="323"/>
      <point x="42" y="275" type="curve" smooth="yes"/>
      <point x="37" y="267"/>
      <point x="32" y="255"/>
      <point x="28" y="244" type="curve" smooth="yes"/>
      <point x="25" y="234"/>
      <point x="32" y="227"/>
      <point x="41" y="227" type="curve" smooth="yes"/>
      <point x="63" y="227"/>
      <point x="86" y="251"/>
      <point x="98" y="262" type="curve" smooth="yes"/>
      <point x="126" y="289"/>
      <point x="143" y="298"/>
      <point x="178" y="298" type="curve" smooth="yes"/>
      <point x="235" y="298"/>
      <point x="304" y="298"/>
      <point x="361" y="298" type="curve" smooth="yes"/>
      <point x="370" y="298"/>
      <point x="378" y="295"/>
      <point x="368" y="284" type="curve" smooth="yes"/>
      <point x="21" y="-115" type="line" smooth="yes"/>
      <point x="5" y="-133"/>
      <point x="-16" y="-156"/>
      <point x="-18" y="-164" type="curve" smooth="yes"/>
      <point x="-24" y="-183"/>
      <point x="-11" y="-193"/>
      <point x="7" y="-193" type="curve" smooth="yes"/>
    </contour>
  </outline>
</glyph>
<glyph name="eight" format="1">
  <advance width="467"/>
  <unicode hex="0038"/>
  <note>
    eight
  </note>
  <outline>
    <contour>
      <point x="278" y="-13"/>
      <point x="396" y="84"/>
      <point x="396" y="159" type="curve" smooth="yes"/>
      <point x="396" y="202"/>
      <point x="379" y="237"/>
      <point x="342" y="295" type="curve" smooth="yes"/>
      <point x="335" y="306"/>
      <point x="331" y="308"/>
      <point x="347" y="317" type="curve" smooth="yes"/>
      <point x="426" y="362"/>
      <point x="509" y="408"/>
      <point x="504" y="482" type="curve" smooth="yes"/>
      <point x="499" y="548"/>
      <point x="436" y="589"/>
      <point x="351" y="589" type="curve" smooth="yes"/>
      <point x="217" y="589"/>
      <point x="130" y="488"/>
      <point x="130" y="426" type="curve" smooth="yes"/>
      <point x="130" y="385"/>
      <point x="144" y="354"/>
      <point x="183" y="295" type="curve" smooth="yes"/>
      <point x="189" y="286"/>
      <point x="191" y="283"/>
      <point x="183" y="278" type="curve" smooth="yes"/>
      <point x="106" y="230"/>
      <point x="13" y="198"/>
      <point x="13" y="103" type="curve" smooth="yes"/>
      <point x="13" y="37"/>
      <point x="80" y="-13"/>
      <point x="181" y="-13" type="curve" smooth="yes"/>
    </contour>
    <contour>
      <point x="159" y="18"/>
      <point x="129" y="69"/>
      <point x="129" y="116" type="curve" smooth="yes"/>
      <point x="129" y="162"/>
      <point x="147" y="214"/>
      <point x="191" y="242" type="curve" smooth="yes"/>
      <point x="205" y="251"/>
      <point x="210" y="252"/>
      <point x="217" y="240" type="curve" smooth="yes"/>
      <point x="253" y="178"/>
      <point x="274" y="136"/>
      <point x="274" y="91" type="curve" smooth="yes"/>
      <point x="274" y="53"/>
      <point x="249" y="21"/>
      <point x="215" y="20" type="curve" smooth="yes"/>
    </contour>
    <contour>
      <point x="320" y="341"/>
      <point x="313" y="339"/>
      <point x="307" y="349" type="curve" smooth="yes"/>
      <point x="282" y="390"/>
      <point x="251" y="437"/>
      <point x="251" y="474" type="curve" smooth="yes"/>
      <point x="251" y="529"/>
      <point x="273" y="555"/>
      <point x="321" y="555" type="curve" smooth="yes"/>
      <point x="369" y="555"/>
      <point x="392" y="513"/>
      <point x="392" y="470" type="curve" smooth="yes"/>
      <point x="392" y="412"/>
      <point x="355" y="376"/>
      <point x="325" y="346" type="curve" smooth="yes"/>
    </contour>
  </outline>
</glyph>
<glyph name="nine" format="1">
  <advance width="463"/>
  <unicode hex="0039"/>
  <note>
    nine
  </note>
  <outline>
    <contour>
      <point x="179" y="-220"/>
      <point x="449" y="35"/>
      <point x="449" y="263" type="curve" smooth="yes"/>
      <point x="449" y="357"/>
      <point x="394" y="437"/>
      <point x="297" y="437" type="curve" smooth="yes"/>
      <point x="135" y="437"/>
      <point x="21" y="284"/>
      <point x="21" y="150" type="curve" smooth="yes"/>
      <point x="21" y="54"/>
      <point x="57" y="-6"/>
      <point x="138" y="-6" type="curve" smooth="yes"/>
      <point x="159" y="-6"/>
      <point x="173" y="-5"/>
      <point x="199" y="5" type="curve" smooth="yes"/>
      <point x="207" y="8"/>
      <point x="205" y="3"/>
      <point x="202" y="0" type="curve" smooth="yes"/>
      <point x="123" y="-79"/>
      <point x="43" y="-166"/>
      <point x="-67" y="-203" type="curve" smooth="yes"/>
      <point x="-94" y="-212"/>
      <point x="-116" y="-214"/>
      <point x="-116" y="-230" type="curve" smooth="yes"/>
      <point x="-116" y="-241"/>
      <point x="-90" y="-241"/>
      <point x="-64" y="-239" type="curve" smooth="yes"/>
    </contour>
    <contour>
      <point x="163" y="42"/>
      <point x="154" y="67"/>
      <point x="154" y="103" type="curve" smooth="yes"/>
      <point x="154" y="226"/>
      <point x="220" y="395"/>
      <point x="288" y="395" type="curve" smooth="yes"/>
      <point x="301" y="395"/>
      <point x="317" y="381"/>
      <point x="317" y="345" type="curve" smooth="yes"/>
      <point x="317" y="232"/>
      <point x="271" y="42"/>
      <point x="187" y="42" type="curve" smooth="yes"/>
    </contour>
  </outline>
</glyph>
<glyph name="greater" format="1">
  <advance width="563"/>
  <unicode hex="003E"/>
  <note>
    greater
  </note>
  <outline>
    <contour>
      <point x="530" y="197" type="line"/>
      <point x="556" y="209"/>
      <point x="572" y="240"/>
      <point x="572" y="250" type="curve" smooth="yes"/>
      <point x="572" y="257"/>
      <point x="542" y="273"/>
      <point x="520" y="282" type="curve"/>
      <point x="103" y="474" type="line" smooth="yes"/>
      <point x="101" y="475"/>
      <point x="98" y="476"/>
      <point x="96" y="476" type="curve" smooth="yes"/>
      <point x="83" y="476"/>
      <point x="79" y="464"/>
      <point x="79" y="452" type="curve" smooth="yes"/>
      <point x="79" y="432"/>
      <point x="94" y="412"/>
      <point x="116" y="402" type="curve" smooth="yes"/>
      <point x="469" y="244" type="line" smooth="yes"/>
      <point x="474" y="242"/>
      <point x="476" y="237"/>
      <point x="469" y="234" type="curve" smooth="yes"/>
      <point x="116" y="77" type="line" smooth="yes"/>
      <point x="94" y="67"/>
      <point x="79" y="47"/>
      <point x="79" y="27" type="curve" smooth="yes"/>
      <point x="79" y="6"/>
      <point x="92" y="-1"/>
      <point x="103" y="5" type="curve"/>
    </contour>
  </outline>
</glyph>
<glyph name="question" format="1">
  <advance width="404"/>
  <unicode hex="003F"/>
  <note>
    question
  </note>
  <outline>
    <contour>
      <point x="180" y="177"/>
      <point x="192" y="179"/>
      <point x="192" y="189" type="curve" smooth="yes"/>
      <point x="192" y="197"/>
      <point x="187" y="206"/>
      <point x="185" y="216" type="curve" smooth="yes"/>
      <point x="183" y="225"/>
      <point x="182" y="234"/>
      <point x="182" y="245" type="curve" smooth="yes"/>
      <point x="182" y="267"/>
      <point x="191" y="279"/>
      <point x="227" y="293" type="curve" smooth="yes"/>
      <point x="321" y="330" type="line" smooth="yes"/>
      <point x="382" y="354"/>
      <point x="430" y="414"/>
      <point x="430" y="467" type="curve" smooth="yes"/>
      <point x="430" y="586"/>
      <point x="352" y="661"/>
      <point x="271" y="661" type="curve" smooth="yes"/>
      <point x="218" y="661"/>
      <point x="174" y="634"/>
      <point x="174" y="588" type="curve" smooth="yes"/>
      <point x="173" y="560"/>
      <point x="192" y="543"/>
      <point x="216" y="543" type="curve" smooth="yes"/>
      <point x="230" y="543"/>
      <point x="247" y="553"/>
      <point x="258" y="558" type="curve" smooth="yes"/>
      <point x="275" y="566"/>
      <point x="295" y="580"/>
      <point x="314" y="580" type="curve" smooth="yes"/>
      <point x="366" y="580"/>
      <point x="386" y="555"/>
      <point x="386" y="521" type="curve" smooth="yes"/>
      <point x="386" y="479"/>
      <point x="344" y="450"/>
      <point x="270" y="429" type="curve" smooth="yes"/>
      <point x="129" y="386"/>
      <point x="109" y="330"/>
      <point x="109" y="261" type="curve" smooth="yes"/>
      <point x="109" y="217"/>
      <point x="153" y="177"/>
      <point x="168" y="177" type="curve" smooth="yes"/>
    </contour>
    <contour>
      <point x="180" y="-14"/>
      <point x="223" y="27"/>
      <point x="223" y="72" type="curve" smooth="yes"/>
      <point x="223" y="102"/>
      <point x="202" y="136"/>
      <point x="161" y="136" type="curve" smooth="yes"/>
      <point x="114" y="136"/>
      <point x="72" y="93"/>
      <point x="72" y="45" type="curve" smooth="yes"/>
      <point x="72" y="14"/>
      <point x="98" y="-14"/>
      <point x="130" y="-14" type="curve" smooth="yes"/>
    </contour>
  </outline>
</glyph>
<glyph name="at" format="1">
  <advance width="800"/>
  <unicode hex="0040"/>
  <note>
    at
  </note>
  <outline>
    <contour>
      <point x="464" y="-158"/>
      <point x="625" y="-62"/>
      <point x="625" y="-29" type="curve" smooth="yes"/>
      <point x="625" y="-18"/>
      <point x="617" y="-12"/>
      <point x="610" y="-12" type="curve" smooth="yes"/>
      <point x="598" y="-12"/>
      <point x="582" y="-21"/>
      <point x="564" y="-31" type="curve" smooth="yes"/>
      <point x="497" y="-69"/>
      <point x="411" y="-96"/>
      <point x="318" y="-96" type="curve" smooth="yes"/>
      <point x="180" y="-96"/>
      <point x="88" y="-9"/>
      <point x="88" y="114" type="curve" smooth="yes"/>
      <point x="88" y="309"/>
      <point x="301" y="481"/>
      <point x="509" y="481" type="curve" smooth="yes"/>
      <point x="639" y="481"/>
      <point x="712" y="416"/>
      <point x="712" y="312" type="curve" smooth="yes"/>
      <point x="712" y="195"/>
      <point x="636" y="94"/>
      <point x="542" y="94" type="curve" smooth="yes"/>
      <point x="508" y="94"/>
      <point x="513" y="120"/>
      <point x="525" y="146" type="curve" smooth="yes"/>
      <point x="594" y="285" type="line" smooth="yes"/>
      <point x="604" y="306"/>
      <point x="631" y="355"/>
      <point x="653" y="386" type="curve"/>
      <point x="655" y="394"/>
      <point x="613" y="398"/>
      <point x="608" y="398" type="curve" smooth="yes"/>
      <point x="595" y="398"/>
      <point x="583" y="373"/>
      <point x="570" y="374" type="curve" smooth="yes"/>
      <point x="563" y="375"/>
      <point x="550" y="380"/>
      <point x="535" y="383" type="curve" smooth="yes"/>
      <point x="519" y="387"/>
      <point x="503" y="389"/>
      <point x="487" y="390" type="curve" smooth="yes"/>
      <point x="323" y="398"/>
      <point x="166" y="269"/>
      <point x="166" y="123" type="curve" smooth="yes"/>
      <point x="166" y="62"/>
      <point x="210" y="17"/>
      <point x="281" y="17" type="curve" smooth="yes"/>
      <point x="345" y="17"/>
      <point x="401" y="53"/>
      <point x="423" y="71" type="curve" smooth="yes"/>
      <point x="433" y="79"/>
      <point x="441" y="88"/>
      <point x="441" y="67" type="curve" smooth="yes"/>
      <point x="441" y="52"/>
      <point x="453" y="22"/>
      <point x="499" y="22" type="curve" smooth="yes"/>
      <point x="643" y="22"/>
      <point x="792" y="166"/>
      <point x="792" y="320" type="curve" smooth="yes"/>
      <point x="792" y="449"/>
      <point x="676" y="543"/>
      <point x="529" y="543" type="curve" smooth="yes"/>
      <point x="264" y="543"/>
      <point x="8" y="340"/>
      <point x="8" y="86" type="curve" smooth="yes"/>
      <point x="8" y="-62"/>
      <point x="130" y="-158"/>
      <point x="294" y="-158" type="curve" smooth="yes"/>
    </contour>
    <contour>
      <point x="305" y="75"/>
      <point x="277" y="101"/>
      <point x="277" y="144" type="curve" smooth="yes"/>
      <point x="277" y="230"/>
      <point x="351" y="345"/>
      <point x="439" y="345" type="curve" smooth="yes"/>
      <point x="485" y="345"/>
      <point x="505" y="330"/>
      <point x="504" y="301" type="curve" smooth="yes"/>
      <point x="504" y="291"/>
      <point x="500" y="278"/>
      <point x="493" y="264" type="curve" smooth="yes"/>
      <point x="440" y="157" type="line" smooth="yes"/>
      <point x="425" y="127"/>
      <point x="413" y="116"/>
      <point x="400" y="105" type="curve" smooth="yes"/>
      <point x="381" y="88"/>
      <point x="355" y="75"/>
      <point x="333" y="75" type="curve" smooth="yes"/>
    </contour>
  </outline>
</glyph>
<glyph name="A" format="1">
  <advance width="766"/>
  <unicode hex="0041"/>
  <note>
    A
  </note>
  <outline>
    <contour>
      <point x="-3" y="-5"/>
      <point x="52" y="1"/>
      <point x="91" y="1" type="curve" smooth="yes"/>
      <point x="131" y="1"/>
      <point x="171" y="-2"/>
      <point x="215" y="-2" type="curve" smooth="yes"/>
      <point x="229" y="-2"/>
      <point x="246" y="3"/>
      <point x="247" y="12" type="curve" smooth="yes"/>
      <point x="248" y="24"/>
      <point x="234" y="31"/>
      <point x="222" y="34" type="curve" smooth="yes"/>
      <point x="165" y="48"/>
      <point x="153" y="76"/>
      <point x="204" y="140" type="curve" smooth="yes"/>
      <point x="266" y="219" type="line" smooth="yes"/>
      <point x="272" y="227"/>
      <point x="281" y="236"/>
      <point x="292" y="236" type="curve" smooth="yes"/>
      <point x="453" y="236" type="line" smooth="yes"/>
      <point x="463" y="236"/>
      <point x="469" y="230"/>
      <point x="466" y="219" type="curve" smooth="yes"/>
      <point x="436" y="97" type="line" smooth="yes"/>
      <point x="427" y="59"/>
      <point x="401" y="44"/>
      <point x="356" y="34" type="curve" smooth="yes"/>
      <point x="343" y="31"/>
      <point x="330" y="24"/>
      <point x="329" y="12" type="curve" smooth="yes"/>
      <point x="328" y="3"/>
      <point x="336" y="-3"/>
      <point x="347" y="-3" type="curve" smooth="yes"/>
      <point x="391" y="-3"/>
      <point x="467" y="2"/>
      <point x="507" y="2" type="curve" smooth="yes"/>
      <point x="552" y="2"/>
      <point x="624" y="-2"/>
      <point x="666" y="-2" type="curve" smooth="yes"/>
      <point x="676" y="-2"/>
      <point x="697" y="3"/>
      <point x="697" y="13" type="curve" smooth="yes"/>
      <point x="697" y="27"/>
      <point x="686" y="30"/>
      <point x="671" y="34" type="curve" smooth="yes"/>
      <point x="620" y="48"/>
      <point x="600" y="70"/>
      <point x="608" y="112" type="curve" smooth="yes"/>
      <point x="706" y="606" type="line" smooth="yes"/>
      <point x="713" y="639"/>
      <point x="712" y="672"/>
      <point x="697" y="672" type="curve" smooth="yes"/>
      <point x="684" y="672"/>
      <point x="662" y="656"/>
      <point x="640" y="644" type="curve" smooth="yes"/>
      <point x="614" y="630"/>
      <point x="578" y="625"/>
      <point x="543" y="625" type="curve" smooth="yes"/>
      <point x="530" y="625"/>
      <point x="513" y="574"/>
      <point x="476" y="532" type="curve" smooth="yes"/>
      <point x="348" y="387"/>
      <point x="221" y="243"/>
      <point x="93" y="98" type="curve" smooth="yes"/>
      <point x="61" y="62"/>
      <point x="-4" y="42"/>
      <point x="-40" y="34" type="curve" smooth="yes"/>
      <point x="-53" y="31"/>
      <point x="-64" y="25"/>
      <point x="-67" y="12" type="curve" smooth="yes"/>
      <point x="-70" y="-1"/>
      <point x="-60" y="-5"/>
      <point x="-45" y="-5" type="curve" smooth="yes"/>
    </contour>
    <contour>
      <point x="321" y="284"/>
      <point x="320" y="288"/>
      <point x="332" y="302" type="curve" smooth="yes"/>
      <point x="516" y="523" type="line" smooth="yes"/>
      <point x="520" y="527"/>
      <point x="526" y="530"/>
      <point x="528" y="530" type="curve" smooth="yes"/>
      <point x="533" y="530"/>
      <point x="531" y="522"/>
      <point x="529" y="514" type="curve" smooth="yes"/>
      <point x="482" y="295" type="line" smooth="yes"/>
      <point x="480" y="286"/>
      <point x="476" y="284"/>
      <point x="465" y="284" type="curve" smooth="yes"/>
      <point x="342" y="284" type="line" smooth="yes"/>
    </contour>
    <contour>
      <point x="654" y="675" type="move" name="top.cap"/>
    </contour>
    <contour>
      <point x="248" y="-30" type="move" name="bottom.cap"/>
    </contour>
  </outline>
</glyph>
<glyph name="B" format="1">
  <advance width="639"/>
  <unicode hex="0042"/>
  <note>
    B
  </note>
  <outline>
    <contour>
      <point x="7" y="-5"/>
      <point x="72" y="0"/>
      <point x="113" y="0" type="curve" smooth="yes"/>
      <point x="165" y="0"/>
      <point x="208" y="-4"/>
      <point x="259" y="-4" type="curve" smooth="yes"/>
      <point x="442" y="-4"/>
      <point x="598" y="46"/>
      <point x="598" y="200" type="curve" smooth="yes"/>
      <point x="598" y="291"/>
      <point x="531" y="337"/>
      <point x="470" y="355" type="curve" smooth="yes"/>
      <point x="464" y="357"/>
      <point x="468" y="364"/>
      <point x="473" y="365" type="curve" smooth="yes"/>
      <point x="570" y="380"/>
      <point x="654" y="440"/>
      <point x="654" y="518" type="curve" smooth="yes"/>
      <point x="654" y="608"/>
      <point x="586" y="654"/>
      <point x="460" y="654" type="curve" smooth="yes"/>
      <point x="387" y="654"/>
      <point x="360" y="647"/>
      <point x="312" y="647" type="curve" smooth="yes"/>
      <point x="260" y="647"/>
      <point x="237" y="655"/>
      <point x="172" y="655" type="curve" smooth="yes"/>
      <point x="158" y="655"/>
      <point x="146" y="645"/>
      <point x="146" y="633" type="curve" smooth="yes"/>
      <point x="146" y="627"/>
      <point x="150" y="621"/>
      <point x="161" y="618" type="curve" smooth="yes"/>
      <point x="200" y="607"/>
      <point x="216" y="595"/>
      <point x="201" y="551" type="curve" smooth="yes"/>
      <point x="59" y="95" type="line" smooth="yes"/>
      <point x="46" y="54"/>
      <point x="28" y="46"/>
      <point x="-20" y="32" type="curve" smooth="yes"/>
      <point x="-36" y="27"/>
      <point x="-48" y="16"/>
      <point x="-48" y="7" type="curve" smooth="yes"/>
      <point x="-48" y="0"/>
      <point x="-42" y="-5"/>
      <point x="-32" y="-5" type="curve" smooth="yes"/>
    </contour>
    <contour>
      <point x="250" y="37"/>
      <point x="237" y="43"/>
      <point x="231" y="54" type="curve" smooth="yes"/>
      <point x="225" y="65"/>
      <point x="227" y="85"/>
      <point x="231" y="99" type="curve" smooth="yes"/>
      <point x="295" y="304" type="line" smooth="yes"/>
      <point x="301" y="323"/>
      <point x="314" y="328"/>
      <point x="346" y="328" type="curve" smooth="yes"/>
      <point x="398" y="328"/>
      <point x="427" y="283"/>
      <point x="427" y="230" type="curve" smooth="yes"/>
      <point x="427" y="145"/>
      <point x="354" y="37"/>
      <point x="269" y="37" type="curve" smooth="yes"/>
    </contour>
    <contour>
      <point x="326" y="362"/>
      <point x="316" y="370"/>
      <point x="322" y="390" type="curve" smooth="yes"/>
      <point x="385" y="601" type="line" smooth="yes"/>
      <point x="389" y="614"/>
      <point x="398" y="619"/>
      <point x="442" y="619" type="curve" smooth="yes"/>
      <point x="482" y="619"/>
      <point x="507" y="583"/>
      <point x="507" y="539" type="curve" smooth="yes"/>
      <point x="507" y="443"/>
      <point x="442" y="362"/>
      <point x="352" y="362" type="curve" smooth="yes"/>
    </contour>
    <contour>
      <point x="253" y="-30" type="move" name="bottom.cap"/>
    </contour>
  </outline>
</glyph>
<glyph name="C" format="1">
  <advance width="653"/>
  <unicode hex="0043"/>
  <note>
    C
  </note>
  <outline>
    <contour>
      <point x="557" y="609"/>
      <point x="618" y="568"/>
      <point x="618" y="481" type="curve" smooth="yes"/>
      <point x="618" y="450"/>
      <point x="623" y="437"/>
      <point x="637" y="437" type="curve" smooth="yes"/>
      <point x="651" y="437"/>
      <point x="657" y="446"/>
      <point x="661" y="460" type="curve" smooth="yes"/>
      <point x="676" y="511"/>
      <point x="709" y="590"/>
      <point x="735" y="624" type="curve" smooth="yes"/>
      <point x="744" y="636"/>
      <point x="741" y="648"/>
      <point x="727" y="648" type="curve" smooth="yes"/>
      <point x="717" y="648"/>
      <point x="707" y="643"/>
      <point x="697" y="637" type="curve" smooth="yes"/>
      <point x="688" y="632"/>
      <point x="680" y="631"/>
      <point x="671" y="631" type="curve" smooth="yes"/>
      <point x="655" y="631"/>
      <point x="643" y="636"/>
      <point x="618" y="644" type="curve" smooth="yes"/>
      <point x="591" y="653"/>
      <point x="556" y="664"/>
      <point x="509" y="664" type="curve" smooth="yes"/>
      <point x="282" y="664"/>
      <point x="125" y="543"/>
      <point x="68" y="351" type="curve" smooth="yes"/>
      <point x="10" y="155"/>
      <point x="132" y="-14"/>
      <point x="310" y="-14" type="curve" smooth="yes"/>
      <point x="349" y="-14"/>
      <point x="380" y="-7"/>
      <point x="404" y="-1" type="curve" smooth="yes"/>
      <point x="427" y="5"/>
      <point x="445" y="11"/>
      <point x="461" y="11" type="curve" smooth="yes"/>
      <point x="482" y="11"/>
      <point x="492" y="7"/>
      <point x="500" y="2" type="curve" smooth="yes"/>
      <point x="508" y="-3"/>
      <point x="513" y="-9"/>
      <point x="526" y="-9" type="curve" smooth="yes"/>
      <point x="545" y="-9"/>
      <point x="588" y="103"/>
      <point x="604" y="172" type="curve" smooth="yes"/>
      <point x="608" y="187"/>
      <point x="599" y="199"/>
      <point x="588" y="199" type="curve" smooth="yes"/>
      <point x="578" y="199"/>
      <point x="571" y="188"/>
      <point x="562" y="172" type="curve" smooth="yes"/>
      <point x="506" y="79"/>
      <point x="427" y="31"/>
      <point x="347" y="31" type="curve" smooth="yes"/>
      <point x="224" y="31"/>
      <point x="173" y="130"/>
      <point x="232" y="344" type="curve" smooth="yes"/>
      <point x="283" y="532"/>
      <point x="408" y="609"/>
      <point x="505" y="609" type="curve" smooth="yes"/>
    </contour>
    <contour>
      <point x="533" y="675" type="move" name="top.cap"/>
    </contour>
  </outline>
</glyph>
<glyph name="D" format="1">
  <advance width="761"/>
  <unicode hex="0044"/>
  <note>
    D
  </note>
  <outline>
    <contour>
      <point x="563" y="-7"/>
      <point x="772" y="176"/>
      <point x="772" y="371" type="curve" smooth="yes"/>
      <point x="772" y="515"/>
      <point x="665" y="654"/>
      <point x="454" y="654" type="curve" smooth="yes"/>
      <point x="384" y="654"/>
      <point x="343" y="650"/>
      <point x="304" y="650" type="curve" smooth="yes"/>
      <point x="264" y="650"/>
      <point x="200" y="655"/>
      <point x="156" y="655" type="curve" smooth="yes"/>
      <point x="148" y="655"/>
      <point x="136" y="649"/>
      <point x="133" y="640" type="curve" smooth="yes"/>
      <point x="129" y="628"/>
      <point x="134" y="621"/>
      <point x="145" y="618" type="curve" smooth="yes"/>
      <point x="193" y="605"/>
      <point x="203" y="596"/>
      <point x="191" y="551" type="curve" smooth="yes"/>
      <point x="50" y="97" type="line" smooth="yes"/>
      <point x="37" y="56"/>
      <point x="19" y="46"/>
      <point x="-35" y="34" type="curve" smooth="yes"/>
      <point x="-48" y="31"/>
      <point x="-57" y="24"/>
      <point x="-61" y="12" type="curve" smooth="yes"/>
      <point x="-64" y="3"/>
      <point x="-56" y="-3"/>
      <point x="-48" y="-3" type="curve" smooth="yes"/>
      <point x="-4" y="-3"/>
      <point x="66" y="4"/>
      <point x="106" y="4" type="curve" smooth="yes"/>
      <point x="132" y="4"/>
      <point x="223" y="-7"/>
      <point x="303" y="-7" type="curve" smooth="yes"/>
    </contour>
    <contour>
      <point x="228" y="33"/>
      <point x="210" y="53"/>
      <point x="230" y="119" type="curve" smooth="yes"/>
      <point x="365" y="563" type="line" smooth="yes"/>
      <point x="377" y="601"/>
      <point x="402" y="615"/>
      <point x="449" y="615" type="curve" smooth="yes"/>
      <point x="535" y="615"/>
      <point x="598" y="541"/>
      <point x="598" y="415" type="curve" smooth="yes"/>
      <point x="598" y="250"/>
      <point x="475" y="33"/>
      <point x="302" y="33" type="curve" smooth="yes"/>
    </contour>
    <contour>
      <point x="454" y="675" type="move" name="top.cap"/>
    </contour>
    <contour>
      <point x="290" y="-30" type="move" name="bottom.cap"/>
    </contour>
  </outline>
</glyph>
<glyph name="E" format="1">
  <advance width="597"/>
  <unicode hex="0045"/>
  <note>
    E
  </note>
  <outline>
    <contour>
      <point x="7" y="-5"/>
      <point x="73" y="0"/>
      <point x="113" y="0" type="curve" smooth="yes"/>
      <point x="234" y="0"/>
      <point x="458" y="-4"/>
      <point x="471" y="-4" type="curve" smooth="yes"/>
      <point x="481" y="-4"/>
      <point x="492" y="-1"/>
      <point x="499" y="8" type="curve" smooth="yes"/>
      <point x="529" y="46"/>
      <point x="569" y="123"/>
      <point x="569" y="160" type="curve" smooth="yes"/>
      <point x="569" y="169"/>
      <point x="567" y="175"/>
      <point x="559" y="175" type="curve" smooth="yes"/>
      <point x="551" y="175"/>
      <point x="544" y="173"/>
      <point x="536" y="163" type="curve" smooth="yes"/>
      <point x="512" y="133"/>
      <point x="488" y="101"/>
      <point x="459" y="82" type="curve" smooth="yes"/>
      <point x="435" y="66"/>
      <point x="405" y="59"/>
      <point x="379" y="59" type="curve" smooth="yes"/>
      <point x="268" y="59" type="line" smooth="yes"/>
      <point x="231" y="59"/>
      <point x="221" y="67"/>
      <point x="234" y="110" type="curve" smooth="yes"/>
      <point x="289" y="287" type="line" smooth="yes"/>
      <point x="293" y="301"/>
      <point x="303" y="310"/>
      <point x="318" y="310" type="curve" smooth="yes"/>
      <point x="427" y="310" type="line" smooth="yes"/>
      <point x="452" y="310"/>
      <point x="460" y="285"/>
      <point x="457" y="242" type="curve" smooth="yes"/>
      <point x="456" y="228"/>
      <point x="464" y="218"/>
      <point x="474" y="218" type="curve" smooth="yes"/>
      <point x="481" y="218"/>
      <point x="488" y="226"/>
      <point x="493" y="246" type="curve" smooth="yes"/>
      <point x="500" y="276"/>
      <point x="506" y="302"/>
      <point x="514" y="329" type="curve" smooth="yes"/>
      <point x="522" y="356"/>
      <point x="533" y="383"/>
      <point x="545" y="412" type="curve" smooth="yes"/>
      <point x="551" y="427"/>
      <point x="546" y="435"/>
      <point x="540" y="435" type="curve" smooth="yes"/>
      <point x="532" y="435"/>
      <point x="520" y="429"/>
      <point x="513" y="417" type="curve" smooth="yes"/>
      <point x="491" y="380"/>
      <point x="468" y="357"/>
      <point x="433" y="357" type="curve" smooth="yes"/>
      <point x="337" y="357" type="line" smooth="yes"/>
      <point x="321" y="357"/>
      <point x="314" y="363"/>
      <point x="319" y="381" type="curve" smooth="yes"/>
      <point x="369" y="546" type="line" smooth="yes"/>
      <point x="378" y="575"/>
      <point x="408" y="592"/>
      <point x="441" y="592" type="curve" smooth="yes"/>
      <point x="523" y="592" type="line" smooth="yes"/>
      <point x="579" y="592"/>
      <point x="586" y="574"/>
      <point x="586" y="495" type="curve" smooth="yes"/>
      <point x="586" y="483"/>
      <point x="594" y="478"/>
      <point x="601" y="478" type="curve" smooth="yes"/>
      <point x="608" y="478"/>
      <point x="621" y="485"/>
      <point x="621" y="498" type="curve" smooth="yes"/>
      <point x="621" y="539"/>
      <point x="645" y="615"/>
      <point x="645" y="631" type="curve" smooth="yes"/>
      <point x="645" y="645"/>
      <point x="631" y="654"/>
      <point x="621" y="654" type="curve" smooth="yes"/>
      <point x="617" y="654"/>
      <point x="578" y="651"/>
      <point x="526" y="651" type="curve" smooth="yes"/>
      <point x="315" y="650" type="line" smooth="yes"/>
      <point x="275" y="650"/>
      <point x="216" y="655"/>
      <point x="189" y="655" type="curve" smooth="yes"/>
      <point x="160" y="655"/>
      <point x="148" y="648"/>
      <point x="145" y="639" type="curve" smooth="yes"/>
      <point x="142" y="631"/>
      <point x="147" y="622"/>
      <point x="162" y="618" type="curve" smooth="yes"/>
      <point x="205" y="607"/>
      <point x="214" y="594"/>
      <point x="201" y="551" type="curve" smooth="yes"/>
      <point x="60" y="95" type="line" smooth="yes"/>
      <point x="47" y="54"/>
      <point x="28" y="46"/>
      <point x="-20" y="32" type="curve" smooth="yes"/>
      <point x="-34" y="28"/>
      <point x="-44" y="19"/>
      <point x="-46" y="11" type="curve" smooth="yes"/>
      <point x="-48" y="3"/>
      <point x="-44" y="-5"/>
      <point x="-32" y="-5" type="curve" smooth="yes"/>
    </contour>
    <contour>
      <point x="412" y="675" type="move" name="top.cap"/>
    </contour>
  </outline>
</glyph>
<glyph name="F" format="1">
  <advance width="541"/>
  <unicode hex="0046"/>
  <note>
    F
  </note>
  <outline>
    <contour>
      <point x="10" y="-3"/>
      <point x="78" y="2"/>
      <point x="118" y="2" type="curve" smooth="yes"/>
      <point x="157" y="2"/>
      <point x="252" y="-2"/>
      <point x="294" y="-2" type="curve" smooth="yes"/>
      <point x="304" y="-2"/>
      <point x="312" y="3"/>
      <point x="315" y="13" type="curve" smooth="yes"/>
      <point x="319" y="26"/>
      <point x="314" y="33"/>
      <point x="303" y="34" type="curve" smooth="yes"/>
      <point x="237" y="40"/>
      <point x="221" y="56"/>
      <point x="234" y="98" type="curve" smooth="yes"/>
      <point x="290" y="283" type="line"/>
      <point x="294" y="297"/>
      <point x="304" y="306"/>
      <point x="319" y="306" type="curve" smooth="yes"/>
      <point x="335" y="306"/>
      <point x="396" y="306"/>
      <point x="413" y="306" type="curve" smooth="yes"/>
      <point x="438" y="306"/>
      <point x="448" y="294"/>
      <point x="448" y="253" type="curve" smooth="yes"/>
      <point x="448" y="239"/>
      <point x="454" y="229"/>
      <point x="464" y="229" type="curve" smooth="yes"/>
      <point x="471" y="229"/>
      <point x="479" y="237"/>
      <point x="483" y="257" type="curve" smooth="yes"/>
      <point x="493" y="308"/>
      <point x="507" y="351"/>
      <point x="530" y="406" type="curve"/>
      <point x="535" y="421"/>
      <point x="531" y="429"/>
      <point x="525" y="429" type="curve" smooth="yes"/>
      <point x="517" y="429"/>
      <point x="507" y="423"/>
      <point x="498" y="411" type="curve" smooth="yes"/>
      <point x="473" y="378"/>
      <point x="452" y="357"/>
      <point x="423" y="357" type="curve" smooth="yes"/>
      <point x="340" y="357" type="line"/>
      <point x="324" y="357"/>
      <point x="316" y="363"/>
      <point x="322" y="381" type="curve" smooth="yes"/>
      <point x="330" y="406"/>
      <point x="369" y="534"/>
      <point x="377" y="560" type="curve" smooth="yes"/>
      <point x="386" y="589"/>
      <point x="415" y="607"/>
      <point x="448" y="606" type="curve" smooth="yes"/>
      <point x="498" y="605" type="line" smooth="yes"/>
      <point x="535" y="604"/>
      <point x="549" y="594"/>
      <point x="560" y="579" type="curve" smooth="yes"/>
      <point x="571" y="564"/>
      <point x="579" y="545"/>
      <point x="579" y="495" type="curve" smooth="yes"/>
      <point x="579" y="483"/>
      <point x="588" y="478"/>
      <point x="595" y="478" type="curve" smooth="yes"/>
      <point x="602" y="478"/>
      <point x="612" y="485"/>
      <point x="614" y="498" type="curve" smooth="yes"/>
      <point x="622" y="551"/>
      <point x="640" y="590"/>
      <point x="647" y="617" type="curve" smooth="yes"/>
      <point x="649" y="625"/>
      <point x="651" y="633"/>
      <point x="653" y="641" type="curve" smooth="yes"/>
      <point x="657" y="657"/>
      <point x="644" y="662"/>
      <point x="634" y="662" type="curve" smooth="yes"/>
      <point x="613" y="662"/>
      <point x="571" y="650"/>
      <point x="541" y="650" type="curve" smooth="yes"/>
      <point x="318" y="650" type="line" smooth="yes"/>
      <point x="278" y="650"/>
      <point x="220" y="655"/>
      <point x="183" y="655" type="curve" smooth="yes"/>
      <point x="164" y="655"/>
      <point x="154" y="648"/>
      <point x="151" y="639" type="curve" smooth="yes"/>
      <point x="148" y="631"/>
      <point x="151" y="622"/>
      <point x="171" y="617" type="curve" smooth="yes"/>
      <point x="209" y="607"/>
      <point x="218" y="594"/>
      <point x="205" y="551" type="curve" smooth="yes"/>
      <point x="64" y="97" type="line" smooth="yes"/>
      <point x="51" y="56"/>
      <point x="33" y="45"/>
      <point x="-21" y="34" type="curve" smooth="yes"/>
      <point x="-34" y="31"/>
      <point x="-43" y="24"/>
      <point x="-47" y="12" type="curve" smooth="yes"/>
      <point x="-50" y="3"/>
      <point x="-42" y="-3"/>
      <point x="-34" y="-3" type="curve" smooth="yes"/>
    </contour>
    <contour>
      <point x="449" y="675" type="move" name="top.cap"/>
    </contour>
    <contour>
      <point x="117" y="-30" type="move" name="bottom.cap"/>
    </contour>
  </outline>
</glyph>
<glyph name="G" format="1">
  <advance width="734"/>
  <unicode hex="0047"/>
  <note>
    G
  </note>
  <outline>
    <contour>
      <point x="417" y="-14"/>
      <point x="600" y="30"/>
      <point x="623" y="77" type="curve"/>
      <point x="609" y="91"/>
      <point x="601" y="102"/>
      <point x="601" y="117" type="curve" smooth="yes"/>
      <point x="601" y="131"/>
      <point x="625" y="190"/>
      <point x="641" y="221" type="curve" smooth="yes"/>
      <point x="655" y="248"/>
      <point x="668" y="260"/>
      <point x="711" y="270" type="curve" smooth="yes"/>
      <point x="724" y="273"/>
      <point x="732" y="278"/>
      <point x="736" y="291" type="curve" smooth="yes"/>
      <point x="739" y="301"/>
      <point x="735" y="306"/>
      <point x="725" y="306" type="curve" smooth="yes"/>
      <point x="661" y="306"/>
      <point x="623" y="297"/>
      <point x="584" y="297" type="curve" smooth="yes"/>
      <point x="544" y="297"/>
      <point x="468" y="307"/>
      <point x="424" y="307" type="curve" smooth="yes"/>
      <point x="413" y="307"/>
      <point x="401" y="301"/>
      <point x="398" y="292" type="curve" smooth="yes"/>
      <point x="394" y="280"/>
      <point x="405" y="272"/>
      <point x="416" y="269" type="curve" smooth="yes"/>
      <point x="432" y="265"/>
      <point x="461" y="259"/>
      <point x="478" y="251" type="curve" smooth="yes"/>
      <point x="496" y="243"/>
      <point x="497" y="229"/>
      <point x="493" y="215" type="curve" smooth="yes"/>
      <point x="459" y="103" type="line" smooth="yes"/>
      <point x="446" y="61"/>
      <point x="408" y="23"/>
      <point x="360" y="23" type="curve" smooth="yes"/>
      <point x="239" y="23"/>
      <point x="172" y="148"/>
      <point x="220" y="306" type="curve" smooth="yes"/>
      <point x="290" y="531"/>
      <point x="404" y="628"/>
      <point x="514" y="628" type="curve" smooth="yes"/>
      <point x="553" y="628"/>
      <point x="591" y="609"/>
      <point x="610" y="582" type="curve" smooth="yes"/>
      <point x="628" y="556"/>
      <point x="632" y="522"/>
      <point x="629" y="481" type="curve" smooth="yes"/>
      <point x="627" y="450"/>
      <point x="634" y="437"/>
      <point x="648" y="437" type="curve" smooth="yes"/>
      <point x="662" y="437"/>
      <point x="668" y="446"/>
      <point x="672" y="460" type="curve" smooth="yes"/>
      <point x="687" y="511"/>
      <point x="720" y="590"/>
      <point x="746" y="624" type="curve" smooth="yes"/>
      <point x="755" y="636"/>
      <point x="752" y="648"/>
      <point x="738" y="648" type="curve" smooth="yes"/>
      <point x="728" y="648"/>
      <point x="718" y="643"/>
      <point x="708" y="637" type="curve" smooth="yes"/>
      <point x="699" y="632"/>
      <point x="691" y="631"/>
      <point x="682" y="631" type="curve" smooth="yes"/>
      <point x="666" y="631"/>
      <point x="654" y="636"/>
      <point x="629" y="644" type="curve" smooth="yes"/>
      <point x="602" y="653"/>
      <point x="567" y="664"/>
      <point x="520" y="664" type="curve" smooth="yes"/>
      <point x="296" y="664"/>
      <point x="122" y="526"/>
      <point x="72" y="363" type="curve" smooth="yes"/>
      <point x="2" y="135"/>
      <point x="128" y="-14"/>
      <point x="328" y="-14" type="curve" smooth="yes"/>
    </contour>
    <contour>
      <point x="512" y="675" type="move" name="top.cap"/>
    </contour>
    <contour>
      <point x="307" y="-30" type="move" name="bottom.cap"/>
    </contour>
  </outline>
</glyph>
<glyph name="H" format="1">
  <advance width="800"/>
  <unicode hex="0048"/>
  <note>
    H
  </note>
  <outline>
    <contour>
      <point x="5" y="-3"/>
      <point x="73" y="2"/>
      <point x="113" y="2" type="curve" smooth="yes"/>
      <point x="152" y="2"/>
      <point x="224" y="-2"/>
      <point x="266" y="-2" type="curve" smooth="yes"/>
      <point x="276" y="-2"/>
      <point x="284" y="3"/>
      <point x="287" y="13" type="curve" smooth="yes"/>
      <point x="291" y="26"/>
      <point x="285" y="30"/>
      <point x="275" y="34" type="curve" smooth="yes"/>
      <point x="228" y="53"/>
      <point x="218" y="61"/>
      <point x="229" y="98" type="curve" smooth="yes"/>
      <point x="287" y="289" type="line" smooth="yes"/>
      <point x="290" y="299"/>
      <point x="298" y="306"/>
      <point x="309" y="306" type="curve" smooth="yes"/>
      <point x="550" y="306" type="line" smooth="yes"/>
      <point x="560" y="306"/>
      <point x="562" y="300"/>
      <point x="558" y="289" type="curve"/>
      <point x="500" y="98" type="line" smooth="yes"/>
      <point x="489" y="61"/>
      <point x="472" y="50"/>
      <point x="416" y="34" type="curve" smooth="yes"/>
      <point x="402" y="30"/>
      <point x="394" y="26"/>
      <point x="390" y="13" type="curve" smooth="yes"/>
      <point x="387" y="3"/>
      <point x="391" y="-2"/>
      <point x="401" y="-2" type="curve" smooth="yes"/>
      <point x="443" y="-2"/>
      <point x="519" y="2"/>
      <point x="558" y="2" type="curve" smooth="yes"/>
      <point x="598" y="2"/>
      <point x="662" y="-3"/>
      <point x="700" y="-3" type="curve" smooth="yes"/>
      <point x="708" y="-3"/>
      <point x="720" y="3"/>
      <point x="723" y="12" type="curve" smooth="yes"/>
      <point x="727" y="24"/>
      <point x="722" y="31"/>
      <point x="711" y="34" type="curve" smooth="yes"/>
      <point x="669" y="45"/>
      <point x="657" y="56"/>
      <point x="670" y="97" type="curve" smooth="yes"/>
      <point x="811" y="551" type="line" smooth="yes"/>
      <point x="824" y="594"/>
      <point x="841" y="606"/>
      <point x="891" y="618" type="curve" smooth="yes"/>
      <point x="904" y="621"/>
      <point x="913" y="628"/>
      <point x="917" y="640" type="curve" smooth="yes"/>
      <point x="920" y="649"/>
      <point x="912" y="655"/>
      <point x="904" y="655" type="curve" smooth="yes"/>
      <point x="860" y="655"/>
      <point x="798" y="650"/>
      <point x="758" y="650" type="curve" smooth="yes"/>
      <point x="719" y="650"/>
      <point x="647" y="654"/>
      <point x="605" y="654" type="curve" smooth="yes"/>
      <point x="595" y="654"/>
      <point x="587" y="649"/>
      <point x="584" y="639" type="curve" smooth="yes"/>
      <point x="580" y="626"/>
      <point x="586" y="622"/>
      <point x="596" y="618" type="curve" smooth="yes"/>
      <point x="645" y="598"/>
      <point x="652" y="590"/>
      <point x="640" y="550" type="curve" smooth="yes"/>
      <point x="585" y="369" type="line" smooth="yes"/>
      <point x="582" y="358"/>
      <point x="575" y="354"/>
      <point x="566" y="354" type="curve" smooth="yes"/>
      <point x="325" y="354" type="line" smooth="yes"/>
      <point x="315" y="354"/>
      <point x="311" y="358"/>
      <point x="314" y="369" type="curve" smooth="yes"/>
      <point x="369" y="550" type="line" smooth="yes"/>
      <point x="381" y="590"/>
      <point x="395" y="601"/>
      <point x="455" y="618" type="curve" smooth="yes"/>
      <point x="469" y="622"/>
      <point x="477" y="626"/>
      <point x="481" y="639" type="curve" smooth="yes"/>
      <point x="484" y="649"/>
      <point x="480" y="654"/>
      <point x="470" y="654" type="curve" smooth="yes"/>
      <point x="428" y="654"/>
      <point x="352" y="650"/>
      <point x="313" y="650" type="curve" smooth="yes"/>
      <point x="273" y="650"/>
      <point x="215" y="655"/>
      <point x="171" y="655" type="curve" smooth="yes"/>
      <point x="163" y="655"/>
      <point x="151" y="649"/>
      <point x="148" y="640" type="curve" smooth="yes"/>
      <point x="144" y="628"/>
      <point x="149" y="621"/>
      <point x="160" y="618" type="curve" smooth="yes"/>
      <point x="204" y="606"/>
      <point x="213" y="594"/>
      <point x="200" y="551" type="curve" smooth="yes"/>
      <point x="59" y="97" type="line" smooth="yes"/>
      <point x="46" y="56"/>
      <point x="28" y="45"/>
      <point x="-20" y="34" type="curve" smooth="yes"/>
      <point x="-33" y="31"/>
      <point x="-42" y="24"/>
      <point x="-46" y="12" type="curve" smooth="yes"/>
      <point x="-49" y="3"/>
      <point x="-41" y="-3"/>
      <point x="-33" y="-3" type="curve" smooth="yes"/>
    </contour>
    <contour>
      <point x="544" y="675" type="move" name="top.cap"/>
    </contour>
    <contour>
      <point x="325" y="-30" type="move" name="bottom.cap"/>
    </contour>
  </outline>
</glyph>
<glyph name="I" format="1">
  <advance width="381"/>
  <unicode hex="0049"/>
  <note>
    I
  </note>
  <outline>
    <contour>
      <point x="11" y="-3"/>
      <point x="79" y="2"/>
      <point x="119" y="2" type="curve" smooth="yes"/>
      <point x="158" y="2"/>
      <point x="242" y="-2"/>
      <point x="284" y="-2" type="curve" smooth="yes"/>
      <point x="294" y="-2"/>
      <point x="302" y="3"/>
      <point x="305" y="13" type="curve" smooth="yes"/>
      <point x="309" y="26"/>
      <point x="303" y="31"/>
      <point x="272" y="39" type="curve" smooth="yes"/>
      <point x="227" y="51"/>
      <point x="224" y="61"/>
      <point x="249" y="142" type="curve" smooth="yes"/>
      <point x="375" y="550" type="line" smooth="yes"/>
      <point x="387" y="590"/>
      <point x="401" y="601"/>
      <point x="461" y="618" type="curve" smooth="yes"/>
      <point x="475" y="622"/>
      <point x="483" y="626"/>
      <point x="487" y="639" type="curve" smooth="yes"/>
      <point x="490" y="649"/>
      <point x="486" y="654"/>
      <point x="476" y="654" type="curve" smooth="yes"/>
      <point x="434" y="654"/>
      <point x="358" y="650"/>
      <point x="319" y="650" type="curve" smooth="yes"/>
      <point x="279" y="650"/>
      <point x="215" y="655"/>
      <point x="171" y="655" type="curve" smooth="yes"/>
      <point x="163" y="655"/>
      <point x="151" y="649"/>
      <point x="148" y="640" type="curve" smooth="yes"/>
      <point x="144" y="628"/>
      <point x="149" y="621"/>
      <point x="160" y="618" type="curve" smooth="yes"/>
      <point x="210" y="604"/>
      <point x="219" y="594"/>
      <point x="206" y="551" type="curve" smooth="yes"/>
      <point x="65" y="97" type="line" smooth="yes"/>
      <point x="52" y="56"/>
      <point x="34" y="46"/>
      <point x="-20" y="34" type="curve" smooth="yes"/>
      <point x="-33" y="31"/>
      <point x="-42" y="24"/>
      <point x="-46" y="12" type="curve" smooth="yes"/>
      <point x="-49" y="3"/>
      <point x="-41" y="-3"/>
      <point x="-33" y="-3" type="curve" smooth="yes"/>
    </contour>
    <contour>
      <point x="327" y="675" type="move" name="top.cap"/>
    </contour>
    <contour>
      <point x="115" y="-30" type="move" name="bottom.cap"/>
    </contour>
  </outline>
</glyph>
<glyph name="J" format="1">
  <advance width="397"/>
  <unicode hex="004A"/>
  <note>
    J
  </note>
  <outline>
    <contour>
      <point x="15" y="-200"/>
      <point x="81" y="-167"/>
      <point x="132" y="-118" type="curve" smooth="yes"/>
      <point x="190" y="-63"/>
      <point x="232" y="13"/>
      <point x="255" y="87" type="curve" smooth="yes"/>
      <point x="398" y="550" type="line" smooth="yes"/>
      <point x="410" y="590"/>
      <point x="424" y="602"/>
      <point x="484" y="618" type="curve" smooth="yes"/>
      <point x="497" y="622"/>
      <point x="505" y="626"/>
      <point x="509" y="639" type="curve" smooth="yes"/>
      <point x="512" y="649"/>
      <point x="508" y="654"/>
      <point x="498" y="654" type="curve" smooth="yes"/>
      <point x="456" y="654"/>
      <point x="381" y="650"/>
      <point x="342" y="650" type="curve" smooth="yes"/>
      <point x="302" y="650"/>
      <point x="237" y="655"/>
      <point x="193" y="655" type="curve" smooth="yes"/>
      <point x="185" y="655"/>
      <point x="173" y="649"/>
      <point x="171" y="640" type="curve" smooth="yes"/>
      <point x="167" y="628"/>
      <point x="172" y="621"/>
      <point x="183" y="618" type="curve" smooth="yes"/>
      <point x="232" y="606"/>
      <point x="241" y="594"/>
      <point x="228" y="551" type="curve" smooth="yes"/>
      <point x="65" y="25" type="line" smooth="yes"/>
      <point x="26" y="-103"/>
      <point x="-5" y="-142"/>
      <point x="-37" y="-142" type="curve" smooth="yes"/>
      <point x="-57" y="-142"/>
      <point x="-73" y="-125"/>
      <point x="-86" y="-103" type="curve" smooth="yes"/>
      <point x="-95" y="-89"/>
      <point x="-107" y="-82"/>
      <point x="-121" y="-82" type="curve" smooth="yes"/>
      <point x="-165" y="-82"/>
      <point x="-193" y="-111"/>
      <point x="-193" y="-148" type="curve" smooth="yes"/>
      <point x="-192" y="-180"/>
      <point x="-160" y="-200"/>
      <point x="-64" y="-200" type="curve" smooth="yes"/>
    </contour>
    <contour>
      <point x="348" y="675" type="move" name="top.cap"/>
    </contour>
  </outline>
</glyph>
<glyph name="K" format="1">
  <advance width="776"/>
  <unicode hex="004B"/>
  <note>
    K
  </note>
  <outline>
    <contour>
      <point x="45" y="-6"/>
      <point x="79" y="4"/>
      <point x="119" y="4" type="curve" smooth="yes"/>
      <point x="158" y="4"/>
      <point x="195" y="-4"/>
      <point x="259" y="-4" type="curve" smooth="yes"/>
      <point x="272" y="-4"/>
      <point x="289" y="3"/>
      <point x="293" y="13" type="curve" smooth="yes"/>
      <point x="297" y="26"/>
      <point x="285" y="30"/>
      <point x="274" y="34" type="curve" smooth="yes"/>
      <point x="227" y="49"/>
      <point x="226" y="61"/>
      <point x="237" y="98" type="curve" smooth="yes"/>
      <point x="299" y="311" type="line" smooth="yes"/>
      <point x="301" y="317"/>
      <point x="304" y="321"/>
      <point x="312" y="321" type="curve" smooth="yes"/>
      <point x="319" y="321"/>
      <point x="330" y="310"/>
      <point x="343" y="282" type="curve" smooth="yes"/>
      <point x="418" y="115" type="line" smooth="yes"/>
      <point x="460" y="22"/>
      <point x="501" y="1"/>
      <point x="540" y="1" type="curve" smooth="yes"/>
      <point x="589" y="1"/>
      <point x="633" y="-5"/>
      <point x="694" y="-5" type="curve" smooth="yes"/>
      <point x="721" y="-5"/>
      <point x="732" y="3"/>
      <point x="732" y="14" type="curve" smooth="yes"/>
      <point x="732" y="27"/>
      <point x="710" y="34"/>
      <point x="697" y="39" type="curve" smooth="yes"/>
      <point x="666" y="51"/>
      <point x="639" y="67"/>
      <point x="612" y="98" type="curve" smooth="yes"/>
      <point x="574" y="141"/>
      <point x="524" y="213"/>
      <point x="462" y="349" type="curve" smooth="yes"/>
      <point x="457" y="360"/>
      <point x="459" y="368"/>
      <point x="472" y="381" type="curve" smooth="yes"/>
      <point x="534" y="443"/>
      <point x="610" y="505"/>
      <point x="674" y="557" type="curve" smooth="yes"/>
      <point x="717" y="592"/>
      <point x="761" y="612"/>
      <point x="835" y="618" type="curve" smooth="yes"/>
      <point x="847" y="619"/>
      <point x="867" y="626"/>
      <point x="871" y="639" type="curve" smooth="yes"/>
      <point x="874" y="649"/>
      <point x="862" y="654"/>
      <point x="849" y="654" type="curve" smooth="yes"/>
      <point x="767" y="654"/>
      <point x="711" y="651"/>
      <point x="642" y="651" type="curve"/>
      <point x="562" y="651" type="line"/>
      <point x="554" y="651"/>
      <point x="542" y="645"/>
      <point x="539" y="636" type="curve" smooth="yes"/>
      <point x="535" y="624"/>
      <point x="541" y="616"/>
      <point x="552" y="614" type="curve" smooth="yes"/>
      <point x="580" y="609"/>
      <point x="605" y="596"/>
      <point x="600" y="582" type="curve" smooth="yes"/>
      <point x="597" y="573"/>
      <point x="588" y="563"/>
      <point x="573" y="548" type="curve" smooth="yes"/>
      <point x="426" y="405" type="line" smooth="yes"/>
      <point x="392" y="371"/>
      <point x="362" y="356"/>
      <point x="335" y="356" type="curve" smooth="yes"/>
      <point x="321" y="356"/>
      <point x="316" y="359"/>
      <point x="320" y="372" type="curve" smooth="yes"/>
      <point x="375" y="550" type="line" smooth="yes"/>
      <point x="387" y="590"/>
      <point x="401" y="602"/>
      <point x="461" y="618" type="curve"/>
      <point x="474" y="622"/>
      <point x="482" y="626"/>
      <point x="486" y="639" type="curve" smooth="yes"/>
      <point x="489" y="649"/>
      <point x="485" y="654"/>
      <point x="475" y="654" type="curve" smooth="yes"/>
      <point x="433" y="654"/>
      <point x="358" y="650"/>
      <point x="319" y="650" type="curve" smooth="yes"/>
      <point x="279" y="650"/>
      <point x="214" y="655"/>
      <point x="170" y="655" type="curve" smooth="yes"/>
      <point x="162" y="655"/>
      <point x="150" y="649"/>
      <point x="148" y="640" type="curve" smooth="yes"/>
      <point x="144" y="628"/>
      <point x="149" y="621"/>
      <point x="160" y="618" type="curve" smooth="yes"/>
      <point x="209" y="606"/>
      <point x="218" y="594"/>
      <point x="205" y="551" type="curve" smooth="yes"/>
      <point x="65" y="97" type="line" smooth="yes"/>
      <point x="52" y="56"/>
      <point x="39" y="44"/>
      <point x="-15" y="34" type="curve" smooth="yes"/>
      <point x="-32" y="31"/>
      <point x="-43" y="24"/>
      <point x="-47" y="12" type="curve" smooth="yes"/>
      <point x="-50" y="3"/>
      <point x="-36" y="-6"/>
      <point x="-24" y="-6" type="curve" smooth="yes"/>
    </contour>
    <contour>
      <point x="526" y="675" type="move" name="top.cap"/>
    </contour>
    <contour>
      <point x="327" y="-30" type="move" name="bottom.cap"/>
    </contour>
  </outline>
</glyph>
<glyph name="L" format="1">
  <advance width="578"/>
  <unicode hex="004C"/>
  <note>
    L
  </note>
  <outline>
    <contour>
      <point x="11" y="-5"/>
      <point x="77" y="0"/>
      <point x="117" y="0" type="curve" smooth="yes"/>
      <point x="238" y="0"/>
      <point x="435" y="-5"/>
      <point x="472" y="-5" type="curve" smooth="yes"/>
      <point x="484" y="-5"/>
      <point x="489" y="5"/>
      <point x="495" y="14" type="curve" smooth="yes"/>
      <point x="518" y="48"/>
      <point x="556" y="132"/>
      <point x="556" y="174" type="curve" smooth="yes"/>
      <point x="556" y="183"/>
      <point x="551" y="194"/>
      <point x="544" y="194" type="curve" smooth="yes"/>
      <point x="536" y="194"/>
      <point x="529" y="184"/>
      <point x="522" y="174" type="curve" smooth="yes"/>
      <point x="459" y="76"/>
      <point x="419" y="44"/>
      <point x="345" y="44" type="curve" smooth="yes"/>
      <point x="268" y="44" type="line" smooth="yes"/>
      <point x="234" y="44"/>
      <point x="223" y="58"/>
      <point x="234" y="95" type="curve" smooth="yes"/>
      <point x="375" y="550" type="line" smooth="yes"/>
      <point x="387" y="590"/>
      <point x="401" y="602"/>
      <point x="461" y="618" type="curve"/>
      <point x="474" y="622"/>
      <point x="482" y="626"/>
      <point x="486" y="639" type="curve" smooth="yes"/>
      <point x="489" y="649"/>
      <point x="485" y="654"/>
      <point x="475" y="654" type="curve" smooth="yes"/>
      <point x="433" y="654"/>
      <point x="358" y="650"/>
      <point x="319" y="650" type="curve" smooth="yes"/>
      <point x="279" y="650"/>
      <point x="214" y="655"/>
      <point x="170" y="655" type="curve" smooth="yes"/>
      <point x="162" y="655"/>
      <point x="150" y="649"/>
      <point x="148" y="640" type="curve" smooth="yes"/>
      <point x="145" y="628"/>
      <point x="149" y="621"/>
      <point x="160" y="618" type="curve" smooth="yes"/>
      <point x="209" y="605"/>
      <point x="218" y="594"/>
      <point x="205" y="551" type="curve" smooth="yes"/>
      <point x="64" y="95" type="line" smooth="yes"/>
      <point x="51" y="54"/>
      <point x="32" y="46"/>
      <point x="-16" y="32" type="curve" smooth="yes"/>
      <point x="-30" y="28"/>
      <point x="-40" y="19"/>
      <point x="-42" y="11" type="curve" smooth="yes"/>
      <point x="-44" y="3"/>
      <point x="-40" y="-5"/>
      <point x="-28" y="-5" type="curve" smooth="yes"/>
    </contour>
    <contour>
      <point x="346" y="675" type="move" name="top.cap"/>
    </contour>
    <contour>
      <point x="268" y="-30" type="move" name="bottom.cap"/>
    </contour>
  </outline>
</glyph>
<glyph name="M" format="1">
  <advance width="987"/>
  <unicode hex="004D"/>
  <note>
    M
  </note>
  <outline>
    <contour>
      <point x="370" y="-14"/>
      <point x="382" y="-3"/>
      <point x="388" y="5" type="curve"/>
      <point x="739" y="425" type="line" smooth="yes"/>
      <point x="747" y="434"/>
      <point x="751" y="435"/>
      <point x="749" y="427" type="curve"/>
      <point x="668" y="97" type="line"/>
      <point x="658" y="57"/>
      <point x="637" y="47"/>
      <point x="582" y="34" type="curve" smooth="yes"/>
      <point x="569" y="31"/>
      <point x="557" y="24"/>
      <point x="553" y="12" type="curve" smooth="yes"/>
      <point x="550" y="3"/>
      <point x="559" y="-3"/>
      <point x="570" y="-3" type="curve" smooth="yes"/>
      <point x="614" y="-3"/>
      <point x="681" y="2"/>
      <point x="721" y="2" type="curve" smooth="yes"/>
      <point x="760" y="2"/>
      <point x="840" y="-2"/>
      <point x="882" y="-2" type="curve" smooth="yes"/>
      <point x="892" y="-2"/>
      <point x="903" y="3"/>
      <point x="906" y="13" type="curve" smooth="yes"/>
      <point x="910" y="26"/>
      <point x="901" y="30"/>
      <point x="890" y="34" type="curve"/>
      <point x="854" y="45"/>
      <point x="831" y="65"/>
      <point x="838" y="98" type="curve"/>
      <point x="936" y="522" type="line" smooth="yes"/>
      <point x="948" y="572"/>
      <point x="973" y="601"/>
      <point x="1019" y="613" type="curve" smooth="yes"/>
      <point x="1055" y="622"/>
      <point x="1074" y="632"/>
      <point x="1074" y="644" type="curve" smooth="yes"/>
      <point x="1074" y="656"/>
      <point x="1066" y="658"/>
      <point x="1051" y="658" type="curve" smooth="yes"/>
      <point x="1014" y="658"/>
      <point x="962" y="650"/>
      <point x="902" y="650" type="curve" smooth="yes"/>
      <point x="857" y="650" type="line" smooth="yes"/>
      <point x="848" y="650"/>
      <point x="842" y="646"/>
      <point x="836" y="637" type="curve" smooth="yes"/>
      <point x="826" y="621"/>
      <point x="813" y="601"/>
      <point x="793" y="573" type="curve" smooth="yes"/>
      <point x="728" y="482"/>
      <point x="606" y="304"/>
      <point x="487" y="183" type="curve"/>
      <point x="483" y="177"/>
      <point x="479" y="178"/>
      <point x="479" y="183" type="curve"/>
      <point x="465" y="593" type="line" smooth="yes"/>
      <point x="464" y="634"/>
      <point x="454" y="653"/>
      <point x="419" y="653" type="curve" smooth="yes"/>
      <point x="368" y="653"/>
      <point x="263" y="658"/>
      <point x="221" y="658" type="curve" smooth="yes"/>
      <point x="206" y="658"/>
      <point x="186" y="657"/>
      <point x="186" y="643" type="curve" smooth="yes"/>
      <point x="186" y="630"/>
      <point x="195" y="628"/>
      <point x="211" y="624" type="curve" smooth="yes"/>
      <point x="307" y="601"/>
      <point x="316" y="575"/>
      <point x="293" y="529" type="curve"/>
      <point x="91" y="115" type="line" smooth="yes"/>
      <point x="66" y="64"/>
      <point x="33" y="47"/>
      <point x="-14" y="30" type="curve" smooth="yes"/>
      <point x="-28" y="25"/>
      <point x="-43" y="24"/>
      <point x="-47" y="12" type="curve" smooth="yes"/>
      <point x="-50" y="3"/>
      <point x="-44" y="-3"/>
      <point x="-28" y="-3" type="curve" smooth="yes"/>
      <point x="-28" y="-3"/>
      <point x="41" y="1"/>
      <point x="87" y="1" type="curve" smooth="yes"/>
      <point x="128" y="1"/>
      <point x="134" y="-2"/>
      <point x="189" y="-2" type="curve" smooth="yes"/>
      <point x="199" y="-2"/>
      <point x="215" y="3"/>
      <point x="218" y="13" type="curve" smooth="yes"/>
      <point x="222" y="26"/>
      <point x="208" y="31"/>
      <point x="197" y="34" type="curve" smooth="yes"/>
      <point x="155" y="45"/>
      <point x="140" y="85"/>
      <point x="159" y="129" type="curve" smooth="yes"/>
      <point x="297" y="444" type="line" smooth="yes"/>
      <point x="303" y="458"/>
      <point x="316" y="464"/>
      <point x="317" y="451" type="curve" smooth="yes"/>
      <point x="346" y="9" type="line"/>
      <point x="348" y="-6"/>
      <point x="354" y="-14"/>
      <point x="362" y="-14" type="curve" smooth="yes"/>
    </contour>
    <contour>
      <point x="375" y="-30" type="move" name="bottom.cap"/>
    </contour>
  </outline>
</glyph>
<glyph name="N" format="1">
  <advance width="808"/>
  <unicode hex="004E"/>
  <note>
    N
  </note>
  <outline>
    <contour>
      <point x="3" y="-3"/>
      <point x="69" y="1"/>
      <point x="115" y="1" type="curve" smooth="yes"/>
      <point x="147" y="1"/>
      <point x="156" y="-2"/>
      <point x="211" y="-2" type="curve" smooth="yes"/>
      <point x="221" y="-2"/>
      <point x="237" y="3"/>
      <point x="240" y="13" type="curve" smooth="yes"/>
      <point x="244" y="26"/>
      <point x="231" y="31"/>
      <point x="220" y="34" type="curve" smooth="yes"/>
      <point x="164" y="49"/>
      <point x="139" y="62"/>
      <point x="155" y="113" type="curve" smooth="yes"/>
      <point x="185" y="210"/>
      <point x="245" y="387"/>
      <point x="281" y="472" type="curve" smooth="yes"/>
      <point x="284" y="479"/>
      <point x="288" y="491"/>
      <point x="294" y="491" type="curve" smooth="yes"/>
      <point x="297" y="491"/>
      <point x="301" y="484"/>
      <point x="302" y="481" type="curve"/>
      <point x="300" y="486"/>
      <point x="501" y="58"/>
      <point x="504" y="52" type="curve"/>
      <point x="528" y="10"/>
      <point x="545" y="0"/>
      <point x="587" y="0" type="curve" smooth="yes"/>
      <point x="694" y="0" type="line" smooth="yes"/>
      <point x="709" y="0"/>
      <point x="715" y="8"/>
      <point x="709" y="20" type="curve" smooth="yes"/>
      <point x="698" y="42"/>
      <point x="690" y="55"/>
      <point x="679" y="77" type="curve" smooth="yes"/>
      <point x="663" y="108"/>
      <point x="658" y="129"/>
      <point x="671" y="171" type="curve" smooth="yes"/>
      <point x="710" y="298"/>
      <point x="748" y="426"/>
      <point x="781" y="536" type="curve" smooth="yes"/>
      <point x="799" y="593"/>
      <point x="824" y="607"/>
      <point x="873" y="616" type="curve" smooth="yes"/>
      <point x="889" y="619"/>
      <point x="900" y="625"/>
      <point x="904" y="637" type="curve" smooth="yes"/>
      <point x="907" y="646"/>
      <point x="899" y="652"/>
      <point x="885" y="652" type="curve" smooth="yes"/>
      <point x="835" y="652"/>
      <point x="800" y="645"/>
      <point x="761" y="645" type="curve" smooth="yes"/>
      <point x="742" y="645"/>
      <point x="700" y="651"/>
      <point x="646" y="651" type="curve" smooth="yes"/>
      <point x="636" y="651"/>
      <point x="623" y="645"/>
      <point x="620" y="636" type="curve" smooth="yes"/>
      <point x="616" y="623"/>
      <point x="625" y="617"/>
      <point x="636" y="615" type="curve" smooth="yes"/>
      <point x="726" y="599"/>
      <point x="736" y="574"/>
      <point x="725" y="530" type="curve" smooth="yes"/>
      <point x="699" y="429"/>
      <point x="645" y="234"/>
      <point x="635" y="208" type="curve" smooth="yes"/>
      <point x="632" y="200"/>
      <point x="628" y="194"/>
      <point x="623" y="194" type="curve" smooth="yes"/>
      <point x="619" y="194"/>
      <point x="616" y="201"/>
      <point x="613" y="206" type="curve"/>
      <point x="408" y="631" type="line"/>
      <point x="401" y="645"/>
      <point x="391" y="653"/>
      <point x="372" y="653" type="curve" smooth="yes"/>
      <point x="309" y="653"/>
      <point x="216" y="658"/>
      <point x="174" y="658" type="curve" smooth="yes"/>
      <point x="159" y="658"/>
      <point x="147" y="654"/>
      <point x="143" y="642" type="curve" smooth="yes"/>
      <point x="139" y="630"/>
      <point x="152" y="623"/>
      <point x="163" y="620" type="curve" smooth="yes"/>
      <point x="242" y="599"/>
      <point x="271" y="578"/>
      <point x="248" y="502" type="curve" smooth="yes"/>
      <point x="100" y="115" type="line" smooth="yes"/>
      <point x="81" y="69"/>
      <point x="56" y="43"/>
      <point x="16" y="33" type="curve" smooth="yes"/>
      <point x="2" y="29"/>
      <point x="-11" y="24"/>
      <point x="-15" y="12" type="curve" smooth="yes"/>
      <point x="-18" y="3"/>
      <point x="-5" y="-3"/>
      <point x="3" y="-3" type="curve" smooth="yes"/>
    </contour>
    <contour>
      <point x="581" y="675" type="move" name="top.cap"/>
    </contour>
    <contour>
      <point x="382" y="-30" type="move" name="bottom.cap"/>
    </contour>
  </outline>
</glyph>
<glyph name="O" format="1">
  <advance width="692"/>
  <unicode hex="004F"/>
  <note>
    O
  </note>
  <outline>
    <contour>
      <point x="520" y="-14"/>
      <point x="710" y="188"/>
      <point x="710" y="408" type="curve" smooth="yes"/>
      <point x="710" y="561"/>
      <point x="604" y="664"/>
      <point x="470" y="664" type="curve" smooth="yes"/>
      <point x="241" y="664"/>
      <point x="53" y="463"/>
      <point x="53" y="242" type="curve" smooth="yes"/>
      <point x="53" y="89"/>
      <point x="158" y="-14"/>
      <point x="292" y="-14" type="curve" smooth="yes"/>
    </contour>
    <contour>
      <point x="229" y="25"/>
      <point x="203" y="93"/>
      <point x="203" y="176" type="curve" smooth="yes"/>
      <point x="203" y="336"/>
      <point x="333" y="629"/>
      <point x="469" y="629" type="curve" smooth="yes"/>
      <point x="531" y="629"/>
      <point x="559" y="557"/>
      <point x="559" y="473" type="curve" smooth="yes"/>
      <point x="559" y="314"/>
      <point x="428" y="25"/>
      <point x="291" y="25" type="curve" smooth="yes"/>
    </contour>
    <contour>
      <point x="501" y="675" type="move" name="top.cap"/>
    </contour>
    <contour>
      <point x="278" y="-30" type="move" name="bottom.cap"/>
    </contour>
  </outline>
</glyph>
<glyph name="P" format="1">
  <advance width="637"/>
  <unicode hex="0050"/>
  <note>
    P
  </note>
  <outline>
    <contour>
      <point x="17" y="-3"/>
      <point x="85" y="2"/>
      <point x="125" y="2" type="curve" smooth="yes"/>
      <point x="164" y="2"/>
      <point x="250" y="-2"/>
      <point x="292" y="-2" type="curve" smooth="yes"/>
      <point x="306" y="-2"/>
      <point x="326" y="3"/>
      <point x="326" y="13" type="curve" smooth="yes"/>
      <point x="326" y="26"/>
      <point x="315" y="31"/>
      <point x="304" y="34" type="curve" smooth="yes"/>
      <point x="251" y="46"/>
      <point x="229" y="56"/>
      <point x="242" y="98" type="curve" smooth="yes"/>
      <point x="391" y="579" type="line" smooth="yes"/>
      <point x="399" y="604"/>
      <point x="411" y="610"/>
      <point x="437" y="610" type="curve" smooth="yes"/>
      <point x="472" y="610"/>
      <point x="527" y="573"/>
      <point x="527" y="466" type="curve" smooth="yes"/>
      <point x="527" y="407"/>
      <point x="490" y="288"/>
      <point x="383" y="273" type="curve" smooth="yes"/>
      <point x="366" y="271"/>
      <point x="356" y="270"/>
      <point x="343" y="268" type="curve" smooth="yes"/>
      <point x="331" y="266"/>
      <point x="321" y="261"/>
      <point x="321" y="252" type="curve" smooth="yes"/>
      <point x="321" y="236"/>
      <point x="331" y="229"/>
      <point x="367" y="229" type="curve" smooth="yes"/>
      <point x="538" y="229"/>
      <point x="675" y="330"/>
      <point x="680" y="449" type="curve" smooth="yes"/>
      <point x="685" y="576"/>
      <point x="600" y="657"/>
      <point x="458" y="657" type="curve" smooth="yes"/>
      <point x="404" y="657"/>
      <point x="358" y="652"/>
      <point x="326" y="650" type="curve" smooth="yes"/>
      <point x="286" y="648"/>
      <point x="223" y="655"/>
      <point x="179" y="655" type="curve" smooth="yes"/>
      <point x="167" y="655"/>
      <point x="150" y="648"/>
      <point x="147" y="639" type="curve" smooth="yes"/>
      <point x="144" y="631"/>
      <point x="154" y="622"/>
      <point x="169" y="618" type="curve" smooth="yes"/>
      <point x="212" y="607"/>
      <point x="225" y="594"/>
      <point x="212" y="551" type="curve" smooth="yes"/>
      <point x="71" y="97" type="line" smooth="yes"/>
      <point x="58" y="56"/>
      <point x="40" y="46"/>
      <point x="-14" y="34" type="curve" smooth="yes"/>
      <point x="-27" y="31"/>
      <point x="-45" y="24"/>
      <point x="-45" y="12" type="curve" smooth="yes"/>
      <point x="-45" y="3"/>
      <point x="-35" y="-3"/>
      <point x="-27" y="-3" type="curve" smooth="yes"/>
    </contour>
  </outline>
</glyph>
<glyph name="Q" format="1">
  <advance width="692"/>
  <unicode hex="0051"/>
  <note>
    Q
  </note>
  <outline>
    <contour>
      <point x="654" y="-290"/>
      <point x="746" y="-206"/>
      <point x="769" y="-149" type="curve" smooth="yes"/>
      <point x="779" y="-124"/>
      <point x="760" y="-101"/>
      <point x="734" y="-137" type="curve" smooth="yes"/>
      <point x="713" y="-166"/>
      <point x="683" y="-186"/>
      <point x="644" y="-186" type="curve" smooth="yes"/>
      <point x="605" y="-186"/>
      <point x="542" y="-153"/>
      <point x="476" y="-121" type="curve" smooth="yes"/>
      <point x="411" y="-89"/>
      <point x="345" y="-58"/>
      <point x="297" y="-58" type="curve" smooth="yes"/>
      <point x="261" y="-58"/>
      <point x="215" y="-69"/>
      <point x="179" y="-87" type="curve"/>
      <point x="178" y="-94" type="line"/>
      <point x="308" y="-54"/>
      <point x="363" y="-26"/>
      <point x="453" y="29" type="curve" smooth="yes"/>
      <point x="604" y="122"/>
      <point x="710" y="252"/>
      <point x="710" y="408" type="curve" smooth="yes"/>
      <point x="710" y="561"/>
      <point x="604" y="664"/>
      <point x="470" y="664" type="curve" smooth="yes"/>
      <point x="241" y="664"/>
      <point x="53" y="463"/>
      <point x="53" y="242" type="curve" smooth="yes"/>
      <point x="53" y="89"/>
      <point x="158" y="-14"/>
      <point x="292" y="-14" type="curve" smooth="yes"/>
      <point x="308" y="-14"/>
      <point x="325" y="-13"/>
      <point x="341" y="-11" type="curve"/>
      <point x="376" y="30" type="line"/>
      <point x="356" y="26"/>
      <point x="338" y="25"/>
      <point x="322" y="25" type="curve" smooth="yes"/>
      <point x="226" y="26"/>
      <point x="203" y="97"/>
      <point x="203" y="176" type="curve" smooth="yes"/>
      <point x="203" y="352"/>
      <point x="332" y="620"/>
      <point x="470" y="620" type="curve" smooth="yes"/>
      <point x="533" y="620"/>
      <point x="559" y="570"/>
      <point x="559" y="473" type="curve" smooth="yes"/>
      <point x="559" y="284"/>
      <point x="486" y="104"/>
      <point x="276" y="-14" type="curve" smooth="yes"/>
      <point x="212" y="-49"/>
      <point x="25" y="-105"/>
      <point x="25" y="-144" type="curve" smooth="yes"/>
      <point x="25" y="-154"/>
      <point x="32" y="-162"/>
      <point x="43" y="-162" type="curve" smooth="yes"/>
      <point x="55" y="-162"/>
      <point x="71" y="-149"/>
      <point x="90" y="-142" type="curve" smooth="yes"/>
      <point x="103" y="-137"/>
      <point x="123" y="-133"/>
      <point x="145" y="-133" type="curve" smooth="yes"/>
      <point x="198" y="-133"/>
      <point x="264" y="-167"/>
      <point x="333" y="-204" type="curve" smooth="yes"/>
      <point x="412" y="-246"/>
      <point x="495" y="-290"/>
      <point x="571" y="-290" type="curve" smooth="yes"/>
    </contour>
  </outline>
</glyph>
<glyph name="R" format="1">
  <advance width="770"/>
  <unicode hex="0052"/>
  <note>
    R
  </note>
  <outline>
    <contour>
      <point x="18" y="-3"/>
      <point x="85" y="2"/>
      <point x="125" y="2" type="curve" smooth="yes"/>
      <point x="164" y="2"/>
      <point x="250" y="-2"/>
      <point x="292" y="-2" type="curve" smooth="yes"/>
      <point x="302" y="-2"/>
      <point x="309" y="3"/>
      <point x="313" y="13" type="curve" smooth="yes"/>
      <point x="317" y="26"/>
      <point x="311" y="31"/>
      <point x="300" y="34" type="curve"/>
      <point x="247" y="46"/>
      <point x="229" y="56"/>
      <point x="242" y="98" type="curve" smooth="yes"/>
      <point x="298" y="280" type="line" smooth="yes"/>
      <point x="302" y="292"/>
      <point x="308" y="300"/>
      <point x="319" y="300" type="curve" smooth="yes"/>
      <point x="337" y="300"/>
      <point x="348" y="286"/>
      <point x="353" y="268" type="curve" smooth="yes"/>
      <point x="371" y="197"/>
      <point x="382" y="161"/>
      <point x="402" y="100" type="curve" smooth="yes"/>
      <point x="420" y="46"/>
      <point x="455" y="0"/>
      <point x="568" y="0" type="curve" smooth="yes"/>
      <point x="681" y="0"/>
      <point x="718" y="7"/>
      <point x="718" y="31" type="curve" smooth="yes"/>
      <point x="718" y="48"/>
      <point x="699" y="54"/>
      <point x="682" y="54" type="curve" smooth="yes"/>
      <point x="635" y="54"/>
      <point x="601" y="87"/>
      <point x="577" y="131" type="curve" smooth="yes"/>
      <point x="545" y="190"/>
      <point x="528" y="226"/>
      <point x="493" y="311" type="curve"/>
      <point x="491" y="315"/>
      <point x="492" y="321"/>
      <point x="497" y="323" type="curve"/>
      <point x="589" y="343"/>
      <point x="669" y="418"/>
      <point x="665" y="508" type="curve" smooth="yes"/>
      <point x="661" y="587"/>
      <point x="602" y="657"/>
      <point x="471" y="657" type="curve" smooth="yes"/>
      <point x="396" y="657"/>
      <point x="372" y="647"/>
      <point x="324" y="647" type="curve" smooth="yes"/>
      <point x="272" y="647"/>
      <point x="248" y="655"/>
      <point x="183" y="655" type="curve" smooth="yes"/>
      <point x="171" y="655"/>
      <point x="148" y="650"/>
      <point x="148" y="639" type="curve" smooth="yes"/>
      <point x="148" y="628"/>
      <point x="158" y="622"/>
      <point x="173" y="618" type="curve" smooth="yes"/>
      <point x="216" y="607"/>
      <point x="225" y="594"/>
      <point x="212" y="551" type="curve" smooth="yes"/>
      <point x="72" y="97" type="line" smooth="yes"/>
      <point x="59" y="56"/>
      <point x="40" y="45"/>
      <point x="-14" y="34" type="curve" smooth="yes"/>
      <point x="-27" y="31"/>
      <point x="-36" y="24"/>
      <point x="-40" y="12" type="curve" smooth="yes"/>
      <point x="-43" y="3"/>
      <point x="-34" y="-3"/>
      <point x="-26" y="-3" type="curve" smooth="yes"/>
    </contour>
    <contour>
      <point x="328" y="328"/>
      <point x="317" y="339"/>
      <point x="326" y="366" type="curve" smooth="yes"/>
      <point x="391" y="573" type="line" smooth="yes"/>
      <point x="401" y="604"/>
      <point x="402" y="610"/>
      <point x="438" y="610" type="curve" smooth="yes"/>
      <point x="477" y="610"/>
      <point x="507" y="578"/>
      <point x="507" y="524" type="curve" smooth="yes"/>
      <point x="507" y="407"/>
      <point x="449" y="328"/>
      <point x="350" y="328" type="curve" smooth="yes"/>
    </contour>
    <contour>
      <point x="471" y="675" type="move" name="top.cap"/>
    </contour>
    <contour>
      <point x="341" y="-30" type="move" name="bottom.cap"/>
    </contour>
  </outline>
</glyph>
<glyph name="S" format="1">
  <advance width="499"/>
  <unicode hex="0053"/>
  <note>
    S
  </note>
  <outline>
    <contour>
      <point x="366" y="-14"/>
      <point x="462" y="96"/>
      <point x="462" y="199" type="curve" smooth="yes"/>
      <point x="462" y="267"/>
      <point x="440" y="319"/>
      <point x="358" y="387" type="curve" smooth="yes"/>
      <point x="276" y="455"/>
      <point x="260" y="477"/>
      <point x="260" y="524" type="curve" smooth="yes"/>
      <point x="260" y="571"/>
      <point x="293" y="612"/>
      <point x="366" y="612" type="curve" smooth="yes"/>
      <point x="437" y="612"/>
      <point x="482" y="567"/>
      <point x="482" y="481" type="curve" smooth="yes"/>
      <point x="482" y="450"/>
      <point x="487" y="437"/>
      <point x="501" y="437" type="curve" smooth="yes"/>
      <point x="515" y="437"/>
      <point x="521" y="446"/>
      <point x="525" y="460" type="curve" smooth="yes"/>
      <point x="540" y="511"/>
      <point x="573" y="590"/>
      <point x="599" y="624" type="curve" smooth="yes"/>
      <point x="608" y="636"/>
      <point x="605" y="648"/>
      <point x="591" y="648" type="curve" smooth="yes"/>
      <point x="581" y="648"/>
      <point x="571" y="643"/>
      <point x="561" y="637" type="curve" smooth="yes"/>
      <point x="552" y="632"/>
      <point x="545" y="631"/>
      <point x="535" y="631" type="curve" smooth="yes"/>
      <point x="518" y="631"/>
      <point x="505" y="636"/>
      <point x="478" y="644" type="curve" smooth="yes"/>
      <point x="449" y="653"/>
      <point x="407" y="664"/>
      <point x="356" y="664" type="curve" smooth="yes"/>
      <point x="214" y="664"/>
      <point x="112" y="577"/>
      <point x="112" y="465" type="curve" smooth="yes"/>
      <point x="112" y="384"/>
      <point x="142" y="337"/>
      <point x="208" y="279" type="curve" smooth="yes"/>
      <point x="294" y="203"/>
      <point x="311" y="177"/>
      <point x="311" y="134" type="curve" smooth="yes"/>
      <point x="311" y="83"/>
      <point x="265" y="44"/>
      <point x="186" y="44" type="curve" smooth="yes"/>
      <point x="102" y="44"/>
      <point x="66" y="95"/>
      <point x="66" y="158" type="curve" smooth="yes"/>
      <point x="66" y="205"/>
      <point x="64" y="226"/>
      <point x="45" y="226" type="curve" smooth="yes"/>
      <point x="28" y="226"/>
      <point x="21" y="216"/>
      <point x="17" y="191" type="curve" smooth="yes"/>
      <point x="7" y="115"/>
      <point x="-37" y="39"/>
      <point x="-37" y="24" type="curve" smooth="yes"/>
      <point x="-37" y="14"/>
      <point x="-21" y="0"/>
      <point x="-13" y="0" type="curve" smooth="yes"/>
      <point x="-7" y="0"/>
      <point x="2" y="6"/>
      <point x="12" y="12" type="curve" smooth="yes"/>
      <point x="19" y="16"/>
      <point x="29" y="20"/>
      <point x="38" y="20" type="curve" smooth="yes"/>
      <point x="42" y="20"/>
      <point x="56" y="15"/>
      <point x="75" y="7" type="curve" smooth="yes"/>
      <point x="112" y="-9"/>
      <point x="156" y="-14"/>
      <point x="207" y="-14" type="curve" smooth="yes"/>
    </contour>
    <contour>
      <point x="396" y="675" type="move" name="top.cap"/>
    </contour>
    <contour>
      <point x="165" y="-30" type="move" name="bottom.cap"/>
    </contour>
  </outline>
</glyph>
<glyph name="T" format="1">
  <advance width="701"/>
  <unicode hex="0054"/>
  <note>
    T
  </note>
  <outline>
    <contour>
      <point x="181" y="-3"/>
      <point x="254" y="2"/>
      <point x="294" y="2" type="curve" smooth="yes"/>
      <point x="333" y="2"/>
      <point x="411" y="-2"/>
      <point x="453" y="-2" type="curve" smooth="yes"/>
      <point x="463" y="-2"/>
      <point x="473" y="3"/>
      <point x="476" y="13" type="curve" smooth="yes"/>
      <point x="480" y="26"/>
      <point x="471" y="30"/>
      <point x="461" y="34" type="curve"/>
      <point x="413" y="49"/>
      <point x="399" y="61"/>
      <point x="410" y="98" type="curve" smooth="yes"/>
      <point x="549" y="546" type="line" smooth="yes"/>
      <point x="558" y="575"/>
      <point x="587" y="592"/>
      <point x="620" y="592" type="curve" smooth="yes"/>
      <point x="641" y="592" type="line" smooth="yes"/>
      <point x="698" y="592"/>
      <point x="716" y="569"/>
      <point x="718" y="516" type="curve" smooth="yes"/>
      <point x="719" y="488"/>
      <point x="723" y="477"/>
      <point x="736" y="477" type="curve" smooth="yes"/>
      <point x="749" y="477"/>
      <point x="756" y="490"/>
      <point x="764" y="514" type="curve" smooth="yes"/>
      <point x="780" y="562"/>
      <point x="799" y="602"/>
      <point x="834" y="664" type="curve" smooth="yes"/>
      <point x="838" y="671"/>
      <point x="840" y="678"/>
      <point x="842" y="683" type="curve" smooth="yes"/>
      <point x="846" y="693"/>
      <point x="843" y="699"/>
      <point x="834" y="699" type="curve" smooth="yes"/>
      <point x="817" y="699"/>
      <point x="800" y="679"/>
      <point x="774" y="665" type="curve" smooth="yes"/>
      <point x="763" y="659"/>
      <point x="737" y="651"/>
      <point x="707" y="651" type="curve" smooth="yes"/>
      <point x="372" y="650" type="line" smooth="yes"/>
      <point x="322" y="650"/>
      <point x="302" y="657"/>
      <point x="286" y="674" type="curve" smooth="yes"/>
      <point x="274" y="686"/>
      <point x="260" y="700"/>
      <point x="245" y="700" type="curve" smooth="yes"/>
      <point x="231" y="700"/>
      <point x="222" y="692"/>
      <point x="215" y="674" type="curve" smooth="yes"/>
      <point x="196" y="625"/>
      <point x="171" y="576"/>
      <point x="127" y="526" type="curve" smooth="yes"/>
      <point x="120" y="518"/>
      <point x="114" y="507"/>
      <point x="112" y="499" type="curve" smooth="yes"/>
      <point x="110" y="490"/>
      <point x="110" y="481"/>
      <point x="122" y="481" type="curve" smooth="yes"/>
      <point x="143" y="481"/>
      <point x="181" y="519"/>
      <point x="196" y="534" type="curve" smooth="yes"/>
      <point x="230" y="568"/>
      <point x="281" y="592"/>
      <point x="325" y="592" type="curve" smooth="yes"/>
      <point x="361" y="592" type="line" smooth="yes"/>
      <point x="385" y="592"/>
      <point x="390" y="579"/>
      <point x="383" y="559" type="curve" smooth="yes"/>
      <point x="240" y="97" type="line" smooth="yes"/>
      <point x="227" y="56"/>
      <point x="204" y="46"/>
      <point x="150" y="34" type="curve" smooth="yes"/>
      <point x="137" y="31"/>
      <point x="125" y="24"/>
      <point x="121" y="12" type="curve" smooth="yes"/>
      <point x="118" y="3"/>
      <point x="129" y="-3"/>
      <point x="137" y="-3" type="curve" smooth="yes"/>
    </contour>
    <contour>
      <point x="512" y="675" type="move" name="top.cap"/>
    </contour>
  </outline>
</glyph>
<glyph name="V" format="1">
  <advance width="750"/>
  <unicode hex="0056"/>
  <note>
    V
  </note>
  <outline>
    <contour>
      <point x="249" y="-14"/>
      <point x="320" y="79"/>
      <point x="368" y="134" type="curve" smooth="yes"/>
      <point x="725" y="540" type="line" smooth="yes"/>
      <point x="760" y="579"/>
      <point x="796" y="609"/>
      <point x="839" y="620" type="curve" smooth="yes"/>
      <point x="852" y="624"/>
      <point x="877" y="627"/>
      <point x="877" y="641" type="curve" smooth="yes"/>
      <point x="877" y="651"/>
      <point x="861" y="657"/>
      <point x="846" y="657" type="curve" smooth="yes"/>
      <point x="804" y="657"/>
      <point x="775" y="651"/>
      <point x="736" y="651" type="curve" smooth="yes"/>
      <point x="696" y="651"/>
      <point x="677" y="654"/>
      <point x="633" y="654" type="curve" smooth="yes"/>
      <point x="619" y="654"/>
      <point x="602" y="649"/>
      <point x="599" y="640" type="curve" smooth="yes"/>
      <point x="595" y="628"/>
      <point x="610" y="622"/>
      <point x="622" y="618" type="curve" smooth="yes"/>
      <point x="669" y="602"/>
      <point x="676" y="569"/>
      <point x="588" y="464" type="curve" smooth="yes"/>
      <point x="351" y="181" type="line" smooth="yes"/>
      <point x="346" y="175"/>
      <point x="346" y="173"/>
      <point x="343" y="173" type="curve" smooth="yes"/>
      <point x="340" y="173"/>
      <point x="340" y="175"/>
      <point x="341" y="180" type="curve" smooth="yes"/>
      <point x="412" y="555" type="line" smooth="yes"/>
      <point x="420" y="597"/>
      <point x="435" y="607"/>
      <point x="483" y="618" type="curve" smooth="yes"/>
      <point x="496" y="621"/>
      <point x="514" y="628"/>
      <point x="518" y="640" type="curve" smooth="yes"/>
      <point x="521" y="649"/>
      <point x="507" y="655"/>
      <point x="496" y="655" type="curve" smooth="yes"/>
      <point x="452" y="655"/>
      <point x="367" y="650"/>
      <point x="327" y="650" type="curve" smooth="yes"/>
      <point x="288" y="650"/>
      <point x="219" y="654"/>
      <point x="177" y="654" type="curve" smooth="yes"/>
      <point x="155" y="654"/>
      <point x="143" y="649"/>
      <point x="143" y="638" type="curve" smooth="yes"/>
      <point x="143" y="624"/>
      <point x="158" y="623"/>
      <point x="180" y="615" type="curve" smooth="yes"/>
      <point x="209" y="607"/>
      <point x="221" y="590"/>
      <point x="217" y="554" type="curve" smooth="yes"/>
      <point x="200" y="410"/>
      <point x="179" y="273"/>
      <point x="148" y="122" type="curve" smooth="yes"/>
      <point x="134" y="53"/>
      <point x="145" y="-24"/>
      <point x="209" y="-18" type="curve" smooth="yes"/>
    </contour>
    <contour>
      <point x="549" y="675" type="move" name="top.cap"/>
    </contour>
    <contour>
      <point x="185" y="-30" type="move" name="bottom.cap"/>
    </contour>
  </outline>
</glyph>
<glyph name="W" format="1">
  <advance width="1152"/>
  <unicode hex="0057"/>
  <note>
    W
  </note>
  <outline>
    <contour>
      <point x="259" y="-18"/>
      <point x="330" y="72"/>
      <point x="376" y="127" type="curve" smooth="yes"/>
      <point x="617" y="417" type="line"/>
      <point x="603" y="321"/>
      <point x="586" y="225"/>
      <point x="565" y="122" type="curve" smooth="yes"/>
      <point x="547" y="35"/>
      <point x="576" y="-14"/>
      <point x="624" y="-14" type="curve" smooth="yes"/>
      <point x="653" y="-14"/>
      <point x="712" y="58"/>
      <point x="781" y="139" type="curve" smooth="yes"/>
      <point x="1127" y="540" type="line" smooth="yes"/>
      <point x="1160" y="579"/>
      <point x="1198" y="610"/>
      <point x="1241" y="620" type="curve" smooth="yes"/>
      <point x="1254" y="623"/>
      <point x="1279" y="627"/>
      <point x="1279" y="641" type="curve" smooth="yes"/>
      <point x="1279" y="651"/>
      <point x="1263" y="657"/>
      <point x="1248" y="657" type="curve" smooth="yes"/>
      <point x="1206" y="657"/>
      <point x="1177" y="651"/>
      <point x="1138" y="651" type="curve" smooth="yes"/>
      <point x="1098" y="651"/>
      <point x="1067" y="654"/>
      <point x="1023" y="654" type="curve" smooth="yes"/>
      <point x="1009" y="654"/>
      <point x="992" y="649"/>
      <point x="989" y="640" type="curve" smooth="yes"/>
      <point x="985" y="628"/>
      <point x="1000" y="622"/>
      <point x="1012" y="618" type="curve" smooth="yes"/>
      <point x="1046" y="606"/>
      <point x="1064" y="569"/>
      <point x="982" y="466" type="curve" smooth="yes"/>
      <point x="788" y="226" type="line" smooth="yes"/>
      <point x="779" y="214"/>
      <point x="772" y="211"/>
      <point x="774" y="225" type="curve" smooth="yes"/>
      <point x="830" y="555" type="line" smooth="yes"/>
      <point x="837" y="597"/>
      <point x="858" y="608"/>
      <point x="906" y="618" type="curve" smooth="yes"/>
      <point x="921" y="621"/>
      <point x="939" y="628"/>
      <point x="939" y="640" type="curve" smooth="yes"/>
      <point x="939" y="651"/>
      <point x="929" y="655"/>
      <point x="914" y="655" type="curve" smooth="yes"/>
      <point x="870" y="655"/>
      <point x="785" y="650"/>
      <point x="745" y="650" type="curve" smooth="yes"/>
      <point x="706" y="650"/>
      <point x="637" y="654"/>
      <point x="595" y="654" type="curve" smooth="yes"/>
      <point x="573" y="654"/>
      <point x="561" y="649"/>
      <point x="561" y="638" type="curve" smooth="yes"/>
      <point x="561" y="624"/>
      <point x="576" y="623"/>
      <point x="598" y="615" type="curve" smooth="yes"/>
      <point x="626" y="605"/>
      <point x="635" y="593"/>
      <point x="635" y="564" type="curve" smooth="yes"/>
      <point x="635" y="535"/>
      <point x="613" y="506"/>
      <point x="590" y="478" type="curve" smooth="yes"/>
      <point x="372" y="212" type="line" smooth="yes"/>
      <point x="362" y="200"/>
      <point x="356" y="202"/>
      <point x="358" y="216" type="curve" smooth="yes"/>
      <point x="376" y="329"/>
      <point x="394" y="442"/>
      <point x="412" y="555" type="curve" smooth="yes"/>
      <point x="419" y="597"/>
      <point x="435" y="607"/>
      <point x="483" y="618" type="curve" smooth="yes"/>
      <point x="496" y="621"/>
      <point x="514" y="628"/>
      <point x="518" y="640" type="curve" smooth="yes"/>
      <point x="521" y="649"/>
      <point x="507" y="655"/>
      <point x="496" y="655" type="curve" smooth="yes"/>
      <point x="452" y="655"/>
      <point x="367" y="650"/>
      <point x="327" y="650" type="curve" smooth="yes"/>
      <point x="288" y="650"/>
      <point x="219" y="654"/>
      <point x="177" y="654" type="curve" smooth="yes"/>
      <point x="155" y="654"/>
      <point x="143" y="649"/>
      <point x="143" y="638" type="curve" smooth="yes"/>
      <point x="143" y="624"/>
      <point x="158" y="623"/>
      <point x="180" y="615" type="curve" smooth="yes"/>
      <point x="208" y="605"/>
      <point x="221" y="590"/>
      <point x="217" y="554" type="curve" smooth="yes"/>
      <point x="201" y="410"/>
      <point x="189" y="273"/>
      <point x="158" y="122" type="curve" smooth="yes"/>
      <point x="144" y="53"/>
      <point x="155" y="-18"/>
      <point x="209" y="-18" type="curve" smooth="yes"/>
    </contour>
    <contour>
      <point x="751" y="675" type="move" name="top.cap"/>
    </contour>
    <contour>
      <point x="468" y="-30" type="move" name="bottom.cap"/>
    </contour>
  </outline>
</glyph>
<glyph name="X" format="1">
  <advance width="730"/>
  <unicode hex="0058"/>
  <note>
    X
  </note>
  <outline>
    <contour>
      <point x="40" y="-7"/>
      <point x="68" y="0"/>
      <point x="107" y="0" type="curve" smooth="yes"/>
      <point x="147" y="0"/>
      <point x="168" y="-4"/>
      <point x="212" y="-4" type="curve" smooth="yes"/>
      <point x="226" y="-4"/>
      <point x="241" y="1"/>
      <point x="241" y="10" type="curve" smooth="yes"/>
      <point x="241" y="22"/>
      <point x="224" y="29"/>
      <point x="211" y="32" type="curve" smooth="yes"/>
      <point x="167" y="42"/>
      <point x="149" y="61"/>
      <point x="175" y="96" type="curve" smooth="yes"/>
      <point x="302" y="269" type="line" smooth="yes"/>
      <point x="312" y="282"/>
      <point x="326" y="283"/>
      <point x="331" y="266" type="curve" smooth="yes"/>
      <point x="379" y="94" type="line" smooth="yes"/>
      <point x="389" y="59"/>
      <point x="370" y="46"/>
      <point x="327" y="35" type="curve" smooth="yes"/>
      <point x="315" y="32"/>
      <point x="299" y="25"/>
      <point x="299" y="13" type="curve" smooth="yes"/>
      <point x="299" y="4"/>
      <point x="315" y="-2"/>
      <point x="326" y="-2" type="curve" smooth="yes"/>
      <point x="368" y="-2"/>
      <point x="408" y="1"/>
      <point x="448" y="1" type="curve" smooth="yes"/>
      <point x="515" y="1"/>
      <point x="552" y="-5"/>
      <point x="637" y="-5" type="curve" smooth="yes"/>
      <point x="651" y="-5"/>
      <point x="662" y="0"/>
      <point x="662" y="10" type="curve" smooth="yes"/>
      <point x="662" y="23"/>
      <point x="638" y="33"/>
      <point x="626" y="36" type="curve" smooth="yes"/>
      <point x="603" y="42"/>
      <point x="571" y="62"/>
      <point x="561" y="92" type="curve" smooth="yes"/>
      <point x="497" y="289" type="line" smooth="yes"/>
      <point x="487" y="319"/>
      <point x="493" y="335"/>
      <point x="511" y="356" type="curve" smooth="yes"/>
      <point x="693" y="568" type="line" smooth="yes"/>
      <point x="714" y="592"/>
      <point x="753" y="611"/>
      <point x="781" y="620" type="curve" smooth="yes"/>
      <point x="793" y="624"/>
      <point x="810" y="627"/>
      <point x="810" y="640" type="curve" smooth="yes"/>
      <point x="810" y="653"/>
      <point x="792" y="657"/>
      <point x="777" y="657" type="curve" smooth="yes"/>
      <point x="735" y="657"/>
      <point x="707" y="650"/>
      <point x="668" y="650" type="curve" smooth="yes"/>
      <point x="637" y="650"/>
      <point x="605" y="654"/>
      <point x="575" y="654" type="curve" smooth="yes"/>
      <point x="561" y="654"/>
      <point x="546" y="649"/>
      <point x="546" y="640" type="curve" smooth="yes"/>
      <point x="546" y="628"/>
      <point x="563" y="620"/>
      <point x="576" y="618" type="curve" smooth="yes"/>
      <point x="618" y="612"/>
      <point x="619" y="580"/>
      <point x="600" y="554" type="curve" smooth="yes"/>
      <point x="487" y="399" type="line" smooth="yes"/>
      <point x="477" y="386"/>
      <point x="463" y="385"/>
      <point x="458" y="402" type="curve" smooth="yes"/>
      <point x="417" y="548" type="line" smooth="yes"/>
      <point x="406" y="588"/>
      <point x="427" y="609"/>
      <point x="465" y="618" type="curve" smooth="yes"/>
      <point x="477" y="621"/>
      <point x="493" y="628"/>
      <point x="493" y="640" type="curve" smooth="yes"/>
      <point x="493" y="649"/>
      <point x="477" y="655"/>
      <point x="466" y="655" type="curve" smooth="yes"/>
      <point x="417" y="655"/>
      <point x="374" y="648"/>
      <point x="327" y="648" type="curve" smooth="yes"/>
      <point x="269" y="648"/>
      <point x="224" y="654"/>
      <point x="157" y="654" type="curve" smooth="yes"/>
      <point x="147" y="654"/>
      <point x="138" y="649"/>
      <point x="138" y="639" type="curve" smooth="yes"/>
      <point x="138" y="626"/>
      <point x="147" y="619"/>
      <point x="160" y="618" type="curve" smooth="yes"/>
      <point x="195" y="615"/>
      <point x="223" y="596"/>
      <point x="236" y="554" type="curve" smooth="yes"/>
      <point x="289" y="382" type="line" smooth="yes"/>
      <point x="299" y="351"/>
      <point x="294" y="337"/>
      <point x="275" y="315" type="curve" smooth="yes"/>
      <point x="75" y="79" type="line" smooth="yes"/>
      <point x="54" y="55"/>
      <point x="22" y="39"/>
      <point x="-6" y="30" type="curve" smooth="yes"/>
      <point x="-18" y="26"/>
      <point x="-35" y="23"/>
      <point x="-35" y="10" type="curve" smooth="yes"/>
      <point x="-35" y="-3"/>
      <point x="-17" y="-7"/>
      <point x="-2" y="-7" type="curve" smooth="yes"/>
    </contour>
    <contour>
      <point x="517" y="675" type="move" name="top.cap"/>
    </contour>
    <contour>
      <point x="238" y="-30" type="move" name="bottom.cap"/>
    </contour>
  </outline>
</glyph>
<glyph name="Y" format="1">
  <advance width="669"/>
  <unicode hex="0059"/>
  <note>
    Y
  </note>
  <outline>
    <contour>
      <point x="163" y="-6"/>
      <point x="232" y="3"/>
      <point x="272" y="3" type="curve" smooth="yes"/>
      <point x="311" y="3"/>
      <point x="384" y="-5"/>
      <point x="426" y="-5" type="curve" smooth="yes"/>
      <point x="441" y="-5"/>
      <point x="454" y="2"/>
      <point x="457" y="12" type="curve" smooth="yes"/>
      <point x="461" y="25"/>
      <point x="448" y="29"/>
      <point x="434" y="33" type="curve" smooth="yes"/>
      <point x="387" y="47"/>
      <point x="377" y="60"/>
      <point x="393" y="111" type="curve" smooth="yes"/>
      <point x="437" y="254" type="line" smooth="yes"/>
      <point x="450" y="295"/>
      <point x="468" y="327"/>
      <point x="492" y="353" type="curve" smooth="yes"/>
      <point x="554" y="421"/>
      <point x="615" y="487"/>
      <point x="675" y="557" type="curve" smooth="yes"/>
      <point x="699" y="585"/>
      <point x="737" y="609"/>
      <point x="780" y="620" type="curve"/>
      <point x="793" y="624"/>
      <point x="808" y="627"/>
      <point x="812" y="640" type="curve" smooth="yes"/>
      <point x="816" y="653"/>
      <point x="803" y="657"/>
      <point x="788" y="657" type="curve" smooth="yes"/>
      <point x="748" y="657"/>
      <point x="717" y="649"/>
      <point x="676" y="649" type="curve" smooth="yes"/>
      <point x="638" y="649"/>
      <point x="609" y="654"/>
      <point x="569" y="654" type="curve" smooth="yes"/>
      <point x="555" y="654"/>
      <point x="538" y="649"/>
      <point x="535" y="640" type="curve" smooth="yes"/>
      <point x="531" y="628"/>
      <point x="546" y="619"/>
      <point x="559" y="618" type="curve" smooth="yes"/>
      <point x="614" y="614"/>
      <point x="614" y="580"/>
      <point x="580" y="539" type="curve" smooth="yes"/>
      <point x="532" y="480"/>
      <point x="479" y="414"/>
      <point x="434" y="360" type="curve" smooth="yes"/>
      <point x="424" y="348"/>
      <point x="418" y="343"/>
      <point x="413" y="343" type="curve" smooth="yes"/>
      <point x="408" y="343"/>
      <point x="403" y="346"/>
      <point x="399" y="366" type="curve" smooth="yes"/>
      <point x="365" y="543" type="line" smooth="yes"/>
      <point x="357" y="584"/>
      <point x="368" y="603"/>
      <point x="434" y="618" type="curve" smooth="yes"/>
      <point x="446" y="621"/>
      <point x="465" y="628"/>
      <point x="468" y="640" type="curve" smooth="yes"/>
      <point x="470" y="649"/>
      <point x="457" y="655"/>
      <point x="446" y="655" type="curve" smooth="yes"/>
      <point x="396" y="655"/>
      <point x="355" y="648"/>
      <point x="316" y="648" type="curve" smooth="yes"/>
      <point x="256" y="648"/>
      <point x="219" y="654"/>
      <point x="156" y="654" type="curve" smooth="yes"/>
      <point x="146" y="654"/>
      <point x="135" y="649"/>
      <point x="132" y="639" type="curve" smooth="yes"/>
      <point x="128" y="626"/>
      <point x="137" y="622"/>
      <point x="148" y="618" type="curve"/>
      <point x="184" y="607"/>
      <point x="195" y="582"/>
      <point x="204" y="554" type="curve" smooth="yes"/>
      <point x="265" y="353" type="line" smooth="yes"/>
      <point x="276" y="314"/>
      <point x="277" y="286"/>
      <point x="264" y="246" type="curve" smooth="yes"/>
      <point x="222" y="110" type="line" smooth="yes"/>
      <point x="210" y="69"/>
      <point x="187" y="43"/>
      <point x="132" y="33" type="curve" smooth="yes"/>
      <point x="117" y="30"/>
      <point x="100" y="23"/>
      <point x="97" y="11" type="curve" smooth="yes"/>
      <point x="94" y="2"/>
      <point x="102" y="-6"/>
      <point x="119" y="-6" type="curve" smooth="yes"/>
    </contour>
    <contour>
      <point x="507" y="675" type="move" name="top.cap"/>
    </contour>
    <contour>
      <point x="288" y="-30" type="move" name="bottom.cap"/>
    </contour>
  </outline>
</glyph>
<glyph name="Z" format="1">
  <advance width="642"/>
  <unicode hex="005A"/>
  <note>
    Z
  </note>
  <outline>
    <contour>
      <point x="518" y="-4"/>
      <point x="530" y="2"/>
      <point x="538" y="16" type="curve" smooth="yes"/>
      <point x="566" y="64"/>
      <point x="604" y="124"/>
      <point x="616" y="160" type="curve" smooth="yes"/>
      <point x="619" y="169"/>
      <point x="613" y="175"/>
      <point x="605" y="175" type="curve" smooth="yes"/>
      <point x="597" y="175"/>
      <point x="591" y="173"/>
      <point x="583" y="163" type="curve"/>
      <point x="552" y="121"/>
      <point x="522" y="95"/>
      <point x="485" y="75" type="curve" smooth="yes"/>
      <point x="446" y="55"/>
      <point x="403" y="46"/>
      <point x="341" y="45" type="curve" smooth="yes"/>
      <point x="297" y="44"/>
      <point x="239" y="43"/>
      <point x="216" y="43" type="curve" smooth="yes"/>
      <point x="195" y="43"/>
      <point x="196" y="53"/>
      <point x="210" y="69" type="curve" smooth="yes"/>
      <point x="332" y="208"/>
      <point x="476" y="382"/>
      <point x="594" y="516" type="curve" smooth="yes"/>
      <point x="694" y="630" type="line" smooth="yes"/>
      <point x="699" y="635"/>
      <point x="694" y="655"/>
      <point x="684" y="655" type="curve" smooth="yes"/>
      <point x="640" y="655"/>
      <point x="538" y="650"/>
      <point x="482" y="650" type="curve" smooth="yes"/>
      <point x="443" y="650"/>
      <point x="418" y="650"/>
      <point x="379" y="650" type="curve" smooth="yes"/>
      <point x="312" y="650"/>
      <point x="259" y="670"/>
      <point x="217" y="670" type="curve" smooth="yes"/>
      <point x="201" y="670"/>
      <point x="194" y="662"/>
      <point x="185" y="641" type="curve" smooth="yes"/>
      <point x="171" y="608"/>
      <point x="161" y="576"/>
      <point x="137" y="533" type="curve" smooth="yes"/>
      <point x="132" y="524"/>
      <point x="129" y="514"/>
      <point x="127" y="506" type="curve" smooth="yes"/>
      <point x="125" y="497"/>
      <point x="125" y="488"/>
      <point x="137" y="488" type="curve" smooth="yes"/>
      <point x="158" y="488"/>
      <point x="169" y="506"/>
      <point x="183" y="523" type="curve" smooth="yes"/>
      <point x="230" y="580"/>
      <point x="278" y="601"/>
      <point x="333" y="609" type="curve" smooth="yes"/>
      <point x="354" y="612"/>
      <point x="424" y="615"/>
      <point x="448" y="615" type="curve" smooth="yes"/>
      <point x="467" y="615"/>
      <point x="463" y="603"/>
      <point x="455" y="594" type="curve" smooth="yes"/>
      <point x="317" y="438"/>
      <point x="179" y="272"/>
      <point x="47" y="122" type="curve" smooth="yes"/>
      <point x="19" y="91"/>
      <point x="-8" y="58"/>
      <point x="-35" y="25" type="curve" smooth="yes"/>
      <point x="-40" y="19"/>
      <point x="-44" y="-8"/>
      <point x="-30" y="-7" type="curve" smooth="yes"/>
      <point x="32" y="-3"/>
      <point x="97" y="1"/>
      <point x="217" y="1" type="curve" smooth="yes"/>
      <point x="363" y="0"/>
      <point x="493" y="-4"/>
      <point x="503" y="-4" type="curve" smooth="yes"/>
    </contour>
    <contour>
      <point x="460" y="675" type="move" name="top.cap"/>
    </contour>
    <contour>
      <point x="263" y="-30" type="move" name="bottom.cap"/>
    </contour>
  </outline>
</glyph>
<glyph name="backslash" format="1">
  <advance width="395"/>
  <unicode hex="005C"/>
  <note>
    backslash
  </note>
  <outline>
    <contour>
      <point x="289" y="-63"/>
      <point x="302" y="-53"/>
      <point x="301" y="-43" type="curve" smooth="yes"/>
      <point x="214" y="645" type="line" smooth="yes"/>
      <point x="211" y="664"/>
      <point x="196" y="668"/>
      <point x="174" y="668" type="curve" smooth="yes"/>
      <point x="156" y="668"/>
      <point x="144" y="655"/>
      <point x="145" y="646" type="curve" smooth="yes"/>
      <point x="233" y="-42" type="line" smooth="yes"/>
      <point x="235" y="-60"/>
      <point x="255" y="-63"/>
      <point x="274" y="-63" type="curve" smooth="yes"/>
    </contour>
  </outline>
</glyph>
<glyph name="underscore" format="1">
  <advance width="609"/>
  <unicode hex="005F"/>
  <note>
    underscore
  </note>
  <outline>
    <contour>
      <point x="-80" y="-127" type="line" smooth="yes"/>
      <point x="-101" y="-127"/>
      <point x="-119" y="-162"/>
      <point x="-119" y="-174" type="curve" smooth="yes"/>
      <point x="-119" y="-180"/>
      <point x="-115" y="-188"/>
      <point x="-106" y="-188" type="curve" smooth="yes"/>
      <point x="455" y="-188" type="line" smooth="yes"/>
      <point x="474" y="-188"/>
      <point x="496" y="-162"/>
      <point x="496" y="-145" type="curve" smooth="yes"/>
      <point x="496" y="-136"/>
      <point x="489" y="-127"/>
      <point x="475" y="-127" type="curve" smooth="yes"/>
    </contour>
  </outline>
</glyph>
<glyph name="a" format="1">
  <advance width="534"/>
  <unicode hex="0061"/>
  <note>
    a
  </note>
  <outline>
    <contour>
      <point x="89" y="-14"/>
      <point x="160" y="33"/>
      <point x="263" y="151" type="curve" smooth="yes"/>
      <point x="270" y="159"/>
      <point x="273" y="156"/>
      <point x="269" y="146" type="curve" smooth="yes"/>
      <point x="263" y="130"/>
      <point x="251" y="100"/>
      <point x="237" y="67" type="curve" smooth="yes"/>
      <point x="233" y="58"/>
      <point x="232" y="50"/>
      <point x="232" y="44" type="curve" smooth="yes"/>
      <point x="232" y="19"/>
      <point x="257" y="-14"/>
      <point x="291" y="-14" type="curve" smooth="yes"/>
      <point x="360" y="-14"/>
      <point x="502" y="98"/>
      <point x="502" y="147" type="curve" smooth="yes"/>
      <point x="502" y="151"/>
      <point x="500" y="164"/>
      <point x="489" y="164" type="curve" smooth="yes"/>
      <point x="487" y="164"/>
      <point x="486" y="162"/>
      <point x="485" y="161" type="curve" smooth="yes"/>
      <point x="457" y="137"/>
      <point x="425" y="105"/>
      <point x="409" y="105" type="curve" smooth="yes"/>
      <point x="398" y="105"/>
      <point x="394" y="114"/>
      <point x="399" y="129" type="curve" smooth="yes"/>
      <point x="490" y="392" type="line" smooth="yes"/>
      <point x="491" y="394"/>
      <point x="491" y="397"/>
      <point x="491" y="399" type="curve" smooth="yes"/>
      <point x="490" y="425"/>
      <point x="435" y="450"/>
      <point x="400" y="449" type="curve" smooth="yes"/>
      <point x="387" y="449"/>
      <point x="376" y="445"/>
      <point x="373" y="437" type="curve" smooth="yes"/>
      <point x="368" y="425"/>
      <point x="364" y="414"/>
      <point x="360" y="403" type="curve" smooth="yes"/>
      <point x="359" y="399"/>
      <point x="358" y="396"/>
      <point x="354" y="396" type="curve" smooth="yes"/>
      <point x="351" y="396"/>
      <point x="348" y="400"/>
      <point x="345" y="403" type="curve" smooth="yes"/>
      <point x="324" y="423"/>
      <point x="298" y="443"/>
      <point x="270" y="437" type="curve" smooth="yes"/>
      <point x="247" y="432"/>
      <point x="199" y="393"/>
      <point x="148" y="339" type="curve" smooth="yes"/>
      <point x="63" y="249"/>
      <point x="-31" y="116"/>
      <point x="-31" y="30" type="curve" smooth="yes"/>
      <point x="-31" y="5"/>
      <point x="-2" y="-14"/>
      <point x="20" y="-14" type="curve" smooth="yes"/>
    </contour>
    <contour>
      <point x="139" y="106"/>
      <point x="131" y="119"/>
      <point x="131" y="130" type="curve" smooth="yes"/>
      <point x="131" y="155"/>
      <point x="171" y="255"/>
      <point x="196" y="293" type="curve" smooth="yes"/>
      <point x="209" y="313"/>
      <point x="219" y="329"/>
      <point x="245" y="329" type="curve" smooth="yes"/>
      <point x="264" y="329"/>
      <point x="310" y="302"/>
      <point x="310" y="287" type="curve" smooth="yes"/>
      <point x="310" y="274"/>
      <point x="278" y="228"/>
      <point x="262" y="208" type="curve" smooth="yes"/>
      <point x="219" y="153"/>
      <point x="165" y="106"/>
      <point x="154" y="106" type="curve" smooth="yes"/>
    </contour>
    <contour>
      <point x="309" y="440" type="move" name="top"/>
    </contour>
  </outline>
</glyph>
<glyph name="b" format="1">
  <advance width="533"/>
  <unicode hex="0062"/>
  <note>
    b
  </note>
  <outline>
    <contour>
      <point x="343" y="-14"/>
      <point x="536" y="184"/>
      <point x="536" y="351" type="curve" smooth="yes"/>
      <point x="536" y="398"/>
      <point x="496" y="437"/>
      <point x="446" y="437" type="curve" smooth="yes"/>
      <point x="383" y="437"/>
      <point x="300" y="372"/>
      <point x="223" y="262" type="curve" smooth="yes"/>
      <point x="218" y="253"/>
      <point x="214" y="255"/>
      <point x="217" y="264" type="curve" smooth="yes"/>
      <point x="290" y="499"/>
      <point x="316" y="570"/>
      <point x="354" y="650" type="curve" smooth="yes"/>
      <point x="361" y="664"/>
      <point x="364" y="676"/>
      <point x="364" y="693" type="curve" smooth="yes"/>
      <point x="364" y="703"/>
      <point x="355" y="707"/>
      <point x="336" y="707" type="curve" smooth="yes"/>
      <point x="320" y="707"/>
      <point x="218" y="681"/>
      <point x="162" y="662" type="curve" smooth="yes"/>
      <point x="139" y="654"/>
      <point x="133" y="649"/>
      <point x="133" y="640" type="curve" smooth="yes"/>
      <point x="133" y="634"/>
      <point x="138" y="630"/>
      <point x="153" y="624" type="curve" smooth="yes"/>
      <point x="180" y="614"/>
      <point x="189" y="606"/>
      <point x="189" y="592" type="curve" smooth="yes"/>
      <point x="189" y="577"/>
      <point x="187" y="567"/>
      <point x="176" y="531" type="curve" smooth="yes"/>
      <point x="70" y="188" type="line" smooth="yes"/>
      <point x="58" y="152"/>
      <point x="53" y="124"/>
      <point x="53" y="99" type="curve" smooth="yes"/>
      <point x="53" y="27"/>
      <point x="99" y="-14"/>
      <point x="180" y="-14" type="curve" smooth="yes"/>
    </contour>
    <contour>
      <point x="188" y="26"/>
      <point x="170" y="62"/>
      <point x="170" y="88" type="curve" smooth="yes"/>
      <point x="170" y="118"/>
      <point x="199" y="180"/>
      <point x="247" y="247" type="curve" smooth="yes"/>
      <point x="297" y="316"/>
      <point x="343" y="350"/>
      <point x="369" y="350" type="curve" smooth="yes"/>
      <point x="385" y="350"/>
      <point x="395" y="339"/>
      <point x="395" y="322" type="curve" smooth="yes"/>
      <point x="395" y="284"/>
      <point x="352" y="184"/>
      <point x="309" y="115" type="curve" smooth="yes"/>
      <point x="280" y="68"/>
      <point x="234" y="26"/>
      <point x="211" y="26" type="curve" smooth="yes"/>
    </contour>
    <contour>
      <point x="196" y="-30" type="move" name="bottom"/>
    </contour>
  </outline>
</glyph>
<glyph name="c" format="1">
  <advance width="378"/>
  <unicode hex="0063"/>
  <note>
    c
  </note>
  <outline>
    <contour>
      <point x="237" y="-14"/>
      <point x="338" y="80"/>
      <point x="338" y="156" type="curve" smooth="yes"/>
      <point x="338" y="162"/>
      <point x="334" y="167"/>
      <point x="328" y="167" type="curve" smooth="yes"/>
      <point x="322" y="167"/>
      <point x="314" y="162"/>
      <point x="309" y="155" type="curve" smooth="yes"/>
      <point x="287" y="126"/>
      <point x="253" y="108"/>
      <point x="218" y="108" type="curve" smooth="yes"/>
      <point x="171" y="108"/>
      <point x="142" y="140"/>
      <point x="143" y="191" type="curve" smooth="yes"/>
      <point x="145" y="292"/>
      <point x="197" y="385"/>
      <point x="252" y="385" type="curve" smooth="yes"/>
      <point x="268" y="385"/>
      <point x="287" y="370"/>
      <point x="301" y="345" type="curve" smooth="yes"/>
      <point x="317" y="318"/>
      <point x="322" y="313"/>
      <point x="333" y="313" type="curve" smooth="yes"/>
      <point x="353" y="313"/>
      <point x="376" y="344"/>
      <point x="376" y="371" type="curve" smooth="yes"/>
      <point x="376" y="409"/>
      <point x="337" y="437"/>
      <point x="283" y="437" type="curve" smooth="yes"/>
      <point x="136" y="437"/>
      <point x="14" y="300"/>
      <point x="10" y="129" type="curve" smooth="yes"/>
      <point x="8" y="51"/>
      <point x="73" y="-14"/>
      <point x="155" y="-14" type="curve" smooth="yes"/>
    </contour>
    <contour>
      <point x="265" y="440" type="move" name="top"/>
    </contour>
    <contour>
      <point x="156" y="-30" type="move" name="bottom"/>
    </contour>
  </outline>
</glyph>
<glyph name="d" format="1">
  <advance width="547"/>
  <unicode hex="0064"/>
  <note>
    d
  </note>
  <outline>
    <contour>
      <point x="97" y="-14"/>
      <point x="171" y="33"/>
      <point x="271" y="151" type="curve" smooth="yes"/>
      <point x="278" y="159"/>
      <point x="281" y="156"/>
      <point x="277" y="146" type="curve" smooth="yes"/>
      <point x="271" y="130"/>
      <point x="259" y="100"/>
      <point x="245" y="67" type="curve" smooth="yes"/>
      <point x="241" y="58"/>
      <point x="240" y="50"/>
      <point x="240" y="44" type="curve" smooth="yes"/>
      <point x="240" y="19"/>
      <point x="265" y="-14"/>
      <point x="299" y="-14" type="curve" smooth="yes"/>
      <point x="368" y="-14"/>
      <point x="507" y="95"/>
      <point x="507" y="144" type="curve" smooth="yes"/>
      <point x="507" y="148"/>
      <point x="503" y="154"/>
      <point x="495" y="154" type="curve" smooth="yes"/>
      <point x="493" y="154"/>
      <point x="492" y="152"/>
      <point x="491" y="151" type="curve" smooth="yes"/>
      <point x="465" y="125"/>
      <point x="433" y="97"/>
      <point x="415" y="97" type="curve" smooth="yes"/>
      <point x="404" y="97"/>
      <point x="400" y="106"/>
      <point x="405" y="121" type="curve" smooth="yes"/>
      <point x="584" y="650" type="line" smooth="yes"/>
      <point x="589" y="664"/>
      <point x="594" y="676"/>
      <point x="594" y="693" type="curve" smooth="yes"/>
      <point x="594" y="707"/>
      <point x="576" y="707"/>
      <point x="566" y="707" type="curve" smooth="yes"/>
      <point x="543" y="707"/>
      <point x="431" y="673"/>
      <point x="398" y="662" type="curve" smooth="yes"/>
      <point x="372" y="653"/>
      <point x="369" y="648"/>
      <point x="369" y="640" type="curve" smooth="yes"/>
      <point x="369" y="632"/>
      <point x="379" y="628"/>
      <point x="389" y="624" type="curve" smooth="yes"/>
      <point x="407" y="617"/>
      <point x="431" y="608"/>
      <point x="431" y="590" type="curve" smooth="yes"/>
      <point x="431" y="569"/>
      <point x="419" y="551"/>
      <point x="412" y="531" type="curve" smooth="yes"/>
      <point x="372" y="415" type="line"/>
      <point x="371" y="411"/>
      <point x="370" y="408"/>
      <point x="366" y="408" type="curve" smooth="yes"/>
      <point x="363" y="408"/>
      <point x="360" y="410"/>
      <point x="354" y="413" type="curve" smooth="yes"/>
      <point x="340" y="420"/>
      <point x="316" y="437"/>
      <point x="285" y="437" type="curve" smooth="yes"/>
      <point x="234" y="437"/>
      <point x="173" y="396"/>
      <point x="118" y="339" type="curve" smooth="yes"/>
      <point x="40" y="258"/>
      <point x="-23" y="142"/>
      <point x="-23" y="61" type="curve" smooth="yes"/>
      <point x="-23" y="13"/>
      <point x="8" y="-14"/>
      <point x="49" y="-14" type="curve" smooth="yes"/>
    </contour>
    <contour>
      <point x="155" y="122"/>
      <point x="151" y="130"/>
      <point x="151" y="150" type="curve" smooth="yes"/>
      <point x="151" y="244"/>
      <point x="254" y="373"/>
      <point x="295" y="373" type="curve" smooth="yes"/>
      <point x="316" y="373"/>
      <point x="326" y="358"/>
      <point x="326" y="330" type="curve" smooth="yes"/>
      <point x="326" y="266"/>
      <point x="229" y="122"/>
      <point x="174" y="122" type="curve" smooth="yes"/>
    </contour>
  </outline>
</glyph>
<glyph name="e" format="1">
  <advance width="389"/>
  <unicode hex="0065"/>
  <note>
    e
  </note>
  <outline>
    <contour>
      <point x="242" y="-15"/>
      <point x="307" y="57"/>
      <point x="345" y="131" type="curve" smooth="yes"/>
      <point x="348" y="135"/>
      <point x="348" y="142"/>
      <point x="348" y="146" type="curve" smooth="yes"/>
      <point x="348" y="152"/>
      <point x="346" y="157"/>
      <point x="339" y="157" type="curve" smooth="yes"/>
      <point x="334" y="157"/>
      <point x="329" y="153"/>
      <point x="322" y="145" type="curve" smooth="yes"/>
      <point x="290" y="112"/>
      <point x="261" y="93"/>
      <point x="226" y="93" type="curve" smooth="yes"/>
      <point x="171" y="93"/>
      <point x="144" y="136"/>
      <point x="145" y="183" type="curve" smooth="yes"/>
      <point x="146" y="189"/>
      <point x="146" y="195"/>
      <point x="148" y="201" type="curve" smooth="yes"/>
      <point x="149" y="206"/>
      <point x="151" y="209"/>
      <point x="157" y="210" type="curve" smooth="yes"/>
      <point x="254" y="231"/>
      <point x="394" y="266"/>
      <point x="394" y="359" type="curve" smooth="yes"/>
      <point x="394" y="400"/>
      <point x="360" y="437"/>
      <point x="276" y="437" type="curve" smooth="yes"/>
      <point x="144" y="437"/>
      <point x="5" y="283"/>
      <point x="5" y="111" type="curve" smooth="yes"/>
      <point x="5" y="39"/>
      <point x="86" y="-15"/>
      <point x="142" y="-15" type="curve" smooth="yes"/>
    </contour>
    <contour>
      <point x="160" y="247"/>
      <point x="156" y="248"/>
      <point x="157" y="254" type="curve" smooth="yes"/>
      <point x="170" y="334"/>
      <point x="215" y="399"/>
      <point x="260" y="399" type="curve" smooth="yes"/>
      <point x="280" y="399"/>
      <point x="289" y="380"/>
      <point x="288" y="366" type="curve" smooth="yes"/>
      <point x="282" y="291"/>
      <point x="226" y="266"/>
      <point x="164" y="248" type="curve" smooth="yes"/>
    </contour>
    <contour>
      <point x="280" y="440" type="move" name="top"/>
    </contour>
    <contour>
      <point x="142" y="-30" type="move" name="bottom"/>
    </contour>
  </outline>
</glyph>
<glyph name="f" format="1">
  <advance width="359"/>
  <unicode hex="0066"/>
  <note>
    f
  </note>
  <outline>
    <contour>
      <point x="43" y="-291"/>
      <point x="168" y="-167"/>
      <point x="208" y="17" type="curve" smooth="yes"/>
      <point x="279" y="340" type="line" smooth="yes"/>
      <point x="283" y="358"/>
      <point x="294" y="365"/>
      <point x="320" y="366" type="curve" smooth="yes"/>
      <point x="399" y="369" type="line"/>
      <point x="406" y="369"/>
      <point x="425" y="399"/>
      <point x="425" y="410" type="curve" smooth="yes"/>
      <point x="425" y="418"/>
      <point x="420" y="425"/>
      <point x="414" y="425" type="curve" smooth="yes"/>
      <point x="380" y="425"/>
      <point x="351" y="422"/>
      <point x="317" y="422" type="curve" smooth="yes"/>
      <point x="308" y="422"/>
      <point x="300" y="424"/>
      <point x="300" y="438" type="curve" smooth="yes"/>
      <point x="300" y="443"/>
      <point x="301" y="449"/>
      <point x="302" y="457" type="curve" smooth="yes"/>
      <point x="307" y="499"/>
      <point x="320" y="579"/>
      <point x="349" y="626" type="curve" smooth="yes"/>
      <point x="364" y="649"/>
      <point x="382" y="665"/>
      <point x="405" y="665" type="curve" smooth="yes"/>
      <point x="457" y="665"/>
      <point x="481" y="615"/>
      <point x="484" y="583" type="curve" smooth="yes"/>
      <point x="486" y="564"/>
      <point x="495" y="551"/>
      <point x="510" y="551" type="curve" smooth="yes"/>
      <point x="539" y="551"/>
      <point x="561" y="595"/>
      <point x="561" y="630" type="curve" smooth="yes"/>
      <point x="561" y="692"/>
      <point x="496" y="706"/>
      <point x="432" y="706" type="curve" smooth="yes"/>
      <point x="355" y="706"/>
      <point x="212" y="631"/>
      <point x="153" y="435" type="curve" smooth="yes"/>
      <point x="150" y="425"/>
      <point x="149" y="422"/>
      <point x="142" y="422" type="curve" smooth="yes"/>
      <point x="81" y="419" type="line" smooth="yes"/>
      <point x="57" y="418"/>
      <point x="44" y="393"/>
      <point x="44" y="383" type="curve" smooth="yes"/>
      <point x="44" y="369"/>
      <point x="48" y="364"/>
      <point x="63" y="364" type="curve" smooth="yes"/>
      <point x="122" y="365" type="line" smooth="yes"/>
      <point x="136" y="365"/>
      <point x="139" y="360"/>
      <point x="136" y="347" type="curve"/>
      <point x="28" y="-110" type="line" smooth="yes"/>
      <point x="5" y="-207"/>
      <point x="-10" y="-242"/>
      <point x="-43" y="-242" type="curve" smooth="yes"/>
      <point x="-68" y="-242"/>
      <point x="-84" y="-206"/>
      <point x="-100" y="-185" type="curve" smooth="yes"/>
      <point x="-114" y="-167"/>
      <point x="-127" y="-149"/>
      <point x="-140" y="-149" type="curve" smooth="yes"/>
      <point x="-167" y="-149"/>
      <point x="-194" y="-179"/>
      <point x="-194" y="-215" type="curve" smooth="yes"/>
      <point x="-194" y="-274"/>
      <point x="-130" y="-291"/>
      <point x="-67" y="-291" type="curve" smooth="yes"/>
    </contour>
  </outline>
</glyph>
<glyph name="g" format="1">
  <advance width="480"/>
  <unicode hex="0067"/>
  <note>
    g
  </note>
  <outline>
    <contour>
      <point x="255" y="-290"/>
      <point x="391" y="-208"/>
      <point x="391" y="-128" type="curve" smooth="yes"/>
      <point x="391" y="-100"/>
      <point x="371" y="-73"/>
      <point x="338" y="-51" type="curve" smooth="yes"/>
      <point x="290" y="-19"/>
      <point x="230" y="14"/>
      <point x="191" y="41" type="curve" smooth="yes"/>
      <point x="169" y="56"/>
      <point x="153" y="71"/>
      <point x="153" y="85" type="curve" smooth="yes"/>
      <point x="153" y="89"/>
      <point x="157" y="96"/>
      <point x="163" y="99" type="curve" smooth="yes"/>
      <point x="169" y="102"/>
      <point x="185" y="98"/>
      <point x="199" y="98" type="curve" smooth="yes"/>
      <point x="327" y="98"/>
      <point x="417" y="207"/>
      <point x="417" y="315" type="curve" smooth="yes"/>
      <point x="417" y="324"/>
      <point x="417" y="332"/>
      <point x="415" y="340" type="curve"/>
      <point x="412" y="350"/>
      <point x="419" y="351"/>
      <point x="425" y="351" type="curve" smooth="yes"/>
      <point x="449" y="351"/>
      <point x="473" y="345"/>
      <point x="491" y="345" type="curve" smooth="yes"/>
      <point x="508" y="345"/>
      <point x="520" y="365"/>
      <point x="520" y="388" type="curve" smooth="yes"/>
      <point x="520" y="410"/>
      <point x="502" y="416"/>
      <point x="493" y="416" type="curve" smooth="yes"/>
      <point x="466" y="416"/>
      <point x="437" y="400"/>
      <point x="400" y="400" type="curve" smooth="yes"/>
      <point x="389" y="400"/>
      <point x="369" y="410"/>
      <point x="346" y="419" type="curve" smooth="yes"/>
      <point x="324" y="428"/>
      <point x="298" y="437"/>
      <point x="274" y="437" type="curve" smooth="yes"/>
      <point x="118" y="437"/>
      <point x="42" y="311"/>
      <point x="42" y="228" type="curve" smooth="yes"/>
      <point x="42" y="173"/>
      <point x="89" y="133"/>
      <point x="124" y="117" type="curve" smooth="yes"/>
      <point x="130" y="114"/>
      <point x="134" y="112"/>
      <point x="134" y="108" type="curve" smooth="yes"/>
      <point x="134" y="105"/>
      <point x="129" y="100"/>
      <point x="120" y="95" type="curve" smooth="yes"/>
      <point x="72" y="70"/>
      <point x="33" y="49"/>
      <point x="33" y="17" type="curve" smooth="yes"/>
      <point x="33" y="-11"/>
      <point x="61" y="-40"/>
      <point x="88" y="-53" type="curve" smooth="yes"/>
      <point x="94" y="-56"/>
      <point x="93" y="-60"/>
      <point x="86" y="-62" type="curve" smooth="yes"/>
      <point x="-22" y="-90"/>
      <point x="-103" y="-129"/>
      <point x="-103" y="-187" type="curve" smooth="yes"/>
      <point x="-103" y="-245"/>
      <point x="-2" y="-290"/>
      <point x="123" y="-290" type="curve" smooth="yes"/>
    </contour>
    <contour>
      <point x="60" y="-253"/>
      <point x="19" y="-214"/>
      <point x="19" y="-172" type="curve" smooth="yes"/>
      <point x="19" y="-125"/>
      <point x="48" y="-104"/>
      <point x="109" y="-87" type="curve" smooth="yes"/>
      <point x="116" y="-85"/>
      <point x="120" y="-83"/>
      <point x="127" y="-83" type="curve" smooth="yes"/>
      <point x="130" y="-83"/>
      <point x="136" y="-84"/>
      <point x="140" y="-86" type="curve" smooth="yes"/>
      <point x="165" y="-98"/>
      <point x="214" y="-127"/>
      <point x="245" y="-148" type="curve" smooth="yes"/>
      <point x="260" y="-158"/>
      <point x="271" y="-175"/>
      <point x="271" y="-188" type="curve" smooth="yes"/>
      <point x="270" y="-226"/>
      <point x="216" y="-253"/>
      <point x="168" y="-253" type="curve" smooth="yes"/>
    </contour>
    <contour>
      <point x="167" y="142"/>
      <point x="159" y="153"/>
      <point x="159" y="183" type="curve" smooth="yes"/>
      <point x="159" y="245"/>
      <point x="238" y="404"/>
      <point x="288" y="404" type="curve" smooth="yes"/>
      <point x="302" y="404"/>
      <point x="313" y="390"/>
      <point x="313" y="364" type="curve" smooth="yes"/>
      <point x="313" y="296"/>
      <point x="236" y="133"/>
      <point x="178" y="141" type="curve" smooth="yes"/>
    </contour>
    <contour>
      <point x="299" y="440" type="move" name="top"/>
    </contour>
  </outline>
</glyph>
<glyph name="h" format="1">
  <advance width="544"/>
  <unicode hex="0068"/>
  <note>
    h
  </note>
  <outline>
    <contour>
      <point x="124" y="-14"/>
      <point x="155" y="18"/>
      <point x="177" y="58" type="curve" smooth="yes"/>
      <point x="247" y="188"/>
      <point x="334" y="351"/>
      <point x="373" y="351" type="curve" smooth="yes"/>
      <point x="389" y="351"/>
      <point x="396" y="337"/>
      <point x="396" y="317" type="curve" smooth="yes"/>
      <point x="396" y="234"/>
      <point x="352" y="47"/>
      <point x="321" y="47" type="curve" smooth="yes"/>
      <point x="308" y="47"/>
      <point x="297" y="58"/>
      <point x="287" y="67" type="curve" smooth="yes"/>
      <point x="276" y="77"/>
      <point x="271" y="87"/>
      <point x="256" y="87" type="curve" smooth="yes"/>
      <point x="238" y="87"/>
      <point x="220" y="66"/>
      <point x="220" y="43" type="curve" smooth="yes"/>
      <point x="220" y="9"/>
      <point x="245" y="-14"/>
      <point x="290" y="-14" type="curve" smooth="yes"/>
      <point x="418" y="-14"/>
      <point x="540" y="157"/>
      <point x="540" y="346" type="curve" smooth="yes"/>
      <point x="540" y="403"/>
      <point x="511" y="437"/>
      <point x="454" y="437" type="curve" smooth="yes"/>
      <point x="371" y="437"/>
      <point x="284" y="330"/>
      <point x="215" y="215" type="curve" smooth="yes"/>
      <point x="210" y="207"/>
      <point x="201" y="207"/>
      <point x="204" y="217" type="curve" smooth="yes"/>
      <point x="356" y="650" type="line" smooth="yes"/>
      <point x="361" y="664"/>
      <point x="366" y="676"/>
      <point x="366" y="693" type="curve" smooth="yes"/>
      <point x="366" y="707"/>
      <point x="348" y="707"/>
      <point x="338" y="707" type="curve" smooth="yes"/>
      <point x="315" y="707"/>
      <point x="203" y="673"/>
      <point x="170" y="662" type="curve" smooth="yes"/>
      <point x="144" y="653"/>
      <point x="141" y="648"/>
      <point x="141" y="640" type="curve" smooth="yes"/>
      <point x="141" y="632"/>
      <point x="151" y="628"/>
      <point x="161" y="624" type="curve" smooth="yes"/>
      <point x="179" y="617"/>
      <point x="203" y="608"/>
      <point x="203" y="590" type="curve" smooth="yes"/>
      <point x="203" y="569"/>
      <point x="191" y="551"/>
      <point x="184" y="531" type="curve" smooth="yes"/>
      <point x="52" y="141" type="line" smooth="yes"/>
      <point x="43" y="113"/>
      <point x="39" y="92"/>
      <point x="39" y="70" type="curve" smooth="yes"/>
      <point x="39" y="18"/>
      <point x="80" y="-14"/>
      <point x="98" y="-14" type="curve" smooth="yes"/>
    </contour>
    <contour>
      <point x="197" y="-30" type="move" name="bottom"/>
    </contour>
  </outline>
</glyph>
<glyph name="i" format="1">
  <advance width="600"/>
  <unicode hex="0069"/>
  <note>
    i
  </note>
  <outline>
    <contour>
      <point x="152" y="-14"/>
      <point x="285" y="97"/>
      <point x="285" y="146" type="curve" smooth="yes"/>
      <point x="285" y="150"/>
      <point x="281" y="156"/>
      <point x="273" y="156" type="curve" smooth="yes"/>
      <point x="271" y="156"/>
      <point x="270" y="154"/>
      <point x="269" y="153" type="curve" smooth="yes"/>
      <point x="243" y="127"/>
      <point x="212" y="97"/>
      <point x="190" y="97" type="curve" smooth="yes"/>
      <point x="185" y="97"/>
      <point x="182" y="102"/>
      <point x="182" y="108" type="curve" smooth="yes"/>
      <point x="182" y="113"/>
      <point x="184" y="121"/>
      <point x="186" y="128" type="curve" smooth="yes"/>
      <point x="268" y="387" type="line" smooth="yes"/>
      <point x="276" y="413"/>
      <point x="236" y="444"/>
      <point x="202" y="433" type="curve" smooth="yes"/>
      <point x="154" y="408"/>
      <point x="25" y="324"/>
      <point x="25" y="300" type="curve" smooth="yes"/>
      <point x="25" y="293"/>
      <point x="31" y="288"/>
      <point x="41" y="288" type="curve" smooth="yes"/>
      <point x="49" y="288"/>
      <point x="74" y="311"/>
      <point x="92" y="311" type="curve" smooth="yes"/>
      <point x="97" y="311"/>
      <point x="101" y="308"/>
      <point x="99" y="302" type="curve" smooth="yes"/>
      <point x="25" y="74" type="line" smooth="yes"/>
      <point x="22" y="65"/>
      <point x="20" y="57"/>
      <point x="20" y="51" type="curve" smooth="yes"/>
      <point x="20" y="22"/>
      <point x="63" y="-14"/>
      <point x="101" y="-14" type="curve" smooth="yes"/>
    </contour>
    <contour>
      <point x="241" y="665"/>
      <point x="202" y="621"/>
      <point x="202" y="573" type="curve" smooth="yes"/>
      <point x="202" y="542"/>
      <point x="226" y="513"/>
      <point x="258" y="513" type="curve" smooth="yes"/>
      <point x="306" y="513"/>
      <point x="346" y="554"/>
      <point x="346" y="600" type="curve" smooth="yes"/>
      <point x="346" y="631"/>
      <point x="326" y="665"/>
      <point x="292" y="665" type="curve" smooth="yes"/>
    </contour>
  </outline>
</glyph>
<glyph name="k" format="1">
  <advance width="549"/>
  <unicode hex="006B"/>
  <note>
    k
  </note>
  <outline>
    <contour>
      <point x="408" y="-14"/>
      <point x="515" y="84"/>
      <point x="515" y="148" type="curve" smooth="yes"/>
      <point x="515" y="153"/>
      <point x="513" y="161"/>
      <point x="507" y="161" type="curve" smooth="yes"/>
      <point x="502" y="161"/>
      <point x="500" y="157"/>
      <point x="494" y="149" type="curve" smooth="yes"/>
      <point x="475" y="123"/>
      <point x="441" y="98"/>
      <point x="422" y="98" type="curve" smooth="yes"/>
      <point x="409" y="98"/>
      <point x="401" y="113"/>
      <point x="396" y="123" type="curve" smooth="yes"/>
      <point x="360" y="202" type="line" smooth="yes"/>
      <point x="356" y="211"/>
      <point x="356" y="219"/>
      <point x="363" y="221" type="curve" smooth="yes"/>
      <point x="445" y="255"/>
      <point x="523" y="319"/>
      <point x="523" y="381" type="curve" smooth="yes"/>
      <point x="523" y="418"/>
      <point x="496" y="437"/>
      <point x="454" y="437" type="curve" smooth="yes"/>
      <point x="367" y="437"/>
      <point x="297" y="375"/>
      <point x="247" y="305" type="curve" smooth="yes"/>
      <point x="242" y="298"/>
      <point x="231" y="298"/>
      <point x="235" y="308" type="curve" smooth="yes"/>
      <point x="356" y="650" type="line" smooth="yes"/>
      <point x="361" y="664"/>
      <point x="366" y="676"/>
      <point x="366" y="693" type="curve" smooth="yes"/>
      <point x="366" y="707"/>
      <point x="348" y="707"/>
      <point x="338" y="707" type="curve" smooth="yes"/>
      <point x="315" y="707"/>
      <point x="203" y="673"/>
      <point x="170" y="662" type="curve" smooth="yes"/>
      <point x="144" y="653"/>
      <point x="141" y="648"/>
      <point x="141" y="640" type="curve" smooth="yes"/>
      <point x="141" y="632"/>
      <point x="151" y="628"/>
      <point x="161" y="624" type="curve" smooth="yes"/>
      <point x="179" y="617"/>
      <point x="186" y="608"/>
      <point x="186" y="590" type="curve" smooth="yes"/>
      <point x="186" y="569"/>
      <point x="179" y="549"/>
      <point x="172" y="529" type="curve" smooth="yes"/>
      <point x="30" y="92" type="line" smooth="yes"/>
      <point x="26" y="81"/>
      <point x="22" y="67"/>
      <point x="22" y="53" type="curve" smooth="yes"/>
      <point x="22" y="16"/>
      <point x="56" y="-5"/>
      <point x="79" y="-5" type="curve" smooth="yes"/>
      <point x="112" y="-5"/>
      <point x="140" y="14"/>
      <point x="148" y="31" type="curve" smooth="yes"/>
      <point x="167" y="75"/>
      <point x="183" y="123"/>
      <point x="202" y="167" type="curve" smooth="yes"/>
      <point x="209" y="184"/>
      <point x="211" y="189"/>
      <point x="219" y="189" type="curve" smooth="yes"/>
      <point x="226" y="189"/>
      <point x="232" y="183"/>
      <point x="238" y="166" type="curve" smooth="yes"/>
      <point x="281" y="36" type="line" smooth="yes"/>
      <point x="292" y="2"/>
      <point x="312" y="-14"/>
      <point x="338" y="-14" type="curve" smooth="yes"/>
    </contour>
    <contour>
      <point x="242" y="213"/>
      <point x="239" y="220"/>
      <point x="239" y="225" type="curve" smooth="yes"/>
      <point x="239" y="249"/>
      <point x="319" y="355"/>
      <point x="364" y="355" type="curve" smooth="yes"/>
      <point x="383" y="355"/>
      <point x="396" y="350"/>
      <point x="396" y="331" type="curve" smooth="yes"/>
      <point x="396" y="291"/>
      <point x="315" y="213"/>
      <point x="248" y="213" type="curve" smooth="yes"/>
    </contour>
    <contour>
      <point x="207" y="-30" type="move" name="bottom"/>
    </contour>
  </outline>
</glyph>
<glyph name="l" format="1">
  <advance width="309"/>
  <unicode hex="006C"/>
  <note>
    l
  </note>
  <outline>
    <contour>
      <point x="132" y="-14"/>
      <point x="271" y="98"/>
      <point x="271" y="147" type="curve" smooth="yes"/>
      <point x="271" y="151"/>
      <point x="269" y="164"/>
      <point x="258" y="164" type="curve" smooth="yes"/>
      <point x="256" y="164"/>
      <point x="255" y="162"/>
      <point x="254" y="161" type="curve" smooth="yes"/>
      <point x="228" y="135"/>
      <point x="192" y="103"/>
      <point x="176" y="103" type="curve" smooth="yes"/>
      <point x="168" y="103"/>
      <point x="164" y="108"/>
      <point x="164" y="116" type="curve" smooth="yes"/>
      <point x="164" y="119"/>
      <point x="165" y="123"/>
      <point x="166" y="127" type="curve" smooth="yes"/>
      <point x="344" y="638" type="line" smooth="yes"/>
      <point x="351" y="657"/>
      <point x="356" y="675"/>
      <point x="359" y="685" type="curve" smooth="yes"/>
      <point x="361" y="691"/>
      <point x="356" y="706"/>
      <point x="348" y="706" type="curve" smooth="yes"/>
      <point x="344" y="706"/>
      <point x="329" y="702"/>
      <point x="323" y="700" type="curve" smooth="yes"/>
      <point x="288" y="688"/>
      <point x="211" y="678"/>
      <point x="156" y="664" type="curve" smooth="yes"/>
      <point x="140" y="660"/>
      <point x="137" y="655"/>
      <point x="135" y="646" type="curve" smooth="yes"/>
      <point x="133" y="636"/>
      <point x="134" y="631"/>
      <point x="156" y="628" type="curve" smooth="yes"/>
      <point x="183" y="624"/>
      <point x="191" y="608"/>
      <point x="174" y="558" type="curve" smooth="yes"/>
      <point x="9" y="67" type="line" smooth="yes"/>
      <point x="6" y="58"/>
      <point x="4" y="50"/>
      <point x="4" y="44" type="curve" smooth="yes"/>
      <point x="4" y="19"/>
      <point x="29" y="-14"/>
      <point x="63" y="-14" type="curve" smooth="yes"/>
    </contour>
    <contour>
      <point x="67" y="-30" type="move" name="bottom"/>
    </contour>
  </outline>
</glyph>
<glyph name="m" format="1">
  <advance width="857"/>
  <unicode hex="006D"/>
  <note>
    m
  </note>
  <outline>
    <contour>
      <point x="150" y="-14"/>
      <point x="171" y="8"/>
      <point x="192" y="48" type="curve" smooth="yes"/>
      <point x="237" y="133"/>
      <point x="283" y="226"/>
      <point x="323" y="283" type="curve" smooth="yes"/>
      <point x="359" y="334"/>
      <point x="386" y="366"/>
      <point x="396" y="366" type="curve" smooth="yes"/>
      <point x="407" y="366"/>
      <point x="411" y="353"/>
      <point x="405" y="338" type="curve"/>
      <point x="306" y="113" type="line" smooth="yes"/>
      <point x="298" y="96"/>
      <point x="298" y="82"/>
      <point x="298" y="74" type="curve" smooth="yes"/>
      <point x="298" y="26"/>
      <point x="346" y="-14"/>
      <point x="368" y="-14" type="curve" smooth="yes"/>
      <point x="394" y="-14"/>
      <point x="423" y="16"/>
      <point x="447" y="56" type="curve" smooth="yes"/>
      <point x="505" y="153"/>
      <point x="552" y="236"/>
      <point x="589" y="296" type="curve" smooth="yes"/>
      <point x="616" y="340"/>
      <point x="643" y="367"/>
      <point x="657" y="367" type="curve" smooth="yes"/>
      <point x="666" y="367"/>
      <point x="668" y="355"/>
      <point x="660" y="336" type="curve" smooth="yes"/>
      <point x="531" y="42" type="line" smooth="yes"/>
      <point x="520" y="17"/>
      <point x="554" y="-14"/>
      <point x="573" y="-14" type="curve" smooth="yes"/>
      <point x="653" y="-14"/>
      <point x="751" y="38"/>
      <point x="811" y="110" type="curve" smooth="yes"/>
      <point x="821" y="122"/>
      <point x="826" y="135"/>
      <point x="826" y="150" type="curve" smooth="yes"/>
      <point x="826" y="157"/>
      <point x="820" y="163"/>
      <point x="816" y="163" type="curve" smooth="yes"/>
      <point x="811" y="163"/>
      <point x="801" y="153"/>
      <point x="793" y="145" type="curve" smooth="yes"/>
      <point x="779" y="131"/>
      <point x="736" y="98"/>
      <point x="723" y="98" type="curve" smooth="yes"/>
      <point x="713" y="98"/>
      <point x="711" y="106"/>
      <point x="719" y="127" type="curve" smooth="yes"/>
      <point x="778" y="276" type="line" smooth="yes"/>
      <point x="808" y="351"/>
      <point x="799" y="437"/>
      <point x="714" y="437" type="curve" smooth="yes"/>
      <point x="626" y="437"/>
      <point x="564" y="330"/>
      <point x="496" y="208" type="curve" smooth="yes"/>
      <point x="491" y="199"/>
      <point x="476" y="200"/>
      <point x="481" y="210" type="curve" smooth="yes"/>
      <point x="514" y="276" type="line" smooth="yes"/>
      <point x="551" y="350"/>
      <point x="538" y="437"/>
      <point x="453" y="437" type="curve" smooth="yes"/>
      <point x="365" y="437"/>
      <point x="305" y="330"/>
      <point x="237" y="208" type="curve" smooth="yes"/>
      <point x="232" y="199"/>
      <point x="221" y="200"/>
      <point x="225" y="210" type="curve" smooth="yes"/>
      <point x="278" y="338" type="line" smooth="yes"/>
      <point x="298" y="386"/>
      <point x="275" y="437"/>
      <point x="220" y="437" type="curve" smooth="yes"/>
      <point x="153" y="437"/>
      <point x="120" y="411"/>
      <point x="85" y="380" type="curve" smooth="yes"/>
      <point x="70" y="367"/>
      <point x="42" y="330"/>
      <point x="43" y="315" type="curve" smooth="yes"/>
      <point x="44" y="303"/>
      <point x="59" y="303"/>
      <point x="65" y="310" type="curve" smooth="yes"/>
      <point x="96" y="342"/>
      <point x="130" y="346"/>
      <point x="142" y="346" type="curve" smooth="yes"/>
      <point x="155" y="346"/>
      <point x="159" y="338"/>
      <point x="154" y="325" type="curve" smooth="yes"/>
      <point x="61" y="87" type="line" smooth="yes"/>
      <point x="58" y="80"/>
      <point x="57" y="73"/>
      <point x="57" y="66" type="curve" smooth="yes"/>
      <point x="59" y="23"/>
      <point x="104" y="-14"/>
      <point x="124" y="-14" type="curve" smooth="yes"/>
    </contour>
    <contour>
      <point x="533" y="440" type="move" name="top"/>
    </contour>
    <contour>
      <point x="367" y="-30" type="move" name="bottom"/>
    </contour>
  </outline>
</glyph>
<glyph name="n" format="1">
  <advance width="625"/>
  <unicode hex="006E"/>
  <note>
    n
  </note>
  <outline>
    <contour>
      <point x="154" y="-14"/>
      <point x="187" y="18"/>
      <point x="210" y="58" type="curve" smooth="yes"/>
      <point x="241" y="112"/>
      <point x="307" y="223"/>
      <point x="329" y="255" type="curve" smooth="yes"/>
      <point x="363" y="306"/>
      <point x="403" y="367"/>
      <point x="429" y="367" type="curve" smooth="yes"/>
      <point x="443" y="367"/>
      <point x="444" y="357"/>
      <point x="437" y="338" type="curve" smooth="yes"/>
      <point x="400" y="237"/>
      <point x="357" y="141"/>
      <point x="313" y="42" type="curve" smooth="yes"/>
      <point x="302" y="17"/>
      <point x="336" y="-14"/>
      <point x="355" y="-14" type="curve" smooth="yes"/>
      <point x="435" y="-14"/>
      <point x="535" y="37"/>
      <point x="599" y="117" type="curve" smooth="yes"/>
      <point x="603" y="122"/>
      <point x="606" y="131"/>
      <point x="606" y="138" type="curve" smooth="yes"/>
      <point x="606" y="145"/>
      <point x="601" y="149"/>
      <point x="597" y="149" type="curve" smooth="yes"/>
      <point x="592" y="149"/>
      <point x="584" y="143"/>
      <point x="575" y="136" type="curve" smooth="yes"/>
      <point x="559" y="124"/>
      <point x="534" y="106"/>
      <point x="513" y="106" type="curve" smooth="yes"/>
      <point x="498" y="106"/>
      <point x="495" y="119"/>
      <point x="507" y="151" type="curve" smooth="yes"/>
      <point x="555" y="276" type="line" smooth="yes"/>
      <point x="584" y="353"/>
      <point x="576" y="437"/>
      <point x="491" y="437" type="curve" smooth="yes"/>
      <point x="403" y="437"/>
      <point x="326" y="327"/>
      <point x="251" y="208" type="curve" smooth="yes"/>
      <point x="246" y="200"/>
      <point x="236" y="200"/>
      <point x="240" y="210" type="curve" smooth="yes"/>
      <point x="302" y="358" type="line" smooth="yes"/>
      <point x="314" y="386"/>
      <point x="282" y="437"/>
      <point x="227" y="437" type="curve" smooth="yes"/>
      <point x="160" y="437"/>
      <point x="105" y="411"/>
      <point x="70" y="380" type="curve" smooth="yes"/>
      <point x="55" y="367"/>
      <point x="27" y="328"/>
      <point x="28" y="313" type="curve" smooth="yes"/>
      <point x="29" y="301"/>
      <point x="44" y="301"/>
      <point x="50" y="308" type="curve" smooth="yes"/>
      <point x="79" y="342"/>
      <point x="115" y="345"/>
      <point x="133" y="345" type="curve" smooth="yes"/>
      <point x="152" y="345"/>
      <point x="152" y="333"/>
      <point x="145" y="314" type="curve" smooth="yes"/>
      <point x="56" y="87" type="line" smooth="yes"/>
      <point x="36" y="35"/>
      <point x="104" y="-14"/>
      <point x="128" y="-14" type="curve" smooth="yes"/>
    </contour>
  </outline>
</glyph>
<glyph name="o" format="1">
  <advance width="475"/>
  <unicode hex="006F"/>
  <note>
    o
  </note>
  <outline>
    <contour>
      <point x="356" y="-14"/>
      <point x="467" y="167"/>
      <point x="467" y="289" type="curve" smooth="yes"/>
      <point x="467" y="384"/>
      <point x="403" y="437"/>
      <point x="310" y="437" type="curve" smooth="yes"/>
      <point x="119" y="437"/>
      <point x="8" y="256"/>
      <point x="8" y="134" type="curve" smooth="yes"/>
      <point x="8" y="44"/>
      <point x="83" y="-14"/>
      <point x="165" y="-14" type="curve" smooth="yes"/>
    </contour>
    <contour>
      <point x="166" y="27"/>
      <point x="152" y="40"/>
      <point x="152" y="67" type="curve" smooth="yes"/>
      <point x="152" y="187"/>
      <point x="239" y="399"/>
      <point x="292" y="399" type="curve" smooth="yes"/>
      <point x="313" y="399"/>
      <point x="324" y="386"/>
      <point x="324" y="360" type="curve" smooth="yes"/>
      <point x="324" y="239"/>
      <point x="247" y="27"/>
      <point x="185" y="27" type="curve" smooth="yes"/>
    </contour>
    <contour>
      <point x="317" y="440" type="move" name="top"/>
    </contour>
    <contour>
      <point x="170" y="-30" type="move" name="bottom"/>
    </contour>
  </outline>
</glyph>
<glyph name="p" format="1">
  <advance width="542"/>
  <unicode hex="0070"/>
  <note>
    p
  </note>
  <outline>
    <contour>
      <point x="-68" y="-285"/>
      <point x="-13" y="-281"/>
      <point x="20" y="-281" type="curve" smooth="yes"/>
      <point x="51" y="-281"/>
      <point x="121" y="-284"/>
      <point x="156" y="-284" type="curve" smooth="yes"/>
      <point x="166" y="-284"/>
      <point x="176" y="-279"/>
      <point x="176" y="-272" type="curve" smooth="yes"/>
      <point x="176" y="-258"/>
      <point x="167" y="-253"/>
      <point x="159" y="-251" type="curve" smooth="yes"/>
      <point x="109" y="-236"/>
      <point x="97" y="-219"/>
      <point x="105" y="-194" type="curve" smooth="yes"/>
      <point x="157" y="-6" type="line" smooth="yes"/>
      <point x="164" y="19"/>
      <point x="171" y="20"/>
      <point x="190" y="6" type="curve" smooth="yes"/>
      <point x="201" y="-2"/>
      <point x="221" y="-14"/>
      <point x="247" y="-14" type="curve" smooth="yes"/>
      <point x="400" y="-14"/>
      <point x="537" y="154"/>
      <point x="537" y="299" type="curve" smooth="yes"/>
      <point x="537" y="379"/>
      <point x="475" y="437"/>
      <point x="368" y="437" type="curve" smooth="yes"/>
      <point x="348" y="437"/>
      <point x="330" y="433"/>
      <point x="313" y="429" type="curve" smooth="yes"/>
      <point x="308" y="428"/>
      <point x="307" y="438"/>
      <point x="310" y="451" type="curve" smooth="yes"/>
      <point x="319" y="486" type="line" smooth="yes"/>
      <point x="329" y="525"/>
      <point x="319" y="540"/>
      <point x="291" y="540" type="curve" smooth="yes"/>
      <point x="247" y="540"/>
      <point x="205" y="510"/>
      <point x="183" y="446" type="curve" smooth="yes"/>
      <point x="173" y="417"/>
      <point x="165" y="408"/>
      <point x="156" y="404" type="curve" smooth="yes"/>
      <point x="107" y="382"/>
      <point x="75" y="369"/>
      <point x="54" y="360" type="curve" smooth="yes"/>
      <point x="41" y="355"/>
      <point x="26" y="346"/>
      <point x="26" y="331" type="curve" smooth="yes"/>
      <point x="26" y="315"/>
      <point x="41" y="316"/>
      <point x="52" y="320" type="curve" smooth="yes"/>
      <point x="83" y="331"/>
      <point x="101" y="337"/>
      <point x="134" y="346" type="curve" smooth="yes"/>
      <point x="157" y="352"/>
      <point x="146" y="328"/>
      <point x="141" y="311" type="curve" smooth="yes"/>
      <point x="-24" y="-204" type="line" smooth="yes"/>
      <point x="-35" y="-237"/>
      <point x="-50" y="-243"/>
      <point x="-94" y="-255" type="curve" smooth="yes"/>
      <point x="-105" y="-258"/>
      <point x="-113" y="-263"/>
      <point x="-114" y="-273" type="curve" smooth="yes"/>
      <point x="-115" y="-280"/>
      <point x="-111" y="-285"/>
      <point x="-105" y="-285" type="curve" smooth="yes"/>
    </contour>
    <contour>
      <point x="220" y="25"/>
      <point x="216" y="38"/>
      <point x="208" y="57" type="curve" smooth="yes"/>
      <point x="201" y="73"/>
      <point x="200" y="92"/>
      <point x="206" y="111" type="curve" smooth="yes"/>
      <point x="283" y="353" type="line" smooth="yes"/>
      <point x="288" y="370"/>
      <point x="297" y="380"/>
      <point x="317" y="380" type="curve" smooth="yes"/>
      <point x="378" y="380"/>
      <point x="397" y="336"/>
      <point x="397" y="281" type="curve" smooth="yes"/>
      <point x="397" y="142"/>
      <point x="290" y="25"/>
      <point x="243" y="25" type="curve" smooth="yes"/>
    </contour>
    <contour>
      <point x="393" y="440" type="move" name="top"/>
    </contour>
  </outline>
</glyph>
<glyph name="q" format="1">
  <advance width="506"/>
  <unicode hex="0071"/>
  <note>
    q
  </note>
  <outline>
    <contour>
      <point x="166" y="-282"/>
      <point x="263" y="-277"/>
      <point x="373" y="-277" type="curve" smooth="yes"/>
      <point x="385" y="-277"/>
      <point x="395" y="-272"/>
      <point x="395" y="-265" type="curve" smooth="yes"/>
      <point x="395" y="-256"/>
      <point x="386" y="-250"/>
      <point x="361" y="-246" type="curve" smooth="yes"/>
      <point x="336" y="-242"/>
      <point x="318" y="-227"/>
      <point x="328" y="-198" type="curve" smooth="yes"/>
      <point x="514" y="355" type="line" smooth="yes"/>
      <point x="541" y="438"/>
      <point x="529" y="469"/>
      <point x="507" y="469" type="curve" smooth="yes"/>
      <point x="486" y="469"/>
      <point x="462" y="458"/>
      <point x="438" y="424" type="curve" smooth="yes"/>
      <point x="430" y="412" type="line" smooth="yes"/>
      <point x="424" y="404"/>
      <point x="418" y="399"/>
      <point x="412" y="399" type="curve" smooth="yes"/>
      <point x="405" y="398"/>
      <point x="398" y="404"/>
      <point x="389" y="416" type="curve" smooth="yes"/>
      <point x="377" y="433"/>
      <point x="352" y="444"/>
      <point x="332" y="444" type="curve" smooth="yes"/>
      <point x="270" y="444"/>
      <point x="198" y="403"/>
      <point x="140" y="344" type="curve" smooth="yes"/>
      <point x="65" y="267"/>
      <point x="7" y="176"/>
      <point x="7" y="89" type="curve" smooth="yes"/>
      <point x="7" y="29"/>
      <point x="46" y="-14"/>
      <point x="97" y="-14" type="curve" smooth="yes"/>
      <point x="163" y="-14"/>
      <point x="211" y="20"/>
      <point x="299" y="137" type="curve" smooth="yes"/>
      <point x="305" y="145"/>
      <point x="314" y="145"/>
      <point x="310" y="135" type="curve" smooth="yes"/>
      <point x="266" y="17"/>
      <point x="221" y="-119"/>
      <point x="189" y="-205" type="curve" smooth="yes"/>
      <point x="177" y="-238"/>
      <point x="163" y="-244"/>
      <point x="119" y="-256" type="curve" smooth="yes"/>
      <point x="108" y="-259"/>
      <point x="100" y="-264"/>
      <point x="99" y="-274" type="curve" smooth="yes"/>
      <point x="98" y="-281"/>
      <point x="102" y="-289"/>
      <point x="108" y="-288" type="curve" smooth="yes"/>
    </contour>
    <contour>
      <point x="160" y="68"/>
      <point x="154" y="80"/>
      <point x="154" y="96" type="curve" smooth="yes"/>
      <point x="154" y="171"/>
      <point x="269" y="393"/>
      <point x="335" y="393" type="curve" smooth="yes"/>
      <point x="359" y="393"/>
      <point x="381" y="357"/>
      <point x="381" y="336" type="curve" smooth="yes"/>
      <point x="381" y="309"/>
      <point x="349" y="267"/>
      <point x="313" y="212" type="curve" smooth="yes"/>
      <point x="266" y="140"/>
      <point x="212" y="68"/>
      <point x="177" y="68" type="curve" smooth="yes"/>
    </contour>
  </outline>
</glyph>
<glyph name="r" format="1">
  <advance width="474"/>
  <unicode hex="0072"/>
  <note>
    r
  </note>
  <outline>
    <contour>
      <point x="127" y="-14"/>
      <point x="161" y="20"/>
      <point x="184" y="60" type="curve" smooth="yes"/>
      <point x="215" y="114"/>
      <point x="277" y="224"/>
      <point x="295" y="257" type="curve" smooth="yes"/>
      <point x="325" y="311"/>
      <point x="347" y="348"/>
      <point x="373" y="348" type="curve" smooth="yes"/>
      <point x="390" y="348"/>
      <point x="397" y="325"/>
      <point x="402" y="301" type="curve" smooth="yes"/>
      <point x="408" y="271"/>
      <point x="416" y="258"/>
      <point x="432" y="258" type="curve" smooth="yes"/>
      <point x="464" y="258"/>
      <point x="512" y="313"/>
      <point x="512" y="370" type="curve" smooth="yes"/>
      <point x="512" y="408"/>
      <point x="487" y="437"/>
      <point x="443" y="437" type="curve" smooth="yes"/>
      <point x="364" y="437"/>
      <point x="304" y="352"/>
      <point x="237" y="231" type="curve" smooth="yes"/>
      <point x="232" y="222"/>
      <point x="221" y="223"/>
      <point x="225" y="233" type="curve" smooth="yes"/>
      <point x="262" y="319" type="line" smooth="yes"/>
      <point x="291" y="386"/>
      <point x="276" y="437"/>
      <point x="221" y="437" type="curve" smooth="yes"/>
      <point x="188" y="437"/>
      <point x="149" y="425"/>
      <point x="117" y="407" type="curve" smooth="yes"/>
      <point x="76" y="384"/>
      <point x="44" y="351"/>
      <point x="47" y="320" type="curve" smooth="yes"/>
      <point x="48" y="308"/>
      <point x="62" y="309"/>
      <point x="69" y="315" type="curve" smooth="yes"/>
      <point x="90" y="332"/>
      <point x="102" y="346"/>
      <point x="131" y="346" type="curve" smooth="yes"/>
      <point x="144" y="346"/>
      <point x="148" y="338"/>
      <point x="143" y="325" type="curve" smooth="yes"/>
      <point x="40" y="59" type="line" smooth="yes"/>
      <point x="37" y="51"/>
      <point x="36" y="44"/>
      <point x="36" y="36" type="curve" smooth="yes"/>
      <point x="36" y="6"/>
      <point x="81" y="-14"/>
      <point x="101" y="-14" type="curve" smooth="yes"/>
    </contour>
    <contour>
      <point x="322" y="440" type="move" name="top"/>
    </contour>
    <contour>
      <point x="156" y="-30" type="move" name="bottom"/>
    </contour>
  </outline>
</glyph>
<glyph name="s" format="1">
  <advance width="326"/>
  <unicode hex="0073"/>
  <note>
    s
  </note>
  <outline>
    <contour>
      <point x="181" y="-14"/>
      <point x="279" y="86"/>
      <point x="279" y="137" type="curve" smooth="yes"/>
      <point x="279" y="171"/>
      <point x="254" y="210"/>
      <point x="217" y="256" type="curve" smooth="yes"/>
      <point x="190" y="288"/>
      <point x="167" y="317"/>
      <point x="167" y="333" type="curve" smooth="yes"/>
      <point x="167" y="345"/>
      <point x="176" y="361"/>
      <point x="194" y="361" type="curve" smooth="yes"/>
      <point x="212" y="361"/>
      <point x="230" y="350"/>
      <point x="243" y="330" type="curve" smooth="yes"/>
      <point x="253" y="315"/>
      <point x="269" y="298"/>
      <point x="286" y="298" type="curve" smooth="yes"/>
      <point x="311" y="298"/>
      <point x="350" y="344"/>
      <point x="350" y="369" type="curve" smooth="yes"/>
      <point x="350" y="395"/>
      <point x="292" y="437"/>
      <point x="237" y="437" type="curve" smooth="yes"/>
      <point x="185" y="437"/>
      <point x="64" y="341"/>
      <point x="64" y="273" type="curve" smooth="yes"/>
      <point x="64" y="235"/>
      <point x="90" y="191"/>
      <point x="115" y="156" type="curve" smooth="yes"/>
      <point x="137" y="126"/>
      <point x="160" y="97"/>
      <point x="159" y="79" type="curve" smooth="yes"/>
      <point x="158" y="59"/>
      <point x="151" y="48"/>
      <point x="132" y="48" type="curve" smooth="yes"/>
      <point x="107" y="48"/>
      <point x="83" y="70"/>
      <point x="63" y="90" type="curve" smooth="yes"/>
      <point x="46" y="108"/>
      <point x="31" y="125"/>
      <point x="21" y="125" type="curve" smooth="yes"/>
      <point x="-8" y="125"/>
      <point x="-24" y="95"/>
      <point x="-24" y="61" type="curve" smooth="yes"/>
      <point x="-24" y="16"/>
      <point x="16" y="-14"/>
      <point x="79" y="-14" type="curve" smooth="yes"/>
    </contour>
    <contour>
      <point x="238" y="440" type="move" name="top"/>
    </contour>
    <contour>
      <point x="97" y="-30" type="move" name="bottom"/>
    </contour>
  </outline>
</glyph>
<glyph name="t" format="1">
  <advance width="380"/>
  <unicode hex="0074"/>
  <note>
    t
  </note>
  <outline>
    <contour>
      <point x="193" y="-14"/>
      <point x="338" y="122"/>
      <point x="338" y="171" type="curve" smooth="yes"/>
      <point x="338" y="179"/>
      <point x="332" y="187"/>
      <point x="324" y="187" type="curve" smooth="yes"/>
      <point x="322" y="187"/>
      <point x="321" y="185"/>
      <point x="320" y="184" type="curve" smooth="yes"/>
      <point x="294" y="158"/>
      <point x="238" y="107"/>
      <point x="215" y="107" type="curve" smooth="yes"/>
      <point x="206" y="107"/>
      <point x="193" y="108"/>
      <point x="210" y="155" type="curve" smooth="yes"/>
      <point x="281" y="353" type="line" smooth="yes"/>
      <point x="287" y="369"/>
      <point x="299" y="373"/>
      <point x="325" y="374" type="curve" smooth="yes"/>
      <point x="349" y="375"/>
      <point x="364" y="377"/>
      <point x="379" y="379" type="curve" smooth="yes"/>
      <point x="401" y="382"/>
      <point x="408" y="395"/>
      <point x="408" y="399" type="curve" smooth="yes"/>
      <point x="408" y="409"/>
      <point x="407" y="417"/>
      <point x="375" y="421" type="curve" smooth="yes"/>
      <point x="350" y="424"/>
      <point x="331" y="426"/>
      <point x="315" y="426" type="curve" smooth="yes"/>
      <point x="300" y="426"/>
      <point x="294" y="429"/>
      <point x="300" y="451" type="curve" smooth="yes"/>
      <point x="323" y="530" type="line" smooth="yes"/>
      <point x="329" y="552"/>
      <point x="323" y="579"/>
      <point x="299" y="579" type="curve" smooth="yes"/>
      <point x="273" y="579"/>
      <point x="234" y="545"/>
      <point x="217" y="512" type="curve" smooth="yes"/>
      <point x="188" y="455" type="line" smooth="yes"/>
      <point x="176" y="432"/>
      <point x="174" y="428"/>
      <point x="153" y="428" type="curve" smooth="yes"/>
      <point x="102" y="428" type="line" smooth="yes"/>
      <point x="75" y="428"/>
      <point x="51" y="396"/>
      <point x="51" y="392" type="curve" smooth="yes"/>
      <point x="51" y="384"/>
      <point x="53" y="372"/>
      <point x="77" y="371" type="curve" smooth="yes"/>
      <point x="127" y="369" type="line" smooth="yes"/>
      <point x="137" y="369"/>
      <point x="147" y="363"/>
      <point x="138" y="338" type="curve" smooth="yes"/>
      <point x="44" y="89" type="line" smooth="yes"/>
      <point x="35" y="65"/>
      <point x="34" y="57"/>
      <point x="34" y="51" type="curve" smooth="yes"/>
      <point x="34" y="26"/>
      <point x="66" y="-14"/>
      <point x="100" y="-14" type="curve" smooth="yes"/>
    </contour>
    <contour>
      <point x="290" y="534" type="move" name="top"/>
    </contour>
    <contour>
      <point x="137" y="-30" type="move" name="bottom"/>
    </contour>
  </outline>
</glyph>
<glyph name="u" format="1">
  <advance width="592"/>
  <unicode hex="0075"/>
  <note>
    u
  </note>
  <outline>
    <contour>
      <point x="194" y="-14"/>
      <point x="287" y="110"/>
      <point x="351" y="206" type="curve" smooth="yes"/>
      <point x="357" y="215"/>
      <point x="367" y="214"/>
      <point x="363" y="204" type="curve" smooth="yes"/>
      <point x="338" y="142"/>
      <point x="318" y="98"/>
      <point x="304" y="67" type="curve" smooth="yes"/>
      <point x="300" y="58"/>
      <point x="299" y="52"/>
      <point x="299" y="46" type="curve" smooth="yes"/>
      <point x="299" y="23"/>
      <point x="321" y="-14"/>
      <point x="348" y="-14" type="curve" smooth="yes"/>
      <point x="417" y="-14"/>
      <point x="560" y="99"/>
      <point x="560" y="148" type="curve" smooth="yes"/>
      <point x="560" y="156"/>
      <point x="554" y="164"/>
      <point x="546" y="164" type="curve" smooth="yes"/>
      <point x="544" y="164"/>
      <point x="543" y="162"/>
      <point x="542" y="161" type="curve" smooth="yes"/>
      <point x="516" y="135"/>
      <point x="469" y="99"/>
      <point x="456" y="99" type="curve" smooth="yes"/>
      <point x="449" y="99"/>
      <point x="450" y="110"/>
      <point x="453" y="118" type="curve" smooth="yes"/>
      <point x="530" y="336" type="line" smooth="yes"/>
      <point x="555" y="406"/>
      <point x="535" y="437"/>
      <point x="483" y="437" type="curve" smooth="yes"/>
      <point x="457" y="437"/>
      <point x="438" y="397"/>
      <point x="413" y="357" type="curve" smooth="yes"/>
      <point x="388" y="318"/>
      <point x="358" y="274"/>
      <point x="329" y="234" type="curve" smooth="yes"/>
      <point x="278" y="163"/>
      <point x="228" y="105"/>
      <point x="208" y="105" type="curve" smooth="yes"/>
      <point x="194" y="105"/>
      <point x="192" y="119"/>
      <point x="201" y="138" type="curve" smooth="yes"/>
      <point x="249" y="240"/>
      <point x="278" y="297"/>
      <point x="303" y="353" type="curve" smooth="yes"/>
      <point x="327" y="406"/>
      <point x="308" y="437"/>
      <point x="267" y="437" type="curve" smooth="yes"/>
      <point x="195" y="437"/>
      <point x="107" y="385"/>
      <point x="47" y="313" type="curve" smooth="yes"/>
      <point x="37" y="301"/>
      <point x="32" y="288"/>
      <point x="32" y="273" type="curve" smooth="yes"/>
      <point x="32" y="266"/>
      <point x="38" y="260"/>
      <point x="42" y="260" type="curve" smooth="yes"/>
      <point x="47" y="260"/>
      <point x="57" y="270"/>
      <point x="65" y="278" type="curve" smooth="yes"/>
      <point x="79" y="292"/>
      <point x="131" y="328"/>
      <point x="144" y="328" type="curve" smooth="yes"/>
      <point x="154" y="328"/>
      <point x="157" y="319"/>
      <point x="148" y="299" type="curve" smooth="yes"/>
      <point x="65" y="114" type="line" smooth="yes"/>
      <point x="41" y="60"/>
      <point x="44" y="-14"/>
      <point x="94" y="-14" type="curve" smooth="yes"/>
    </contour>
    <contour>
      <point x="389" y="440" type="move" name="top"/>
    </contour>
    <contour>
      <point x="227" y="-30" type="move" name="bottom"/>
    </contour>
  </outline>
</glyph>
